<?xml version="1.0" encoding="utf-8" standalone="no"?>
<!DOCTYPE svg PUBLIC "-//W3C//DTD SVG 1.1//EN"
  "http://www.w3.org/Graphics/SVG/1.1/DTD/svg11.dtd">
<!-- Created with matplotlib (http://matplotlib.org/) -->
<svg height="864pt" version="1.1" viewBox="0 0 576 864" width="576pt" xmlns="http://www.w3.org/2000/svg" xmlns:xlink="http://www.w3.org/1999/xlink">
 <defs>
  <style type="text/css">
*{stroke-linecap:butt;stroke-linejoin:round;}
  </style>
 </defs>
 <g id="figure_1">
  <g id="patch_1">
   <path d="M 0 864 
L 576 864 
L 576 0 
L 0 0 
z
" style="fill:#ffffff;"/>
  </g>
  <g id="axes_1">
   <g id="patch_2">
    <path d="M 72 248.306087 
L 518.4 248.306087 
L 518.4 103.68 
L 72 103.68 
z
" style="fill:#ffffff;"/>
   </g>
   <g id="matplotlib.axis_1">
    <g id="xtick_1">
     <g id="line2d_1">
      <defs>
       <path d="M 0 0 
L 0 3.5 
" id="m4aec87d6db" style="stroke:#000000;stroke-width:0.8;"/>
      </defs>
      <g>
       <use style="stroke:#000000;stroke-width:0.8;" x="92.290909" xlink:href="#m4aec87d6db" y="248.306087"/>
      </g>
     </g>
     <g id="text_1">
      <!-- 0 -->
      <defs>
       <path d="M 31.78125 66.40625 
Q 24.171875 66.40625 20.328125 58.90625 
Q 16.5 51.421875 16.5 36.375 
Q 16.5 21.390625 20.328125 13.890625 
Q 24.171875 6.390625 31.78125 6.390625 
Q 39.453125 6.390625 43.28125 13.890625 
Q 47.125 21.390625 47.125 36.375 
Q 47.125 51.421875 43.28125 58.90625 
Q 39.453125 66.40625 31.78125 66.40625 
z
M 31.78125 74.21875 
Q 44.046875 74.21875 50.515625 64.515625 
Q 56.984375 54.828125 56.984375 36.375 
Q 56.984375 17.96875 50.515625 8.265625 
Q 44.046875 -1.421875 31.78125 -1.421875 
Q 19.53125 -1.421875 13.0625 8.265625 
Q 6.59375 17.96875 6.59375 36.375 
Q 6.59375 54.828125 13.0625 64.515625 
Q 19.53125 74.21875 31.78125 74.21875 
z
" id="DejaVuSans-30"/>
      </defs>
      <g transform="translate(89.109659 262.904524)scale(0.1 -0.1)">
       <use xlink:href="#DejaVuSans-30"/>
      </g>
     </g>
    </g>
    <g id="xtick_2">
     <g id="line2d_2">
      <g>
       <use style="stroke:#000000;stroke-width:0.8;" x="143.660299" xlink:href="#m4aec87d6db" y="248.306087"/>
      </g>
     </g>
     <g id="text_2">
      <!-- 10 -->
      <defs>
       <path d="M 12.40625 8.296875 
L 28.515625 8.296875 
L 28.515625 63.921875 
L 10.984375 60.40625 
L 10.984375 69.390625 
L 28.421875 72.90625 
L 38.28125 72.90625 
L 38.28125 8.296875 
L 54.390625 8.296875 
L 54.390625 0 
L 12.40625 0 
z
" id="DejaVuSans-31"/>
      </defs>
      <g transform="translate(137.297799 262.904524)scale(0.1 -0.1)">
       <use xlink:href="#DejaVuSans-31"/>
       <use x="63.623047" xlink:href="#DejaVuSans-30"/>
      </g>
     </g>
    </g>
    <g id="xtick_3">
     <g id="line2d_3">
      <g>
       <use style="stroke:#000000;stroke-width:0.8;" x="195.029689" xlink:href="#m4aec87d6db" y="248.306087"/>
      </g>
     </g>
     <g id="text_3">
      <!-- 20 -->
      <defs>
       <path d="M 19.1875 8.296875 
L 53.609375 8.296875 
L 53.609375 0 
L 7.328125 0 
L 7.328125 8.296875 
Q 12.9375 14.109375 22.625 23.890625 
Q 32.328125 33.6875 34.8125 36.53125 
Q 39.546875 41.84375 41.421875 45.53125 
Q 43.3125 49.21875 43.3125 52.78125 
Q 43.3125 58.59375 39.234375 62.25 
Q 35.15625 65.921875 28.609375 65.921875 
Q 23.96875 65.921875 18.8125 64.3125 
Q 13.671875 62.703125 7.8125 59.421875 
L 7.8125 69.390625 
Q 13.765625 71.78125 18.9375 73 
Q 24.125 74.21875 28.421875 74.21875 
Q 39.75 74.21875 46.484375 68.546875 
Q 53.21875 62.890625 53.21875 53.421875 
Q 53.21875 48.921875 51.53125 44.890625 
Q 49.859375 40.875 45.40625 35.40625 
Q 44.1875 33.984375 37.640625 27.21875 
Q 31.109375 20.453125 19.1875 8.296875 
z
" id="DejaVuSans-32"/>
      </defs>
      <g transform="translate(188.667189 262.904524)scale(0.1 -0.1)">
       <use xlink:href="#DejaVuSans-32"/>
       <use x="63.623047" xlink:href="#DejaVuSans-30"/>
      </g>
     </g>
    </g>
    <g id="xtick_4">
     <g id="line2d_4">
      <g>
       <use style="stroke:#000000;stroke-width:0.8;" x="246.399079" xlink:href="#m4aec87d6db" y="248.306087"/>
      </g>
     </g>
     <g id="text_4">
      <!-- 30 -->
      <defs>
       <path d="M 40.578125 39.3125 
Q 47.65625 37.796875 51.625 33 
Q 55.609375 28.21875 55.609375 21.1875 
Q 55.609375 10.40625 48.1875 4.484375 
Q 40.765625 -1.421875 27.09375 -1.421875 
Q 22.515625 -1.421875 17.65625 -0.515625 
Q 12.796875 0.390625 7.625 2.203125 
L 7.625 11.71875 
Q 11.71875 9.328125 16.59375 8.109375 
Q 21.484375 6.890625 26.8125 6.890625 
Q 36.078125 6.890625 40.9375 10.546875 
Q 45.796875 14.203125 45.796875 21.1875 
Q 45.796875 27.640625 41.28125 31.265625 
Q 36.765625 34.90625 28.71875 34.90625 
L 20.21875 34.90625 
L 20.21875 43.015625 
L 29.109375 43.015625 
Q 36.375 43.015625 40.234375 45.921875 
Q 44.09375 48.828125 44.09375 54.296875 
Q 44.09375 59.90625 40.109375 62.90625 
Q 36.140625 65.921875 28.71875 65.921875 
Q 24.65625 65.921875 20.015625 65.03125 
Q 15.375 64.15625 9.8125 62.3125 
L 9.8125 71.09375 
Q 15.4375 72.65625 20.34375 73.4375 
Q 25.25 74.21875 29.59375 74.21875 
Q 40.828125 74.21875 47.359375 69.109375 
Q 53.90625 64.015625 53.90625 55.328125 
Q 53.90625 49.265625 50.4375 45.09375 
Q 46.96875 40.921875 40.578125 39.3125 
z
" id="DejaVuSans-33"/>
      </defs>
      <g transform="translate(240.036579 262.904524)scale(0.1 -0.1)">
       <use xlink:href="#DejaVuSans-33"/>
       <use x="63.623047" xlink:href="#DejaVuSans-30"/>
      </g>
     </g>
    </g>
    <g id="xtick_5">
     <g id="line2d_5">
      <g>
       <use style="stroke:#000000;stroke-width:0.8;" x="297.76847" xlink:href="#m4aec87d6db" y="248.306087"/>
      </g>
     </g>
     <g id="text_5">
      <!-- 40 -->
      <defs>
       <path d="M 37.796875 64.3125 
L 12.890625 25.390625 
L 37.796875 25.390625 
z
M 35.203125 72.90625 
L 47.609375 72.90625 
L 47.609375 25.390625 
L 58.015625 25.390625 
L 58.015625 17.1875 
L 47.609375 17.1875 
L 47.609375 0 
L 37.796875 0 
L 37.796875 17.1875 
L 4.890625 17.1875 
L 4.890625 26.703125 
z
" id="DejaVuSans-34"/>
      </defs>
      <g transform="translate(291.40597 262.904524)scale(0.1 -0.1)">
       <use xlink:href="#DejaVuSans-34"/>
       <use x="63.623047" xlink:href="#DejaVuSans-30"/>
      </g>
     </g>
    </g>
    <g id="xtick_6">
     <g id="line2d_6">
      <g>
       <use style="stroke:#000000;stroke-width:0.8;" x="349.13786" xlink:href="#m4aec87d6db" y="248.306087"/>
      </g>
     </g>
     <g id="text_6">
      <!-- 50 -->
      <defs>
       <path d="M 10.796875 72.90625 
L 49.515625 72.90625 
L 49.515625 64.59375 
L 19.828125 64.59375 
L 19.828125 46.734375 
Q 21.96875 47.46875 24.109375 47.828125 
Q 26.265625 48.1875 28.421875 48.1875 
Q 40.625 48.1875 47.75 41.5 
Q 54.890625 34.8125 54.890625 23.390625 
Q 54.890625 11.625 47.5625 5.09375 
Q 40.234375 -1.421875 26.90625 -1.421875 
Q 22.3125 -1.421875 17.546875 -0.640625 
Q 12.796875 0.140625 7.71875 1.703125 
L 7.71875 11.625 
Q 12.109375 9.234375 16.796875 8.0625 
Q 21.484375 6.890625 26.703125 6.890625 
Q 35.15625 6.890625 40.078125 11.328125 
Q 45.015625 15.765625 45.015625 23.390625 
Q 45.015625 31 40.078125 35.4375 
Q 35.15625 39.890625 26.703125 39.890625 
Q 22.75 39.890625 18.8125 39.015625 
Q 14.890625 38.140625 10.796875 36.28125 
z
" id="DejaVuSans-35"/>
      </defs>
      <g transform="translate(342.77536 262.904524)scale(0.1 -0.1)">
       <use xlink:href="#DejaVuSans-35"/>
       <use x="63.623047" xlink:href="#DejaVuSans-30"/>
      </g>
     </g>
    </g>
    <g id="xtick_7">
     <g id="line2d_7">
      <g>
       <use style="stroke:#000000;stroke-width:0.8;" x="400.50725" xlink:href="#m4aec87d6db" y="248.306087"/>
      </g>
     </g>
     <g id="text_7">
      <!-- 60 -->
      <defs>
       <path d="M 33.015625 40.375 
Q 26.375 40.375 22.484375 35.828125 
Q 18.609375 31.296875 18.609375 23.390625 
Q 18.609375 15.53125 22.484375 10.953125 
Q 26.375 6.390625 33.015625 6.390625 
Q 39.65625 6.390625 43.53125 10.953125 
Q 47.40625 15.53125 47.40625 23.390625 
Q 47.40625 31.296875 43.53125 35.828125 
Q 39.65625 40.375 33.015625 40.375 
z
M 52.59375 71.296875 
L 52.59375 62.3125 
Q 48.875 64.0625 45.09375 64.984375 
Q 41.3125 65.921875 37.59375 65.921875 
Q 27.828125 65.921875 22.671875 59.328125 
Q 17.53125 52.734375 16.796875 39.40625 
Q 19.671875 43.65625 24.015625 45.921875 
Q 28.375 48.1875 33.59375 48.1875 
Q 44.578125 48.1875 50.953125 41.515625 
Q 57.328125 34.859375 57.328125 23.390625 
Q 57.328125 12.15625 50.6875 5.359375 
Q 44.046875 -1.421875 33.015625 -1.421875 
Q 20.359375 -1.421875 13.671875 8.265625 
Q 6.984375 17.96875 6.984375 36.375 
Q 6.984375 53.65625 15.1875 63.9375 
Q 23.390625 74.21875 37.203125 74.21875 
Q 40.921875 74.21875 44.703125 73.484375 
Q 48.484375 72.75 52.59375 71.296875 
z
" id="DejaVuSans-36"/>
      </defs>
      <g transform="translate(394.14475 262.904524)scale(0.1 -0.1)">
       <use xlink:href="#DejaVuSans-36"/>
       <use x="63.623047" xlink:href="#DejaVuSans-30"/>
      </g>
     </g>
    </g>
    <g id="xtick_8">
     <g id="line2d_8">
      <g>
       <use style="stroke:#000000;stroke-width:0.8;" x="451.87664" xlink:href="#m4aec87d6db" y="248.306087"/>
      </g>
     </g>
     <g id="text_8">
      <!-- 70 -->
      <defs>
       <path d="M 8.203125 72.90625 
L 55.078125 72.90625 
L 55.078125 68.703125 
L 28.609375 0 
L 18.3125 0 
L 43.21875 64.59375 
L 8.203125 64.59375 
z
" id="DejaVuSans-37"/>
      </defs>
      <g transform="translate(445.51414 262.904524)scale(0.1 -0.1)">
       <use xlink:href="#DejaVuSans-37"/>
       <use x="63.623047" xlink:href="#DejaVuSans-30"/>
      </g>
     </g>
    </g>
    <g id="xtick_9">
     <g id="line2d_9">
      <g>
       <use style="stroke:#000000;stroke-width:0.8;" x="503.24603" xlink:href="#m4aec87d6db" y="248.306087"/>
      </g>
     </g>
     <g id="text_9">
      <!-- 80 -->
      <defs>
       <path d="M 31.78125 34.625 
Q 24.75 34.625 20.71875 30.859375 
Q 16.703125 27.09375 16.703125 20.515625 
Q 16.703125 13.921875 20.71875 10.15625 
Q 24.75 6.390625 31.78125 6.390625 
Q 38.8125 6.390625 42.859375 10.171875 
Q 46.921875 13.96875 46.921875 20.515625 
Q 46.921875 27.09375 42.890625 30.859375 
Q 38.875 34.625 31.78125 34.625 
z
M 21.921875 38.8125 
Q 15.578125 40.375 12.03125 44.71875 
Q 8.5 49.078125 8.5 55.328125 
Q 8.5 64.0625 14.71875 69.140625 
Q 20.953125 74.21875 31.78125 74.21875 
Q 42.671875 74.21875 48.875 69.140625 
Q 55.078125 64.0625 55.078125 55.328125 
Q 55.078125 49.078125 51.53125 44.71875 
Q 48 40.375 41.703125 38.8125 
Q 48.828125 37.15625 52.796875 32.3125 
Q 56.78125 27.484375 56.78125 20.515625 
Q 56.78125 9.90625 50.3125 4.234375 
Q 43.84375 -1.421875 31.78125 -1.421875 
Q 19.734375 -1.421875 13.25 4.234375 
Q 6.78125 9.90625 6.78125 20.515625 
Q 6.78125 27.484375 10.78125 32.3125 
Q 14.796875 37.15625 21.921875 38.8125 
z
M 18.3125 54.390625 
Q 18.3125 48.734375 21.84375 45.5625 
Q 25.390625 42.390625 31.78125 42.390625 
Q 38.140625 42.390625 41.71875 45.5625 
Q 45.3125 48.734375 45.3125 54.390625 
Q 45.3125 60.0625 41.71875 63.234375 
Q 38.140625 66.40625 31.78125 66.40625 
Q 25.390625 66.40625 21.84375 63.234375 
Q 18.3125 60.0625 18.3125 54.390625 
z
" id="DejaVuSans-38"/>
      </defs>
      <g transform="translate(496.88353 262.904524)scale(0.1 -0.1)">
       <use xlink:href="#DejaVuSans-38"/>
       <use x="63.623047" xlink:href="#DejaVuSans-30"/>
      </g>
     </g>
    </g>
   </g>
   <g id="matplotlib.axis_2">
    <g id="ytick_1">
     <g id="line2d_10">
      <defs>
       <path d="M 0 0 
L -3.5 0 
" id="mf351a84776" style="stroke:#000000;stroke-width:0.8;"/>
      </defs>
      <g>
       <use style="stroke:#000000;stroke-width:0.8;" x="72" xlink:href="#mf351a84776" y="232.719383"/>
      </g>
     </g>
     <g id="text_10">
      <!-- 25 -->
      <g transform="translate(52.275 236.518602)scale(0.1 -0.1)">
       <use xlink:href="#DejaVuSans-32"/>
       <use x="63.623047" xlink:href="#DejaVuSans-35"/>
      </g>
     </g>
    </g>
    <g id="ytick_2">
     <g id="line2d_11">
      <g>
       <use style="stroke:#000000;stroke-width:0.8;" x="72" xlink:href="#mf351a84776" y="210.813294"/>
      </g>
     </g>
     <g id="text_11">
      <!-- 50 -->
      <g transform="translate(52.275 214.612513)scale(0.1 -0.1)">
       <use xlink:href="#DejaVuSans-35"/>
       <use x="63.623047" xlink:href="#DejaVuSans-30"/>
      </g>
     </g>
    </g>
    <g id="ytick_3">
     <g id="line2d_12">
      <g>
       <use style="stroke:#000000;stroke-width:0.8;" x="72" xlink:href="#mf351a84776" y="188.907205"/>
      </g>
     </g>
     <g id="text_12">
      <!-- 75 -->
      <g transform="translate(52.275 192.706423)scale(0.1 -0.1)">
       <use xlink:href="#DejaVuSans-37"/>
       <use x="63.623047" xlink:href="#DejaVuSans-35"/>
      </g>
     </g>
    </g>
    <g id="ytick_4">
     <g id="line2d_13">
      <g>
       <use style="stroke:#000000;stroke-width:0.8;" x="72" xlink:href="#mf351a84776" y="167.001115"/>
      </g>
     </g>
     <g id="text_13">
      <!-- 100 -->
      <g transform="translate(45.9125 170.800334)scale(0.1 -0.1)">
       <use xlink:href="#DejaVuSans-31"/>
       <use x="63.623047" xlink:href="#DejaVuSans-30"/>
       <use x="127.246094" xlink:href="#DejaVuSans-30"/>
      </g>
     </g>
    </g>
    <g id="ytick_5">
     <g id="line2d_14">
      <g>
       <use style="stroke:#000000;stroke-width:0.8;" x="72" xlink:href="#mf351a84776" y="145.095026"/>
      </g>
     </g>
     <g id="text_14">
      <!-- 125 -->
      <g transform="translate(45.9125 148.894245)scale(0.1 -0.1)">
       <use xlink:href="#DejaVuSans-31"/>
       <use x="63.623047" xlink:href="#DejaVuSans-32"/>
       <use x="127.246094" xlink:href="#DejaVuSans-35"/>
      </g>
     </g>
    </g>
    <g id="ytick_6">
     <g id="line2d_15">
      <g>
       <use style="stroke:#000000;stroke-width:0.8;" x="72" xlink:href="#mf351a84776" y="123.188937"/>
      </g>
     </g>
     <g id="text_15">
      <!-- 150 -->
      <g transform="translate(45.9125 126.988156)scale(0.1 -0.1)">
       <use xlink:href="#DejaVuSans-31"/>
       <use x="63.623047" xlink:href="#DejaVuSans-35"/>
       <use x="127.246094" xlink:href="#DejaVuSans-30"/>
      </g>
     </g>
    </g>
   </g>
   <g id="line2d_16">
    <path clip-path="url(#pa4c09ff172)" d="M 92.290909 165.546026 
L 97.427848 170.387651 
L 102.564787 170.387651 
L 107.701726 170.387651 
L 112.838665 170.387651 
L 117.975604 170.387651 
L 123.112543 163.730419 
L 128.249482 186.72812 
L 133.386421 189.300232 
L 138.52336 169.782448 
L 143.660299 169.631148 
L 148.797238 185.275634 
L 153.934177 183.066646 
L 159.071116 170.387651 
L 164.208055 168.572044 
L 169.344994 152.274717 
L 174.481933 138.585788 
L 179.618872 145.720915 
L 184.755811 138.126804 
L 189.89275 185.318779 
L 195.029689 162.953705 
L 200.166628 159.615634 
L 205.303567 137.500915 
L 210.440506 155.067513 
L 215.577445 137.208834 
L 220.714384 165.039999 
L 225.851323 137.876448 
L 230.988262 137.876448 
L 236.125201 120.309851 
L 241.26214 147.264772 
L 246.399079 127.361526 
L 251.536018 172.550658 
L 256.672957 149.684874 
L 261.809896 151.604264 
L 266.946835 128.947109 
L 272.083774 129.072287 
L 277.220713 142.007311 
L 282.357652 145.554011 
L 287.494591 134.663555 
L 292.63153 129.364368 
L 297.76847 137.834722 
L 302.905409 159.281827 
L 308.042348 157.654517 
L 313.179287 133.745586 
L 318.316226 189.282738 
L 323.453165 227.754003 
L 328.590104 239.562428 
L 333.727043 241.440093 
L 338.863982 239.771057 
L 344.000921 240.939382 
L 349.13786 110.253913 
L 354.274799 241.732174 
L 359.411738 202.301213 
L 364.548677 239.395524 
L 369.685616 138.126804 
L 374.822555 137.792997 
L 379.959494 174.428323 
L 385.096433 138.710966 
L 390.233372 150.394214 
L 395.370311 143.384265 
L 400.50725 138.418885 
L 405.644189 139.211677 
L 410.781128 151.395635 
L 415.918067 151.896345 
L 421.055006 134.454926 
L 426.191945 133.954215 
L 431.328884 134.037667 
L 436.465823 132.952794 
L 441.602762 155.109238 
L 446.739701 131.242033 
L 451.87664 132.869342 
L 457.013579 134.454926 
L 462.150518 153.899188 
L 467.287457 122.85513 
L 472.424396 122.604775 
L 477.561335 124.565891 
L 482.698274 124.315536 
L 487.835213 134.621829 
L 492.972152 119.850866 
L 498.109091 120.935739 
" style="fill:none;stroke:#1f77b4;stroke-linecap:square;stroke-width:1.5;"/>
   </g>
   <g id="patch_3">
    <path d="M 72 248.306087 
L 72 103.68 
" style="fill:none;stroke:#000000;stroke-linecap:square;stroke-linejoin:miter;stroke-width:0.8;"/>
   </g>
   <g id="patch_4">
    <path d="M 518.4 248.306087 
L 518.4 103.68 
" style="fill:none;stroke:#000000;stroke-linecap:square;stroke-linejoin:miter;stroke-width:0.8;"/>
   </g>
   <g id="patch_5">
    <path d="M 72 248.306087 
L 518.4 248.306087 
" style="fill:none;stroke:#000000;stroke-linecap:square;stroke-linejoin:miter;stroke-width:0.8;"/>
   </g>
   <g id="patch_6">
    <path d="M 72 103.68 
L 518.4 103.68 
" style="fill:none;stroke:#000000;stroke-linecap:square;stroke-linejoin:miter;stroke-width:0.8;"/>
   </g>
   <g id="text_16">
    <!-- left onset -->
    <defs>
     <path d="M 9.421875 75.984375 
L 18.40625 75.984375 
L 18.40625 0 
L 9.421875 0 
z
" id="DejaVuSans-6c"/>
     <path d="M 56.203125 29.59375 
L 56.203125 25.203125 
L 14.890625 25.203125 
Q 15.484375 15.921875 20.484375 11.0625 
Q 25.484375 6.203125 34.421875 6.203125 
Q 39.59375 6.203125 44.453125 7.46875 
Q 49.3125 8.734375 54.109375 11.28125 
L 54.109375 2.78125 
Q 49.265625 0.734375 44.1875 -0.34375 
Q 39.109375 -1.421875 33.890625 -1.421875 
Q 20.796875 -1.421875 13.15625 6.1875 
Q 5.515625 13.8125 5.515625 26.8125 
Q 5.515625 40.234375 12.765625 48.109375 
Q 20.015625 56 32.328125 56 
Q 43.359375 56 49.78125 48.890625 
Q 56.203125 41.796875 56.203125 29.59375 
z
M 47.21875 32.234375 
Q 47.125 39.59375 43.09375 43.984375 
Q 39.0625 48.390625 32.421875 48.390625 
Q 24.90625 48.390625 20.390625 44.140625 
Q 15.875 39.890625 15.1875 32.171875 
z
" id="DejaVuSans-65"/>
     <path d="M 37.109375 75.984375 
L 37.109375 68.5 
L 28.515625 68.5 
Q 23.6875 68.5 21.796875 66.546875 
Q 19.921875 64.59375 19.921875 59.515625 
L 19.921875 54.6875 
L 34.71875 54.6875 
L 34.71875 47.703125 
L 19.921875 47.703125 
L 19.921875 0 
L 10.890625 0 
L 10.890625 47.703125 
L 2.296875 47.703125 
L 2.296875 54.6875 
L 10.890625 54.6875 
L 10.890625 58.5 
Q 10.890625 67.625 15.140625 71.796875 
Q 19.390625 75.984375 28.609375 75.984375 
z
" id="DejaVuSans-66"/>
     <path d="M 18.3125 70.21875 
L 18.3125 54.6875 
L 36.8125 54.6875 
L 36.8125 47.703125 
L 18.3125 47.703125 
L 18.3125 18.015625 
Q 18.3125 11.328125 20.140625 9.421875 
Q 21.96875 7.515625 27.59375 7.515625 
L 36.8125 7.515625 
L 36.8125 0 
L 27.59375 0 
Q 17.1875 0 13.234375 3.875 
Q 9.28125 7.765625 9.28125 18.015625 
L 9.28125 47.703125 
L 2.6875 47.703125 
L 2.6875 54.6875 
L 9.28125 54.6875 
L 9.28125 70.21875 
z
" id="DejaVuSans-74"/>
     <path id="DejaVuSans-20"/>
     <path d="M 30.609375 48.390625 
Q 23.390625 48.390625 19.1875 42.75 
Q 14.984375 37.109375 14.984375 27.296875 
Q 14.984375 17.484375 19.15625 11.84375 
Q 23.34375 6.203125 30.609375 6.203125 
Q 37.796875 6.203125 41.984375 11.859375 
Q 46.1875 17.53125 46.1875 27.296875 
Q 46.1875 37.015625 41.984375 42.703125 
Q 37.796875 48.390625 30.609375 48.390625 
z
M 30.609375 56 
Q 42.328125 56 49.015625 48.375 
Q 55.71875 40.765625 55.71875 27.296875 
Q 55.71875 13.875 49.015625 6.21875 
Q 42.328125 -1.421875 30.609375 -1.421875 
Q 18.84375 -1.421875 12.171875 6.21875 
Q 5.515625 13.875 5.515625 27.296875 
Q 5.515625 40.765625 12.171875 48.375 
Q 18.84375 56 30.609375 56 
z
" id="DejaVuSans-6f"/>
     <path d="M 54.890625 33.015625 
L 54.890625 0 
L 45.90625 0 
L 45.90625 32.71875 
Q 45.90625 40.484375 42.875 44.328125 
Q 39.84375 48.1875 33.796875 48.1875 
Q 26.515625 48.1875 22.3125 43.546875 
Q 18.109375 38.921875 18.109375 30.90625 
L 18.109375 0 
L 9.078125 0 
L 9.078125 54.6875 
L 18.109375 54.6875 
L 18.109375 46.1875 
Q 21.34375 51.125 25.703125 53.5625 
Q 30.078125 56 35.796875 56 
Q 45.21875 56 50.046875 50.171875 
Q 54.890625 44.34375 54.890625 33.015625 
z
" id="DejaVuSans-6e"/>
     <path d="M 44.28125 53.078125 
L 44.28125 44.578125 
Q 40.484375 46.53125 36.375 47.5 
Q 32.28125 48.484375 27.875 48.484375 
Q 21.1875 48.484375 17.84375 46.4375 
Q 14.5 44.390625 14.5 40.28125 
Q 14.5 37.15625 16.890625 35.375 
Q 19.28125 33.59375 26.515625 31.984375 
L 29.59375 31.296875 
Q 39.15625 29.25 43.1875 25.515625 
Q 47.21875 21.78125 47.21875 15.09375 
Q 47.21875 7.46875 41.1875 3.015625 
Q 35.15625 -1.421875 24.609375 -1.421875 
Q 20.21875 -1.421875 15.453125 -0.5625 
Q 10.6875 0.296875 5.421875 2 
L 5.421875 11.28125 
Q 10.40625 8.6875 15.234375 7.390625 
Q 20.0625 6.109375 24.8125 6.109375 
Q 31.15625 6.109375 34.5625 8.28125 
Q 37.984375 10.453125 37.984375 14.40625 
Q 37.984375 18.0625 35.515625 20.015625 
Q 33.0625 21.96875 24.703125 23.78125 
L 21.578125 24.515625 
Q 13.234375 26.265625 9.515625 29.90625 
Q 5.8125 33.546875 5.8125 39.890625 
Q 5.8125 47.609375 11.28125 51.796875 
Q 16.75 56 26.8125 56 
Q 31.78125 56 36.171875 55.265625 
Q 40.578125 54.546875 44.28125 53.078125 
z
" id="DejaVuSans-73"/>
    </defs>
    <g transform="translate(266.8275 97.68)scale(0.12 -0.12)">
     <use xlink:href="#DejaVuSans-6c"/>
     <use x="27.783203" xlink:href="#DejaVuSans-65"/>
     <use x="89.306641" xlink:href="#DejaVuSans-66"/>
     <use x="124.496094" xlink:href="#DejaVuSans-74"/>
     <use x="163.705078" xlink:href="#DejaVuSans-20"/>
     <use x="195.492188" xlink:href="#DejaVuSans-6f"/>
     <use x="256.673828" xlink:href="#DejaVuSans-6e"/>
     <use x="320.052734" xlink:href="#DejaVuSans-73"/>
     <use x="372.152344" xlink:href="#DejaVuSans-65"/>
     <use x="433.675781" xlink:href="#DejaVuSans-74"/>
    </g>
   </g>
  </g>
  <g id="axes_2">
   <g id="patch_7">
    <path d="M 72 421.857391 
L 518.4 421.857391 
L 518.4 277.231304 
L 72 277.231304 
z
" style="fill:#ffffff;"/>
   </g>
   <g id="matplotlib.axis_3">
    <g id="xtick_10">
     <g id="line2d_17">
      <g>
       <use style="stroke:#000000;stroke-width:0.8;" x="92.290909" xlink:href="#m4aec87d6db" y="421.857391"/>
      </g>
     </g>
     <g id="text_17">
      <!-- 0 -->
      <g transform="translate(89.109659 436.455829)scale(0.1 -0.1)">
       <use xlink:href="#DejaVuSans-30"/>
      </g>
     </g>
    </g>
    <g id="xtick_11">
     <g id="line2d_18">
      <g>
       <use style="stroke:#000000;stroke-width:0.8;" x="143.660299" xlink:href="#m4aec87d6db" y="421.857391"/>
      </g>
     </g>
     <g id="text_18">
      <!-- 10 -->
      <g transform="translate(137.297799 436.455829)scale(0.1 -0.1)">
       <use xlink:href="#DejaVuSans-31"/>
       <use x="63.623047" xlink:href="#DejaVuSans-30"/>
      </g>
     </g>
    </g>
    <g id="xtick_12">
     <g id="line2d_19">
      <g>
       <use style="stroke:#000000;stroke-width:0.8;" x="195.029689" xlink:href="#m4aec87d6db" y="421.857391"/>
      </g>
     </g>
     <g id="text_19">
      <!-- 20 -->
      <g transform="translate(188.667189 436.455829)scale(0.1 -0.1)">
       <use xlink:href="#DejaVuSans-32"/>
       <use x="63.623047" xlink:href="#DejaVuSans-30"/>
      </g>
     </g>
    </g>
    <g id="xtick_13">
     <g id="line2d_20">
      <g>
       <use style="stroke:#000000;stroke-width:0.8;" x="246.399079" xlink:href="#m4aec87d6db" y="421.857391"/>
      </g>
     </g>
     <g id="text_20">
      <!-- 30 -->
      <g transform="translate(240.036579 436.455829)scale(0.1 -0.1)">
       <use xlink:href="#DejaVuSans-33"/>
       <use x="63.623047" xlink:href="#DejaVuSans-30"/>
      </g>
     </g>
    </g>
    <g id="xtick_14">
     <g id="line2d_21">
      <g>
       <use style="stroke:#000000;stroke-width:0.8;" x="297.76847" xlink:href="#m4aec87d6db" y="421.857391"/>
      </g>
     </g>
     <g id="text_21">
      <!-- 40 -->
      <g transform="translate(291.40597 436.455829)scale(0.1 -0.1)">
       <use xlink:href="#DejaVuSans-34"/>
       <use x="63.623047" xlink:href="#DejaVuSans-30"/>
      </g>
     </g>
    </g>
    <g id="xtick_15">
     <g id="line2d_22">
      <g>
       <use style="stroke:#000000;stroke-width:0.8;" x="349.13786" xlink:href="#m4aec87d6db" y="421.857391"/>
      </g>
     </g>
     <g id="text_22">
      <!-- 50 -->
      <g transform="translate(342.77536 436.455829)scale(0.1 -0.1)">
       <use xlink:href="#DejaVuSans-35"/>
       <use x="63.623047" xlink:href="#DejaVuSans-30"/>
      </g>
     </g>
    </g>
    <g id="xtick_16">
     <g id="line2d_23">
      <g>
       <use style="stroke:#000000;stroke-width:0.8;" x="400.50725" xlink:href="#m4aec87d6db" y="421.857391"/>
      </g>
     </g>
     <g id="text_23">
      <!-- 60 -->
      <g transform="translate(394.14475 436.455829)scale(0.1 -0.1)">
       <use xlink:href="#DejaVuSans-36"/>
       <use x="63.623047" xlink:href="#DejaVuSans-30"/>
      </g>
     </g>
    </g>
    <g id="xtick_17">
     <g id="line2d_24">
      <g>
       <use style="stroke:#000000;stroke-width:0.8;" x="451.87664" xlink:href="#m4aec87d6db" y="421.857391"/>
      </g>
     </g>
     <g id="text_24">
      <!-- 70 -->
      <g transform="translate(445.51414 436.455829)scale(0.1 -0.1)">
       <use xlink:href="#DejaVuSans-37"/>
       <use x="63.623047" xlink:href="#DejaVuSans-30"/>
      </g>
     </g>
    </g>
    <g id="xtick_18">
     <g id="line2d_25">
      <g>
       <use style="stroke:#000000;stroke-width:0.8;" x="503.24603" xlink:href="#m4aec87d6db" y="421.857391"/>
      </g>
     </g>
     <g id="text_25">
      <!-- 80 -->
      <g transform="translate(496.88353 436.455829)scale(0.1 -0.1)">
       <use xlink:href="#DejaVuSans-38"/>
       <use x="63.623047" xlink:href="#DejaVuSans-30"/>
      </g>
     </g>
    </g>
   </g>
   <g id="matplotlib.axis_4">
    <g id="ytick_7">
     <g id="line2d_26">
      <g>
       <use style="stroke:#000000;stroke-width:0.8;" x="72" xlink:href="#mf351a84776" y="404.24915"/>
      </g>
     </g>
     <g id="text_26">
      <!-- 25 -->
      <g transform="translate(52.275 408.048369)scale(0.1 -0.1)">
       <use xlink:href="#DejaVuSans-32"/>
       <use x="63.623047" xlink:href="#DejaVuSans-35"/>
      </g>
     </g>
    </g>
    <g id="ytick_8">
     <g id="line2d_27">
      <g>
       <use style="stroke:#000000;stroke-width:0.8;" x="72" xlink:href="#mf351a84776" y="381.968296"/>
      </g>
     </g>
     <g id="text_27">
      <!-- 50 -->
      <g transform="translate(52.275 385.767515)scale(0.1 -0.1)">
       <use xlink:href="#DejaVuSans-35"/>
       <use x="63.623047" xlink:href="#DejaVuSans-30"/>
      </g>
     </g>
    </g>
    <g id="ytick_9">
     <g id="line2d_28">
      <g>
       <use style="stroke:#000000;stroke-width:0.8;" x="72" xlink:href="#mf351a84776" y="359.687442"/>
      </g>
     </g>
     <g id="text_28">
      <!-- 75 -->
      <g transform="translate(52.275 363.48666)scale(0.1 -0.1)">
       <use xlink:href="#DejaVuSans-37"/>
       <use x="63.623047" xlink:href="#DejaVuSans-35"/>
      </g>
     </g>
    </g>
    <g id="ytick_10">
     <g id="line2d_29">
      <g>
       <use style="stroke:#000000;stroke-width:0.8;" x="72" xlink:href="#mf351a84776" y="337.406587"/>
      </g>
     </g>
     <g id="text_29">
      <!-- 100 -->
      <g transform="translate(45.9125 341.205806)scale(0.1 -0.1)">
       <use xlink:href="#DejaVuSans-31"/>
       <use x="63.623047" xlink:href="#DejaVuSans-30"/>
       <use x="127.246094" xlink:href="#DejaVuSans-30"/>
      </g>
     </g>
    </g>
    <g id="ytick_11">
     <g id="line2d_30">
      <g>
       <use style="stroke:#000000;stroke-width:0.8;" x="72" xlink:href="#mf351a84776" y="315.125733"/>
      </g>
     </g>
     <g id="text_30">
      <!-- 125 -->
      <g transform="translate(45.9125 318.924951)scale(0.1 -0.1)">
       <use xlink:href="#DejaVuSans-31"/>
       <use x="63.623047" xlink:href="#DejaVuSans-32"/>
       <use x="127.246094" xlink:href="#DejaVuSans-35"/>
      </g>
     </g>
    </g>
    <g id="ytick_12">
     <g id="line2d_31">
      <g>
       <use style="stroke:#000000;stroke-width:0.8;" x="72" xlink:href="#mf351a84776" y="292.844878"/>
      </g>
     </g>
     <g id="text_31">
      <!-- 150 -->
      <g transform="translate(45.9125 296.644097)scale(0.1 -0.1)">
       <use xlink:href="#DejaVuSans-31"/>
       <use x="63.623047" xlink:href="#DejaVuSans-35"/>
       <use x="127.246094" xlink:href="#DejaVuSans-30"/>
      </g>
     </g>
    </g>
   </g>
   <g id="line2d_32">
    <path clip-path="url(#pf0f644bbe1)" d="M 92.290909 340.851059 
L 97.427848 340.851059 
L 102.564787 340.851059 
L 107.701726 340.851059 
L 112.838665 340.851059 
L 117.975604 346.267955 
L 123.112543 334.079936 
L 128.249482 339.312169 
L 133.386421 342.38995 
L 138.52336 340.235503 
L 143.660299 338.388835 
L 148.797238 338.388835 
L 153.934177 340.851059 
L 159.071116 339.004391 
L 164.208055 339.004391 
L 169.344994 304.982639 
L 174.481933 306.29827 
L 179.618872 307.019746 
L 184.755811 307.91098 
L 189.89275 309.269051 
L 195.029689 308.208058 
L 200.166628 308.547576 
L 205.303567 306.170951 
L 210.440506 307.529022 
L 215.577445 306.255831 
L 220.714384 307.698781 
L 225.851323 308.123178 
L 230.988262 308.844654 
L 236.125201 310.584682 
L 241.26214 309.39637 
L 246.399079 332.3987 
L 251.536018 325.565905 
L 256.672957 317.417478 
L 261.809896 307.656342 
L 266.946835 300.059631 
L 272.083774 298.744 
L 277.220713 313.215945 
L 282.357652 322.000968 
L 287.494591 304.091405 
L 292.63153 301.375263 
L 297.76847 324.589791 
L 302.905409 321.534131 
L 308.042348 301.629901 
L 313.179287 304.048965 
L 318.316226 400.472015 
L 323.453165 409.341917 
L 328.590104 415.283478 
L 333.727043 412.949294 
L 338.863982 414.010287 
L 344.000921 283.805217 
L 349.13786 288.303828 
L 354.274799 412.737095 
L 359.411738 411.251705 
L 364.548677 400.217377 
L 369.685616 307.698781 
L 374.822555 308.462696 
L 379.959494 341.947637 
L 385.096433 308.590015 
L 390.233372 310.457363 
L 395.370311 308.547576 
L 400.50725 308.590015 
L 405.644189 309.35393 
L 410.781128 323.825876 
L 415.918067 304.643121 
L 421.055006 305.873873 
L 426.191945 304.261164 
L 431.328884 302.945532 
L 436.465823 321.449251 
L 441.602762 324.377592 
L 446.739701 309.226611 
L 451.87664 302.308936 
L 457.013579 297.640567 
L 462.150518 291.401928 
L 467.287457 291.147289 
L 472.424396 294.584907 
L 477.561335 293.141956 
L 482.698274 292.420481 
L 487.835213 329.767437 
L 492.972152 290.340935 
L 498.109091 289.916537 
" style="fill:none;stroke:#1f77b4;stroke-linecap:square;stroke-width:1.5;"/>
   </g>
   <g id="patch_8">
    <path d="M 72 421.857391 
L 72 277.231304 
" style="fill:none;stroke:#000000;stroke-linecap:square;stroke-linejoin:miter;stroke-width:0.8;"/>
   </g>
   <g id="patch_9">
    <path d="M 518.4 421.857391 
L 518.4 277.231304 
" style="fill:none;stroke:#000000;stroke-linecap:square;stroke-linejoin:miter;stroke-width:0.8;"/>
   </g>
   <g id="patch_10">
    <path d="M 72 421.857391 
L 518.4 421.857391 
" style="fill:none;stroke:#000000;stroke-linecap:square;stroke-linejoin:miter;stroke-width:0.8;"/>
   </g>
   <g id="patch_11">
    <path d="M 72 277.231304 
L 518.4 277.231304 
" style="fill:none;stroke:#000000;stroke-linecap:square;stroke-linejoin:miter;stroke-width:0.8;"/>
   </g>
   <g id="text_32">
    <!-- left offset -->
    <g transform="translate(266.405625 271.231304)scale(0.12 -0.12)">
     <use xlink:href="#DejaVuSans-6c"/>
     <use x="27.783203" xlink:href="#DejaVuSans-65"/>
     <use x="89.306641" xlink:href="#DejaVuSans-66"/>
     <use x="124.496094" xlink:href="#DejaVuSans-74"/>
     <use x="163.705078" xlink:href="#DejaVuSans-20"/>
     <use x="195.492188" xlink:href="#DejaVuSans-6f"/>
     <use x="256.673828" xlink:href="#DejaVuSans-66"/>
     <use x="291.878906" xlink:href="#DejaVuSans-66"/>
     <use x="327.083984" xlink:href="#DejaVuSans-73"/>
     <use x="379.183594" xlink:href="#DejaVuSans-65"/>
     <use x="440.707031" xlink:href="#DejaVuSans-74"/>
    </g>
   </g>
  </g>
  <g id="axes_3">
   <g id="patch_12">
    <path d="M 72 595.408696 
L 518.4 595.408696 
L 518.4 450.782609 
L 72 450.782609 
z
" style="fill:#ffffff;"/>
   </g>
   <g id="matplotlib.axis_5">
    <g id="xtick_19">
     <g id="line2d_33">
      <g>
       <use style="stroke:#000000;stroke-width:0.8;" x="92.290909" xlink:href="#m4aec87d6db" y="595.408696"/>
      </g>
     </g>
     <g id="text_33">
      <!-- 0 -->
      <g transform="translate(89.109659 610.007133)scale(0.1 -0.1)">
       <use xlink:href="#DejaVuSans-30"/>
      </g>
     </g>
    </g>
    <g id="xtick_20">
     <g id="line2d_34">
      <g>
       <use style="stroke:#000000;stroke-width:0.8;" x="178.635203" xlink:href="#m4aec87d6db" y="595.408696"/>
      </g>
     </g>
     <g id="text_34">
      <!-- 20 -->
      <g transform="translate(172.272703 610.007133)scale(0.1 -0.1)">
       <use xlink:href="#DejaVuSans-32"/>
       <use x="63.623047" xlink:href="#DejaVuSans-30"/>
      </g>
     </g>
    </g>
    <g id="xtick_21">
     <g id="line2d_35">
      <g>
       <use style="stroke:#000000;stroke-width:0.8;" x="264.979497" xlink:href="#m4aec87d6db" y="595.408696"/>
      </g>
     </g>
     <g id="text_35">
      <!-- 40 -->
      <g transform="translate(258.616997 610.007133)scale(0.1 -0.1)">
       <use xlink:href="#DejaVuSans-34"/>
       <use x="63.623047" xlink:href="#DejaVuSans-30"/>
      </g>
     </g>
    </g>
    <g id="xtick_22">
     <g id="line2d_36">
      <g>
       <use style="stroke:#000000;stroke-width:0.8;" x="351.323791" xlink:href="#m4aec87d6db" y="595.408696"/>
      </g>
     </g>
     <g id="text_36">
      <!-- 60 -->
      <g transform="translate(344.961291 610.007133)scale(0.1 -0.1)">
       <use xlink:href="#DejaVuSans-36"/>
       <use x="63.623047" xlink:href="#DejaVuSans-30"/>
      </g>
     </g>
    </g>
    <g id="xtick_23">
     <g id="line2d_37">
      <g>
       <use style="stroke:#000000;stroke-width:0.8;" x="437.668085" xlink:href="#m4aec87d6db" y="595.408696"/>
      </g>
     </g>
     <g id="text_37">
      <!-- 80 -->
      <g transform="translate(431.305585 610.007133)scale(0.1 -0.1)">
       <use xlink:href="#DejaVuSans-38"/>
       <use x="63.623047" xlink:href="#DejaVuSans-30"/>
      </g>
     </g>
    </g>
   </g>
   <g id="matplotlib.axis_6">
    <g id="ytick_13">
     <g id="line2d_38">
      <g>
       <use style="stroke:#000000;stroke-width:0.8;" x="72" xlink:href="#mf351a84776" y="570.919011"/>
      </g>
     </g>
     <g id="text_38">
      <!-- 50 -->
      <g transform="translate(52.275 574.71823)scale(0.1 -0.1)">
       <use xlink:href="#DejaVuSans-35"/>
       <use x="63.623047" xlink:href="#DejaVuSans-30"/>
      </g>
     </g>
    </g>
    <g id="ytick_14">
     <g id="line2d_39">
      <g>
       <use style="stroke:#000000;stroke-width:0.8;" x="72" xlink:href="#mf351a84776" y="545.736199"/>
      </g>
     </g>
     <g id="text_39">
      <!-- 100 -->
      <g transform="translate(45.9125 549.535418)scale(0.1 -0.1)">
       <use xlink:href="#DejaVuSans-31"/>
       <use x="63.623047" xlink:href="#DejaVuSans-30"/>
       <use x="127.246094" xlink:href="#DejaVuSans-30"/>
      </g>
     </g>
    </g>
    <g id="ytick_15">
     <g id="line2d_40">
      <g>
       <use style="stroke:#000000;stroke-width:0.8;" x="72" xlink:href="#mf351a84776" y="520.553387"/>
      </g>
     </g>
     <g id="text_40">
      <!-- 150 -->
      <g transform="translate(45.9125 524.352606)scale(0.1 -0.1)">
       <use xlink:href="#DejaVuSans-31"/>
       <use x="63.623047" xlink:href="#DejaVuSans-35"/>
       <use x="127.246094" xlink:href="#DejaVuSans-30"/>
      </g>
     </g>
    </g>
    <g id="ytick_16">
     <g id="line2d_41">
      <g>
       <use style="stroke:#000000;stroke-width:0.8;" x="72" xlink:href="#mf351a84776" y="495.370576"/>
      </g>
     </g>
     <g id="text_41">
      <!-- 200 -->
      <g transform="translate(45.9125 499.169794)scale(0.1 -0.1)">
       <use xlink:href="#DejaVuSans-32"/>
       <use x="63.623047" xlink:href="#DejaVuSans-30"/>
       <use x="127.246094" xlink:href="#DejaVuSans-30"/>
      </g>
     </g>
    </g>
    <g id="ytick_17">
     <g id="line2d_42">
      <g>
       <use style="stroke:#000000;stroke-width:0.8;" x="72" xlink:href="#mf351a84776" y="470.187764"/>
      </g>
     </g>
     <g id="text_42">
      <!-- 250 -->
      <g transform="translate(45.9125 473.986983)scale(0.1 -0.1)">
       <use xlink:href="#DejaVuSans-32"/>
       <use x="63.623047" xlink:href="#DejaVuSans-35"/>
       <use x="127.246094" xlink:href="#DejaVuSans-30"/>
      </g>
     </g>
    </g>
   </g>
   <g id="line2d_43">
    <path clip-path="url(#pb2fe36e8c7)" d="M 92.290909 545.298318 
L 96.608124 550.917885 
L 100.925338 546.117354 
L 105.242553 547.682746 
L 109.559768 546.639153 
L 113.876983 547.5436 
L 118.194197 557.162056 
L 122.511412 557.075088 
L 126.828627 522.452138 
L 131.145841 506.032931 
L 135.463056 547.839285 
L 139.780271 500.919323 
L 144.097485 514.746937 
L 148.4147 546.256503 
L 152.731915 529.163511 
L 157.04913 529.835052 
L 161.366344 470.883289 
L 165.683559 529.451314 
L 170.000774 534.080155 
L 174.317988 533.840319 
L 178.635203 529.379363 
L 182.952418 528.899691 
L 187.269632 486.880371 
L 191.586847 530.098872 
L 195.904062 534.679746 
L 200.221277 528.491969 
L 204.538491 464.095922 
L 208.855706 527.988313 
L 213.172921 519.162337 
L 217.490135 524.318817 
L 221.80735 536.022829 
L 226.124565 524.702555 
L 230.441779 532.257399 
L 234.758994 478.582034 
L 239.076209 533.504548 
L 243.393424 535.926894 
L 247.710638 536.88624 
L 252.027853 530.530578 
L 256.345068 525.494015 
L 260.662282 530.026921 
L 264.979497 524.174916 
L 269.296712 526.237508 
L 273.613926 524.174916 
L 277.931141 524.990359 
L 282.248356 525.973688 
L 286.565571 524.366785 
L 290.882785 525.58995 
L 295.2 524.582637 
L 299.517215 524.510686 
L 303.834429 532.521219 
L 308.151644 531.202119 
L 312.468859 457.356522 
L 316.786074 536.598436 
L 321.103288 533.648449 
L 325.420503 539.06875 
L 329.737718 525.85377 
L 334.054932 538.780946 
L 338.372147 581.35189 
L 342.689362 574.948261 
L 347.006576 588.834783 
L 351.323791 588.522995 
L 355.641006 587.995356 
L 359.958221 524.53467 
L 364.275435 497.984791 
L 368.59265 587.491699 
L 372.909865 582.383186 
L 377.227079 588.451045 
L 381.544294 587.755519 
L 385.861509 587.803487 
L 390.178723 532.449268 
L 394.495938 535.375271 
L 398.813153 529.571232 
L 403.130368 531.441955 
L 407.447582 529.595216 
L 411.764797 536.214698 
L 416.082012 531.322037 
L 420.399226 530.266758 
L 424.716441 533.816335 
L 429.033656 529.403347 
L 433.35087 540.38785 
L 437.668085 532.32935 
L 441.9853 529.235462 
L 446.302515 528.803756 
L 450.619729 533.216744 
L 454.936944 528.420018 
L 459.254159 526.621246 
L 463.571373 526.477344 
L 467.888588 526.165557 
L 472.205803 534.296007 
L 476.523017 458.747572 
L 480.840232 527.364738 
L 485.157447 526.069622 
L 489.474662 461.409755 
L 493.791876 525.014343 
L 498.109091 459.730901 
" style="fill:none;stroke:#1f77b4;stroke-linecap:square;stroke-width:1.5;"/>
   </g>
   <g id="patch_13">
    <path d="M 72 595.408696 
L 72 450.782609 
" style="fill:none;stroke:#000000;stroke-linecap:square;stroke-linejoin:miter;stroke-width:0.8;"/>
   </g>
   <g id="patch_14">
    <path d="M 518.4 595.408696 
L 518.4 450.782609 
" style="fill:none;stroke:#000000;stroke-linecap:square;stroke-linejoin:miter;stroke-width:0.8;"/>
   </g>
   <g id="patch_15">
    <path d="M 72 595.408696 
L 518.4 595.408696 
" style="fill:none;stroke:#000000;stroke-linecap:square;stroke-linejoin:miter;stroke-width:0.8;"/>
   </g>
   <g id="patch_16">
    <path d="M 72 450.782609 
L 518.4 450.782609 
" style="fill:none;stroke:#000000;stroke-linecap:square;stroke-linejoin:miter;stroke-width:0.8;"/>
   </g>
   <g id="text_43">
    <!-- right onset -->
    <defs>
     <path d="M 41.109375 46.296875 
Q 39.59375 47.171875 37.8125 47.578125 
Q 36.03125 48 33.890625 48 
Q 26.265625 48 22.1875 43.046875 
Q 18.109375 38.09375 18.109375 28.8125 
L 18.109375 0 
L 9.078125 0 
L 9.078125 54.6875 
L 18.109375 54.6875 
L 18.109375 46.1875 
Q 20.953125 51.171875 25.484375 53.578125 
Q 30.03125 56 36.53125 56 
Q 37.453125 56 38.578125 55.875 
Q 39.703125 55.765625 41.0625 55.515625 
z
" id="DejaVuSans-72"/>
     <path d="M 9.421875 54.6875 
L 18.40625 54.6875 
L 18.40625 0 
L 9.421875 0 
z
M 9.421875 75.984375 
L 18.40625 75.984375 
L 18.40625 64.59375 
L 9.421875 64.59375 
z
" id="DejaVuSans-69"/>
     <path d="M 45.40625 27.984375 
Q 45.40625 37.75 41.375 43.109375 
Q 37.359375 48.484375 30.078125 48.484375 
Q 22.859375 48.484375 18.828125 43.109375 
Q 14.796875 37.75 14.796875 27.984375 
Q 14.796875 18.265625 18.828125 12.890625 
Q 22.859375 7.515625 30.078125 7.515625 
Q 37.359375 7.515625 41.375 12.890625 
Q 45.40625 18.265625 45.40625 27.984375 
z
M 54.390625 6.78125 
Q 54.390625 -7.171875 48.1875 -13.984375 
Q 42 -20.796875 29.203125 -20.796875 
Q 24.46875 -20.796875 20.265625 -20.09375 
Q 16.0625 -19.390625 12.109375 -17.921875 
L 12.109375 -9.1875 
Q 16.0625 -11.328125 19.921875 -12.34375 
Q 23.78125 -13.375 27.78125 -13.375 
Q 36.625 -13.375 41.015625 -8.765625 
Q 45.40625 -4.15625 45.40625 5.171875 
L 45.40625 9.625 
Q 42.625 4.78125 38.28125 2.390625 
Q 33.9375 0 27.875 0 
Q 17.828125 0 11.671875 7.65625 
Q 5.515625 15.328125 5.515625 27.984375 
Q 5.515625 40.671875 11.671875 48.328125 
Q 17.828125 56 27.875 56 
Q 33.9375 56 38.28125 53.609375 
Q 42.625 51.21875 45.40625 46.390625 
L 45.40625 54.6875 
L 54.390625 54.6875 
z
" id="DejaVuSans-67"/>
     <path d="M 54.890625 33.015625 
L 54.890625 0 
L 45.90625 0 
L 45.90625 32.71875 
Q 45.90625 40.484375 42.875 44.328125 
Q 39.84375 48.1875 33.796875 48.1875 
Q 26.515625 48.1875 22.3125 43.546875 
Q 18.109375 38.921875 18.109375 30.90625 
L 18.109375 0 
L 9.078125 0 
L 9.078125 75.984375 
L 18.109375 75.984375 
L 18.109375 46.1875 
Q 21.34375 51.125 25.703125 53.5625 
Q 30.078125 56 35.796875 56 
Q 45.21875 56 50.046875 50.171875 
Q 54.890625 44.34375 54.890625 33.015625 
z
" id="DejaVuSans-68"/>
    </defs>
    <g transform="translate(262.5525 444.782609)scale(0.12 -0.12)">
     <use xlink:href="#DejaVuSans-72"/>
     <use x="41.113281" xlink:href="#DejaVuSans-69"/>
     <use x="68.896484" xlink:href="#DejaVuSans-67"/>
     <use x="132.373047" xlink:href="#DejaVuSans-68"/>
     <use x="195.751953" xlink:href="#DejaVuSans-74"/>
     <use x="234.960938" xlink:href="#DejaVuSans-20"/>
     <use x="266.748047" xlink:href="#DejaVuSans-6f"/>
     <use x="327.929688" xlink:href="#DejaVuSans-6e"/>
     <use x="391.308594" xlink:href="#DejaVuSans-73"/>
     <use x="443.408203" xlink:href="#DejaVuSans-65"/>
     <use x="504.931641" xlink:href="#DejaVuSans-74"/>
    </g>
   </g>
  </g>
  <g id="axes_4">
   <g id="patch_17">
    <path d="M 72 768.96 
L 518.4 768.96 
L 518.4 624.333913 
L 72 624.333913 
z
" style="fill:#ffffff;"/>
   </g>
   <g id="matplotlib.axis_7">
    <g id="xtick_24">
     <g id="line2d_44">
      <g>
       <use style="stroke:#000000;stroke-width:0.8;" x="92.290909" xlink:href="#m4aec87d6db" y="768.96"/>
      </g>
     </g>
     <g id="text_44">
      <!-- 0 -->
      <g transform="translate(89.109659 783.558437)scale(0.1 -0.1)">
       <use xlink:href="#DejaVuSans-30"/>
      </g>
     </g>
    </g>
    <g id="xtick_25">
     <g id="line2d_45">
      <g>
       <use style="stroke:#000000;stroke-width:0.8;" x="178.635203" xlink:href="#m4aec87d6db" y="768.96"/>
      </g>
     </g>
     <g id="text_45">
      <!-- 20 -->
      <g transform="translate(172.272703 783.558437)scale(0.1 -0.1)">
       <use xlink:href="#DejaVuSans-32"/>
       <use x="63.623047" xlink:href="#DejaVuSans-30"/>
      </g>
     </g>
    </g>
    <g id="xtick_26">
     <g id="line2d_46">
      <g>
       <use style="stroke:#000000;stroke-width:0.8;" x="264.979497" xlink:href="#m4aec87d6db" y="768.96"/>
      </g>
     </g>
     <g id="text_46">
      <!-- 40 -->
      <g transform="translate(258.616997 783.558437)scale(0.1 -0.1)">
       <use xlink:href="#DejaVuSans-34"/>
       <use x="63.623047" xlink:href="#DejaVuSans-30"/>
      </g>
     </g>
    </g>
    <g id="xtick_27">
     <g id="line2d_47">
      <g>
       <use style="stroke:#000000;stroke-width:0.8;" x="351.323791" xlink:href="#m4aec87d6db" y="768.96"/>
      </g>
     </g>
     <g id="text_47">
      <!-- 60 -->
      <g transform="translate(344.961291 783.558437)scale(0.1 -0.1)">
       <use xlink:href="#DejaVuSans-36"/>
       <use x="63.623047" xlink:href="#DejaVuSans-30"/>
      </g>
     </g>
    </g>
    <g id="xtick_28">
     <g id="line2d_48">
      <g>
       <use style="stroke:#000000;stroke-width:0.8;" x="437.668085" xlink:href="#m4aec87d6db" y="768.96"/>
      </g>
     </g>
     <g id="text_48">
      <!-- 80 -->
      <g transform="translate(431.305585 783.558437)scale(0.1 -0.1)">
       <use xlink:href="#DejaVuSans-38"/>
       <use x="63.623047" xlink:href="#DejaVuSans-30"/>
      </g>
     </g>
    </g>
    <g id="text_49">
     <!-- Events -->
     <defs>
      <path d="M 9.8125 72.90625 
L 55.90625 72.90625 
L 55.90625 64.59375 
L 19.671875 64.59375 
L 19.671875 43.015625 
L 54.390625 43.015625 
L 54.390625 34.71875 
L 19.671875 34.71875 
L 19.671875 8.296875 
L 56.78125 8.296875 
L 56.78125 0 
L 9.8125 0 
z
" id="DejaVuSans-45"/>
      <path d="M 2.984375 54.6875 
L 12.5 54.6875 
L 29.59375 8.796875 
L 46.6875 54.6875 
L 56.203125 54.6875 
L 35.6875 0 
L 23.484375 0 
z
" id="DejaVuSans-76"/>
     </defs>
     <g transform="translate(278.271094 797.236562)scale(0.1 -0.1)">
      <use xlink:href="#DejaVuSans-45"/>
      <use x="63.183594" xlink:href="#DejaVuSans-76"/>
      <use x="122.363281" xlink:href="#DejaVuSans-65"/>
      <use x="183.886719" xlink:href="#DejaVuSans-6e"/>
      <use x="247.265625" xlink:href="#DejaVuSans-74"/>
      <use x="286.474609" xlink:href="#DejaVuSans-73"/>
     </g>
    </g>
   </g>
   <g id="matplotlib.axis_8">
    <g id="ytick_18">
     <g id="line2d_49">
      <g>
       <use style="stroke:#000000;stroke-width:0.8;" x="72" xlink:href="#mf351a84776" y="768.970658"/>
      </g>
     </g>
     <g id="text_50">
      <!-- 0 -->
      <g transform="translate(58.6375 772.769877)scale(0.1 -0.1)">
       <use xlink:href="#DejaVuSans-30"/>
      </g>
     </g>
    </g>
    <g id="ytick_19">
     <g id="line2d_50">
      <g>
       <use style="stroke:#000000;stroke-width:0.8;" x="72" xlink:href="#mf351a84776" y="744.100874"/>
      </g>
     </g>
     <g id="text_51">
      <!-- 50 -->
      <g transform="translate(52.275 747.900093)scale(0.1 -0.1)">
       <use xlink:href="#DejaVuSans-35"/>
       <use x="63.623047" xlink:href="#DejaVuSans-30"/>
      </g>
     </g>
    </g>
    <g id="ytick_20">
     <g id="line2d_51">
      <g>
       <use style="stroke:#000000;stroke-width:0.8;" x="72" xlink:href="#mf351a84776" y="719.231089"/>
      </g>
     </g>
     <g id="text_52">
      <!-- 100 -->
      <g transform="translate(45.9125 723.030308)scale(0.1 -0.1)">
       <use xlink:href="#DejaVuSans-31"/>
       <use x="63.623047" xlink:href="#DejaVuSans-30"/>
       <use x="127.246094" xlink:href="#DejaVuSans-30"/>
      </g>
     </g>
    </g>
    <g id="ytick_21">
     <g id="line2d_52">
      <g>
       <use style="stroke:#000000;stroke-width:0.8;" x="72" xlink:href="#mf351a84776" y="694.361305"/>
      </g>
     </g>
     <g id="text_53">
      <!-- 150 -->
      <g transform="translate(45.9125 698.160524)scale(0.1 -0.1)">
       <use xlink:href="#DejaVuSans-31"/>
       <use x="63.623047" xlink:href="#DejaVuSans-35"/>
       <use x="127.246094" xlink:href="#DejaVuSans-30"/>
      </g>
     </g>
    </g>
    <g id="ytick_22">
     <g id="line2d_53">
      <g>
       <use style="stroke:#000000;stroke-width:0.8;" x="72" xlink:href="#mf351a84776" y="669.49152"/>
      </g>
     </g>
     <g id="text_54">
      <!-- 200 -->
      <g transform="translate(45.9125 673.290739)scale(0.1 -0.1)">
       <use xlink:href="#DejaVuSans-32"/>
       <use x="63.623047" xlink:href="#DejaVuSans-30"/>
       <use x="127.246094" xlink:href="#DejaVuSans-30"/>
      </g>
     </g>
    </g>
    <g id="ytick_23">
     <g id="line2d_54">
      <g>
       <use style="stroke:#000000;stroke-width:0.8;" x="72" xlink:href="#mf351a84776" y="644.621736"/>
      </g>
     </g>
     <g id="text_55">
      <!-- 250 -->
      <g transform="translate(45.9125 648.420955)scale(0.1 -0.1)">
       <use xlink:href="#DejaVuSans-32"/>
       <use x="63.623047" xlink:href="#DejaVuSans-35"/>
       <use x="127.246094" xlink:href="#DejaVuSans-30"/>
      </g>
     </g>
    </g>
   </g>
   <g id="line2d_55">
    <path clip-path="url(#pcc3152141e)" d="M 92.290909 718.061574 
L 96.608124 718.405114 
L 100.925338 721.153441 
L 105.242553 720.12282 
L 109.559768 719.057842 
L 113.876983 726.65009 
L 118.194197 724.588844 
L 122.511412 720.8099 
L 126.828627 727.337171 
L 131.145841 721.153441 
L 135.463056 675.05718 
L 139.780271 719.779279 
L 144.097485 719.779279 
L 148.4147 721.153441 
L 152.731915 701.182732 
L 157.04913 705.611922 
L 161.366344 702.50912 
L 165.683559 641.353136 
L 170.000774 640.263602 
L 174.317988 702.674919 
L 178.635203 702.011724 
L 182.952418 700.969562 
L 187.269632 640.263602 
L 191.586847 703.740766 
L 195.904062 702.698604 
L 200.221277 703.290742 
L 204.538491 701.798555 
L 208.855706 702.698604 
L 213.172921 642.774266 
L 217.490135 703.338113 
L 221.80735 695.829806 
L 226.124565 697.321994 
L 230.441779 712.457034 
L 234.758994 708.004158 
L 239.076209 710.799048 
L 243.393424 708.169957 
L 247.710638 699.666859 
L 252.027853 697.819389 
L 256.345068 709.070006 
L 260.662282 697.558849 
L 264.979497 698.837866 
L 269.296712 698.814181 
L 273.613926 630.907826 
L 277.931141 645.048075 
L 282.248356 697.535163 
L 286.565571 701.869611 
L 290.882785 697.250937 
L 295.2 699.808972 
L 299.517215 697.440421 
L 303.834429 706.440915 
L 308.151644 697.250937 
L 312.468859 699.098407 
L 316.786074 710.277967 
L 321.103288 713.522882 
L 325.420503 699.145778 
L 329.737718 702.627548 
L 334.054932 754.735668 
L 338.372147 754.072473 
L 342.689362 759.970165 
L 347.006576 744.929867 
L 351.323791 754.380385 
L 355.641006 755.043579 
L 359.958221 699.951085 
L 364.275435 752.343431 
L 368.59265 740.074337 
L 372.909865 762.386087 
L 377.227079 761.770264 
L 381.544294 761.533409 
L 385.861509 761.391296 
L 390.178723 703.124943 
L 394.495938 703.172314 
L 398.813153 640.618885 
L 403.130368 703.196 
L 407.447582 703.598653 
L 411.764797 703.693395 
L 416.082012 642.679524 
L 420.399226 710.988532 
L 424.716441 701.869611 
L 429.033656 702.674919 
L 433.35087 702.817032 
L 437.668085 641.471563 
L 441.9853 702.769661 
L 446.302515 711.249073 
L 450.619729 700.803763 
L 454.936944 701.538014 
L 459.254159 700.140569 
L 463.571373 699.998456 
L 467.888588 712.172808 
L 472.205803 699.619488 
L 476.523017 703.124943 
L 480.840232 699.477375 
L 485.157447 701.087989 
L 489.474662 696.493001 
L 493.791876 693.65074 
L 498.109091 691.566415 
" style="fill:none;stroke:#1f77b4;stroke-linecap:square;stroke-width:1.5;"/>
   </g>
   <g id="patch_18">
    <path d="M 72 768.96 
L 72 624.333913 
" style="fill:none;stroke:#000000;stroke-linecap:square;stroke-linejoin:miter;stroke-width:0.8;"/>
   </g>
   <g id="patch_19">
    <path d="M 518.4 768.96 
L 518.4 624.333913 
" style="fill:none;stroke:#000000;stroke-linecap:square;stroke-linejoin:miter;stroke-width:0.8;"/>
   </g>
   <g id="patch_20">
    <path d="M 72 768.96 
L 518.4 768.96 
" style="fill:none;stroke:#000000;stroke-linecap:square;stroke-linejoin:miter;stroke-width:0.8;"/>
   </g>
   <g id="patch_21">
    <path d="M 72 624.333913 
L 518.4 624.333913 
" style="fill:none;stroke:#000000;stroke-linecap:square;stroke-linejoin:miter;stroke-width:0.8;"/>
   </g>
   <g id="text_56">
    <!-- right offset -->
    <g transform="translate(262.130625 618.333913)scale(0.12 -0.12)">
     <use xlink:href="#DejaVuSans-72"/>
     <use x="41.113281" xlink:href="#DejaVuSans-69"/>
     <use x="68.896484" xlink:href="#DejaVuSans-67"/>
     <use x="132.373047" xlink:href="#DejaVuSans-68"/>
     <use x="195.751953" xlink:href="#DejaVuSans-74"/>
     <use x="234.960938" xlink:href="#DejaVuSans-20"/>
     <use x="266.748047" xlink:href="#DejaVuSans-6f"/>
     <use x="327.929688" xlink:href="#DejaVuSans-66"/>
     <use x="363.134766" xlink:href="#DejaVuSans-66"/>
     <use x="398.339844" xlink:href="#DejaVuSans-73"/>
     <use x="450.439453" xlink:href="#DejaVuSans-65"/>
     <use x="511.962891" xlink:href="#DejaVuSans-74"/>
    </g>
   </g>
  </g>
 </g>
 <defs>
  <clipPath id="pa4c09ff172">
   <rect height="144.626087" width="446.4" x="72" y="103.68"/>
  </clipPath>
  <clipPath id="pf0f644bbe1">
   <rect height="144.626087" width="446.4" x="72" y="277.231304"/>
  </clipPath>
  <clipPath id="pb2fe36e8c7">
   <rect height="144.626087" width="446.4" x="72" y="450.782609"/>
  </clipPath>
  <clipPath id="pcc3152141e">
   <rect height="144.626087" width="446.4" x="72" y="624.333913"/>
  </clipPath>
 </defs>
</svg>
