<?xml version="1.0" encoding="utf-8" standalone="no"?>
<!DOCTYPE svg PUBLIC "-//W3C//DTD SVG 1.1//EN"
  "http://www.w3.org/Graphics/SVG/1.1/DTD/svg11.dtd">
<!-- Created with matplotlib (http://matplotlib.org/) -->
<svg height="864pt" version="1.1" viewBox="0 0 576 864" width="576pt" xmlns="http://www.w3.org/2000/svg" xmlns:xlink="http://www.w3.org/1999/xlink">
 <defs>
  <style type="text/css">
*{stroke-linecap:butt;stroke-linejoin:round;}
  </style>
 </defs>
 <g id="figure_1">
  <g id="patch_1">
   <path d="M 0 864 
L 576 864 
L 576 0 
L 0 0 
z
" style="fill:#ffffff;"/>
  </g>
  <g id="axes_1">
   <g id="patch_2">
    <path d="M 72 248.306087 
L 518.4 248.306087 
L 518.4 103.68 
L 72 103.68 
z
" style="fill:#ffffff;"/>
   </g>
   <g id="matplotlib.axis_1">
    <g id="xtick_1">
     <g id="line2d_1">
      <defs>
       <path d="M 0 0 
L 0 3.5 
" id="m15cfda3d1a" style="stroke:#000000;stroke-width:0.8;"/>
      </defs>
      <g>
       <use style="stroke:#000000;stroke-width:0.8;" x="92.290909" xlink:href="#m15cfda3d1a" y="248.306087"/>
      </g>
     </g>
     <g id="text_1">
      <!-- 0 -->
      <defs>
       <path d="M 31.78125 66.40625 
Q 24.171875 66.40625 20.328125 58.90625 
Q 16.5 51.421875 16.5 36.375 
Q 16.5 21.390625 20.328125 13.890625 
Q 24.171875 6.390625 31.78125 6.390625 
Q 39.453125 6.390625 43.28125 13.890625 
Q 47.125 21.390625 47.125 36.375 
Q 47.125 51.421875 43.28125 58.90625 
Q 39.453125 66.40625 31.78125 66.40625 
z
M 31.78125 74.21875 
Q 44.046875 74.21875 50.515625 64.515625 
Q 56.984375 54.828125 56.984375 36.375 
Q 56.984375 17.96875 50.515625 8.265625 
Q 44.046875 -1.421875 31.78125 -1.421875 
Q 19.53125 -1.421875 13.0625 8.265625 
Q 6.59375 17.96875 6.59375 36.375 
Q 6.59375 54.828125 13.0625 64.515625 
Q 19.53125 74.21875 31.78125 74.21875 
z
" id="DejaVuSans-30"/>
      </defs>
      <g transform="translate(89.109659 262.904524)scale(0.1 -0.1)">
       <use xlink:href="#DejaVuSans-30"/>
      </g>
     </g>
    </g>
    <g id="xtick_2">
     <g id="line2d_2">
      <g>
       <use style="stroke:#000000;stroke-width:0.8;" x="143.660299" xlink:href="#m15cfda3d1a" y="248.306087"/>
      </g>
     </g>
     <g id="text_2">
      <!-- 10 -->
      <defs>
       <path d="M 12.40625 8.296875 
L 28.515625 8.296875 
L 28.515625 63.921875 
L 10.984375 60.40625 
L 10.984375 69.390625 
L 28.421875 72.90625 
L 38.28125 72.90625 
L 38.28125 8.296875 
L 54.390625 8.296875 
L 54.390625 0 
L 12.40625 0 
z
" id="DejaVuSans-31"/>
      </defs>
      <g transform="translate(137.297799 262.904524)scale(0.1 -0.1)">
       <use xlink:href="#DejaVuSans-31"/>
       <use x="63.623047" xlink:href="#DejaVuSans-30"/>
      </g>
     </g>
    </g>
    <g id="xtick_3">
     <g id="line2d_3">
      <g>
       <use style="stroke:#000000;stroke-width:0.8;" x="195.029689" xlink:href="#m15cfda3d1a" y="248.306087"/>
      </g>
     </g>
     <g id="text_3">
      <!-- 20 -->
      <defs>
       <path d="M 19.1875 8.296875 
L 53.609375 8.296875 
L 53.609375 0 
L 7.328125 0 
L 7.328125 8.296875 
Q 12.9375 14.109375 22.625 23.890625 
Q 32.328125 33.6875 34.8125 36.53125 
Q 39.546875 41.84375 41.421875 45.53125 
Q 43.3125 49.21875 43.3125 52.78125 
Q 43.3125 58.59375 39.234375 62.25 
Q 35.15625 65.921875 28.609375 65.921875 
Q 23.96875 65.921875 18.8125 64.3125 
Q 13.671875 62.703125 7.8125 59.421875 
L 7.8125 69.390625 
Q 13.765625 71.78125 18.9375 73 
Q 24.125 74.21875 28.421875 74.21875 
Q 39.75 74.21875 46.484375 68.546875 
Q 53.21875 62.890625 53.21875 53.421875 
Q 53.21875 48.921875 51.53125 44.890625 
Q 49.859375 40.875 45.40625 35.40625 
Q 44.1875 33.984375 37.640625 27.21875 
Q 31.109375 20.453125 19.1875 8.296875 
z
" id="DejaVuSans-32"/>
      </defs>
      <g transform="translate(188.667189 262.904524)scale(0.1 -0.1)">
       <use xlink:href="#DejaVuSans-32"/>
       <use x="63.623047" xlink:href="#DejaVuSans-30"/>
      </g>
     </g>
    </g>
    <g id="xtick_4">
     <g id="line2d_4">
      <g>
       <use style="stroke:#000000;stroke-width:0.8;" x="246.399079" xlink:href="#m15cfda3d1a" y="248.306087"/>
      </g>
     </g>
     <g id="text_4">
      <!-- 30 -->
      <defs>
       <path d="M 40.578125 39.3125 
Q 47.65625 37.796875 51.625 33 
Q 55.609375 28.21875 55.609375 21.1875 
Q 55.609375 10.40625 48.1875 4.484375 
Q 40.765625 -1.421875 27.09375 -1.421875 
Q 22.515625 -1.421875 17.65625 -0.515625 
Q 12.796875 0.390625 7.625 2.203125 
L 7.625 11.71875 
Q 11.71875 9.328125 16.59375 8.109375 
Q 21.484375 6.890625 26.8125 6.890625 
Q 36.078125 6.890625 40.9375 10.546875 
Q 45.796875 14.203125 45.796875 21.1875 
Q 45.796875 27.640625 41.28125 31.265625 
Q 36.765625 34.90625 28.71875 34.90625 
L 20.21875 34.90625 
L 20.21875 43.015625 
L 29.109375 43.015625 
Q 36.375 43.015625 40.234375 45.921875 
Q 44.09375 48.828125 44.09375 54.296875 
Q 44.09375 59.90625 40.109375 62.90625 
Q 36.140625 65.921875 28.71875 65.921875 
Q 24.65625 65.921875 20.015625 65.03125 
Q 15.375 64.15625 9.8125 62.3125 
L 9.8125 71.09375 
Q 15.4375 72.65625 20.34375 73.4375 
Q 25.25 74.21875 29.59375 74.21875 
Q 40.828125 74.21875 47.359375 69.109375 
Q 53.90625 64.015625 53.90625 55.328125 
Q 53.90625 49.265625 50.4375 45.09375 
Q 46.96875 40.921875 40.578125 39.3125 
z
" id="DejaVuSans-33"/>
      </defs>
      <g transform="translate(240.036579 262.904524)scale(0.1 -0.1)">
       <use xlink:href="#DejaVuSans-33"/>
       <use x="63.623047" xlink:href="#DejaVuSans-30"/>
      </g>
     </g>
    </g>
    <g id="xtick_5">
     <g id="line2d_5">
      <g>
       <use style="stroke:#000000;stroke-width:0.8;" x="297.76847" xlink:href="#m15cfda3d1a" y="248.306087"/>
      </g>
     </g>
     <g id="text_5">
      <!-- 40 -->
      <defs>
       <path d="M 37.796875 64.3125 
L 12.890625 25.390625 
L 37.796875 25.390625 
z
M 35.203125 72.90625 
L 47.609375 72.90625 
L 47.609375 25.390625 
L 58.015625 25.390625 
L 58.015625 17.1875 
L 47.609375 17.1875 
L 47.609375 0 
L 37.796875 0 
L 37.796875 17.1875 
L 4.890625 17.1875 
L 4.890625 26.703125 
z
" id="DejaVuSans-34"/>
      </defs>
      <g transform="translate(291.40597 262.904524)scale(0.1 -0.1)">
       <use xlink:href="#DejaVuSans-34"/>
       <use x="63.623047" xlink:href="#DejaVuSans-30"/>
      </g>
     </g>
    </g>
    <g id="xtick_6">
     <g id="line2d_6">
      <g>
       <use style="stroke:#000000;stroke-width:0.8;" x="349.13786" xlink:href="#m15cfda3d1a" y="248.306087"/>
      </g>
     </g>
     <g id="text_6">
      <!-- 50 -->
      <defs>
       <path d="M 10.796875 72.90625 
L 49.515625 72.90625 
L 49.515625 64.59375 
L 19.828125 64.59375 
L 19.828125 46.734375 
Q 21.96875 47.46875 24.109375 47.828125 
Q 26.265625 48.1875 28.421875 48.1875 
Q 40.625 48.1875 47.75 41.5 
Q 54.890625 34.8125 54.890625 23.390625 
Q 54.890625 11.625 47.5625 5.09375 
Q 40.234375 -1.421875 26.90625 -1.421875 
Q 22.3125 -1.421875 17.546875 -0.640625 
Q 12.796875 0.140625 7.71875 1.703125 
L 7.71875 11.625 
Q 12.109375 9.234375 16.796875 8.0625 
Q 21.484375 6.890625 26.703125 6.890625 
Q 35.15625 6.890625 40.078125 11.328125 
Q 45.015625 15.765625 45.015625 23.390625 
Q 45.015625 31 40.078125 35.4375 
Q 35.15625 39.890625 26.703125 39.890625 
Q 22.75 39.890625 18.8125 39.015625 
Q 14.890625 38.140625 10.796875 36.28125 
z
" id="DejaVuSans-35"/>
      </defs>
      <g transform="translate(342.77536 262.904524)scale(0.1 -0.1)">
       <use xlink:href="#DejaVuSans-35"/>
       <use x="63.623047" xlink:href="#DejaVuSans-30"/>
      </g>
     </g>
    </g>
    <g id="xtick_7">
     <g id="line2d_7">
      <g>
       <use style="stroke:#000000;stroke-width:0.8;" x="400.50725" xlink:href="#m15cfda3d1a" y="248.306087"/>
      </g>
     </g>
     <g id="text_7">
      <!-- 60 -->
      <defs>
       <path d="M 33.015625 40.375 
Q 26.375 40.375 22.484375 35.828125 
Q 18.609375 31.296875 18.609375 23.390625 
Q 18.609375 15.53125 22.484375 10.953125 
Q 26.375 6.390625 33.015625 6.390625 
Q 39.65625 6.390625 43.53125 10.953125 
Q 47.40625 15.53125 47.40625 23.390625 
Q 47.40625 31.296875 43.53125 35.828125 
Q 39.65625 40.375 33.015625 40.375 
z
M 52.59375 71.296875 
L 52.59375 62.3125 
Q 48.875 64.0625 45.09375 64.984375 
Q 41.3125 65.921875 37.59375 65.921875 
Q 27.828125 65.921875 22.671875 59.328125 
Q 17.53125 52.734375 16.796875 39.40625 
Q 19.671875 43.65625 24.015625 45.921875 
Q 28.375 48.1875 33.59375 48.1875 
Q 44.578125 48.1875 50.953125 41.515625 
Q 57.328125 34.859375 57.328125 23.390625 
Q 57.328125 12.15625 50.6875 5.359375 
Q 44.046875 -1.421875 33.015625 -1.421875 
Q 20.359375 -1.421875 13.671875 8.265625 
Q 6.984375 17.96875 6.984375 36.375 
Q 6.984375 53.65625 15.1875 63.9375 
Q 23.390625 74.21875 37.203125 74.21875 
Q 40.921875 74.21875 44.703125 73.484375 
Q 48.484375 72.75 52.59375 71.296875 
z
" id="DejaVuSans-36"/>
      </defs>
      <g transform="translate(394.14475 262.904524)scale(0.1 -0.1)">
       <use xlink:href="#DejaVuSans-36"/>
       <use x="63.623047" xlink:href="#DejaVuSans-30"/>
      </g>
     </g>
    </g>
    <g id="xtick_8">
     <g id="line2d_8">
      <g>
       <use style="stroke:#000000;stroke-width:0.8;" x="451.87664" xlink:href="#m15cfda3d1a" y="248.306087"/>
      </g>
     </g>
     <g id="text_8">
      <!-- 70 -->
      <defs>
       <path d="M 8.203125 72.90625 
L 55.078125 72.90625 
L 55.078125 68.703125 
L 28.609375 0 
L 18.3125 0 
L 43.21875 64.59375 
L 8.203125 64.59375 
z
" id="DejaVuSans-37"/>
      </defs>
      <g transform="translate(445.51414 262.904524)scale(0.1 -0.1)">
       <use xlink:href="#DejaVuSans-37"/>
       <use x="63.623047" xlink:href="#DejaVuSans-30"/>
      </g>
     </g>
    </g>
    <g id="xtick_9">
     <g id="line2d_9">
      <g>
       <use style="stroke:#000000;stroke-width:0.8;" x="503.24603" xlink:href="#m15cfda3d1a" y="248.306087"/>
      </g>
     </g>
     <g id="text_9">
      <!-- 80 -->
      <defs>
       <path d="M 31.78125 34.625 
Q 24.75 34.625 20.71875 30.859375 
Q 16.703125 27.09375 16.703125 20.515625 
Q 16.703125 13.921875 20.71875 10.15625 
Q 24.75 6.390625 31.78125 6.390625 
Q 38.8125 6.390625 42.859375 10.171875 
Q 46.921875 13.96875 46.921875 20.515625 
Q 46.921875 27.09375 42.890625 30.859375 
Q 38.875 34.625 31.78125 34.625 
z
M 21.921875 38.8125 
Q 15.578125 40.375 12.03125 44.71875 
Q 8.5 49.078125 8.5 55.328125 
Q 8.5 64.0625 14.71875 69.140625 
Q 20.953125 74.21875 31.78125 74.21875 
Q 42.671875 74.21875 48.875 69.140625 
Q 55.078125 64.0625 55.078125 55.328125 
Q 55.078125 49.078125 51.53125 44.71875 
Q 48 40.375 41.703125 38.8125 
Q 48.828125 37.15625 52.796875 32.3125 
Q 56.78125 27.484375 56.78125 20.515625 
Q 56.78125 9.90625 50.3125 4.234375 
Q 43.84375 -1.421875 31.78125 -1.421875 
Q 19.734375 -1.421875 13.25 4.234375 
Q 6.78125 9.90625 6.78125 20.515625 
Q 6.78125 27.484375 10.78125 32.3125 
Q 14.796875 37.15625 21.921875 38.8125 
z
M 18.3125 54.390625 
Q 18.3125 48.734375 21.84375 45.5625 
Q 25.390625 42.390625 31.78125 42.390625 
Q 38.140625 42.390625 41.71875 45.5625 
Q 45.3125 48.734375 45.3125 54.390625 
Q 45.3125 60.0625 41.71875 63.234375 
Q 38.140625 66.40625 31.78125 66.40625 
Q 25.390625 66.40625 21.84375 63.234375 
Q 18.3125 60.0625 18.3125 54.390625 
z
" id="DejaVuSans-38"/>
      </defs>
      <g transform="translate(496.88353 262.904524)scale(0.1 -0.1)">
       <use xlink:href="#DejaVuSans-38"/>
       <use x="63.623047" xlink:href="#DejaVuSans-30"/>
      </g>
     </g>
    </g>
   </g>
   <g id="matplotlib.axis_2">
    <g id="ytick_1">
     <g id="line2d_10">
      <defs>
       <path d="M 0 0 
L -3.5 0 
" id="mb36a3bd8a0" style="stroke:#000000;stroke-width:0.8;"/>
      </defs>
      <g>
       <use style="stroke:#000000;stroke-width:0.8;" x="72" xlink:href="#mb36a3bd8a0" y="243.555684"/>
      </g>
     </g>
     <g id="text_10">
      <!-- 0 -->
      <g transform="translate(58.6375 247.354903)scale(0.1 -0.1)">
       <use xlink:href="#DejaVuSans-30"/>
      </g>
     </g>
    </g>
    <g id="ytick_2">
     <g id="line2d_11">
      <g>
       <use style="stroke:#000000;stroke-width:0.8;" x="72" xlink:href="#mb36a3bd8a0" y="219.225154"/>
      </g>
     </g>
     <g id="text_11">
      <!-- 25 -->
      <g transform="translate(52.275 223.024373)scale(0.1 -0.1)">
       <use xlink:href="#DejaVuSans-32"/>
       <use x="63.623047" xlink:href="#DejaVuSans-35"/>
      </g>
     </g>
    </g>
    <g id="ytick_3">
     <g id="line2d_12">
      <g>
       <use style="stroke:#000000;stroke-width:0.8;" x="72" xlink:href="#mb36a3bd8a0" y="194.894624"/>
      </g>
     </g>
     <g id="text_12">
      <!-- 50 -->
      <g transform="translate(52.275 198.693842)scale(0.1 -0.1)">
       <use xlink:href="#DejaVuSans-35"/>
       <use x="63.623047" xlink:href="#DejaVuSans-30"/>
      </g>
     </g>
    </g>
    <g id="ytick_4">
     <g id="line2d_13">
      <g>
       <use style="stroke:#000000;stroke-width:0.8;" x="72" xlink:href="#mb36a3bd8a0" y="170.564093"/>
      </g>
     </g>
     <g id="text_13">
      <!-- 75 -->
      <g transform="translate(52.275 174.363312)scale(0.1 -0.1)">
       <use xlink:href="#DejaVuSans-37"/>
       <use x="63.623047" xlink:href="#DejaVuSans-35"/>
      </g>
     </g>
    </g>
    <g id="ytick_5">
     <g id="line2d_14">
      <g>
       <use style="stroke:#000000;stroke-width:0.8;" x="72" xlink:href="#mb36a3bd8a0" y="146.233563"/>
      </g>
     </g>
     <g id="text_14">
      <!-- 100 -->
      <g transform="translate(45.9125 150.032782)scale(0.1 -0.1)">
       <use xlink:href="#DejaVuSans-31"/>
       <use x="63.623047" xlink:href="#DejaVuSans-30"/>
       <use x="127.246094" xlink:href="#DejaVuSans-30"/>
      </g>
     </g>
    </g>
    <g id="ytick_6">
     <g id="line2d_15">
      <g>
       <use style="stroke:#000000;stroke-width:0.8;" x="72" xlink:href="#mb36a3bd8a0" y="121.903033"/>
      </g>
     </g>
     <g id="text_15">
      <!-- 125 -->
      <g transform="translate(45.9125 125.702251)scale(0.1 -0.1)">
       <use xlink:href="#DejaVuSans-31"/>
       <use x="63.623047" xlink:href="#DejaVuSans-32"/>
       <use x="127.246094" xlink:href="#DejaVuSans-35"/>
      </g>
     </g>
    </g>
   </g>
   <g id="line2d_16">
    <path clip-path="url(#p74e3c41921)" d="M 92.290909 169.861246 
L 97.427848 152.565064 
L 102.564787 160.920678 
L 107.701726 168.846267 
L 112.838665 170.35989 
L 117.975604 169.638625 
L 123.112543 118.939858 
L 128.249482 162.714088 
L 133.386421 234.276962 
L 138.52336 209.796943 
L 143.660299 227.759647 
L 148.797238 233.114129 
L 153.934177 232.31404 
L 159.071116 196.50658 
L 164.208055 233.720067 
L 169.344994 209.876468 
L 174.481933 198.926806 
L 179.618872 216.795792 
L 184.755811 236.743941 
L 189.89275 235.989259 
L 195.029689 225.416526 
L 200.166628 211.789651 
L 205.303567 214.426332 
L 210.440506 219.257382 
L 215.577445 213.423848 
L 220.714384 217.512833 
L 225.851323 233.327103 
L 230.988262 221.846948 
L 236.125201 189.901869 
L 241.26214 217.301806 
L 246.399079 199.888033 
L 251.536018 227.942041 
L 256.672957 233.534654 
L 261.809896 235.399412 
L 266.946835 205.403842 
L 272.083774 216.695855 
L 277.220713 131.318781 
L 282.357652 218.855722 
L 287.494591 148.516144 
L 292.63153 195.514049 
L 297.76847 149.080704 
L 302.905409 197.70423 
L 308.042348 196.198947 
L 313.179287 223.946093 
L 318.316226 161.082196 
L 323.453165 202.869947 
L 328.590104 193.786563 
L 333.727043 143.573399 
L 338.863982 150.145546 
L 344.000921 241.732174 
L 349.13786 110.253913 
L 354.274799 203.966619 
L 359.411738 198.960138 
L 364.548677 197.928936 
L 369.685616 239.731803 
L 374.822555 219.546692 
L 379.959494 230.942395 
L 385.096433 217.001842 
L 390.233372 215.266534 
L 395.370311 220.053503 
L 400.50725 220.598897 
L 405.644189 204.692063 
L 410.781128 227.373184 
L 415.918067 232.116529 
L 421.055006 212.365532 
L 426.191945 179.937188 
L 431.328884 213.466801 
L 436.465823 217.567774 
L 441.602762 217.797088 
L 446.739701 194.243457 
L 451.87664 222.038582 
L 457.013579 196.013874 
L 462.150518 198.831385 
L 467.287457 195.971001 
L 472.424396 200.570663 
L 477.561335 208.539051 
L 482.698274 203.563094 
L 487.835213 199.554569 
L 492.972152 185.082851 
L 498.109091 204.797282 
" style="fill:none;stroke:#1f77b4;stroke-linecap:square;stroke-width:1.5;"/>
   </g>
   <g id="patch_3">
    <path d="M 72 248.306087 
L 72 103.68 
" style="fill:none;stroke:#000000;stroke-linecap:square;stroke-linejoin:miter;stroke-width:0.8;"/>
   </g>
   <g id="patch_4">
    <path d="M 518.4 248.306087 
L 518.4 103.68 
" style="fill:none;stroke:#000000;stroke-linecap:square;stroke-linejoin:miter;stroke-width:0.8;"/>
   </g>
   <g id="patch_5">
    <path d="M 72 248.306087 
L 518.4 248.306087 
" style="fill:none;stroke:#000000;stroke-linecap:square;stroke-linejoin:miter;stroke-width:0.8;"/>
   </g>
   <g id="patch_6">
    <path d="M 72 103.68 
L 518.4 103.68 
" style="fill:none;stroke:#000000;stroke-linecap:square;stroke-linejoin:miter;stroke-width:0.8;"/>
   </g>
   <g id="text_16">
    <!-- left onset -->
    <defs>
     <path d="M 9.421875 75.984375 
L 18.40625 75.984375 
L 18.40625 0 
L 9.421875 0 
z
" id="DejaVuSans-6c"/>
     <path d="M 56.203125 29.59375 
L 56.203125 25.203125 
L 14.890625 25.203125 
Q 15.484375 15.921875 20.484375 11.0625 
Q 25.484375 6.203125 34.421875 6.203125 
Q 39.59375 6.203125 44.453125 7.46875 
Q 49.3125 8.734375 54.109375 11.28125 
L 54.109375 2.78125 
Q 49.265625 0.734375 44.1875 -0.34375 
Q 39.109375 -1.421875 33.890625 -1.421875 
Q 20.796875 -1.421875 13.15625 6.1875 
Q 5.515625 13.8125 5.515625 26.8125 
Q 5.515625 40.234375 12.765625 48.109375 
Q 20.015625 56 32.328125 56 
Q 43.359375 56 49.78125 48.890625 
Q 56.203125 41.796875 56.203125 29.59375 
z
M 47.21875 32.234375 
Q 47.125 39.59375 43.09375 43.984375 
Q 39.0625 48.390625 32.421875 48.390625 
Q 24.90625 48.390625 20.390625 44.140625 
Q 15.875 39.890625 15.1875 32.171875 
z
" id="DejaVuSans-65"/>
     <path d="M 37.109375 75.984375 
L 37.109375 68.5 
L 28.515625 68.5 
Q 23.6875 68.5 21.796875 66.546875 
Q 19.921875 64.59375 19.921875 59.515625 
L 19.921875 54.6875 
L 34.71875 54.6875 
L 34.71875 47.703125 
L 19.921875 47.703125 
L 19.921875 0 
L 10.890625 0 
L 10.890625 47.703125 
L 2.296875 47.703125 
L 2.296875 54.6875 
L 10.890625 54.6875 
L 10.890625 58.5 
Q 10.890625 67.625 15.140625 71.796875 
Q 19.390625 75.984375 28.609375 75.984375 
z
" id="DejaVuSans-66"/>
     <path d="M 18.3125 70.21875 
L 18.3125 54.6875 
L 36.8125 54.6875 
L 36.8125 47.703125 
L 18.3125 47.703125 
L 18.3125 18.015625 
Q 18.3125 11.328125 20.140625 9.421875 
Q 21.96875 7.515625 27.59375 7.515625 
L 36.8125 7.515625 
L 36.8125 0 
L 27.59375 0 
Q 17.1875 0 13.234375 3.875 
Q 9.28125 7.765625 9.28125 18.015625 
L 9.28125 47.703125 
L 2.6875 47.703125 
L 2.6875 54.6875 
L 9.28125 54.6875 
L 9.28125 70.21875 
z
" id="DejaVuSans-74"/>
     <path id="DejaVuSans-20"/>
     <path d="M 30.609375 48.390625 
Q 23.390625 48.390625 19.1875 42.75 
Q 14.984375 37.109375 14.984375 27.296875 
Q 14.984375 17.484375 19.15625 11.84375 
Q 23.34375 6.203125 30.609375 6.203125 
Q 37.796875 6.203125 41.984375 11.859375 
Q 46.1875 17.53125 46.1875 27.296875 
Q 46.1875 37.015625 41.984375 42.703125 
Q 37.796875 48.390625 30.609375 48.390625 
z
M 30.609375 56 
Q 42.328125 56 49.015625 48.375 
Q 55.71875 40.765625 55.71875 27.296875 
Q 55.71875 13.875 49.015625 6.21875 
Q 42.328125 -1.421875 30.609375 -1.421875 
Q 18.84375 -1.421875 12.171875 6.21875 
Q 5.515625 13.875 5.515625 27.296875 
Q 5.515625 40.765625 12.171875 48.375 
Q 18.84375 56 30.609375 56 
z
" id="DejaVuSans-6f"/>
     <path d="M 54.890625 33.015625 
L 54.890625 0 
L 45.90625 0 
L 45.90625 32.71875 
Q 45.90625 40.484375 42.875 44.328125 
Q 39.84375 48.1875 33.796875 48.1875 
Q 26.515625 48.1875 22.3125 43.546875 
Q 18.109375 38.921875 18.109375 30.90625 
L 18.109375 0 
L 9.078125 0 
L 9.078125 54.6875 
L 18.109375 54.6875 
L 18.109375 46.1875 
Q 21.34375 51.125 25.703125 53.5625 
Q 30.078125 56 35.796875 56 
Q 45.21875 56 50.046875 50.171875 
Q 54.890625 44.34375 54.890625 33.015625 
z
" id="DejaVuSans-6e"/>
     <path d="M 44.28125 53.078125 
L 44.28125 44.578125 
Q 40.484375 46.53125 36.375 47.5 
Q 32.28125 48.484375 27.875 48.484375 
Q 21.1875 48.484375 17.84375 46.4375 
Q 14.5 44.390625 14.5 40.28125 
Q 14.5 37.15625 16.890625 35.375 
Q 19.28125 33.59375 26.515625 31.984375 
L 29.59375 31.296875 
Q 39.15625 29.25 43.1875 25.515625 
Q 47.21875 21.78125 47.21875 15.09375 
Q 47.21875 7.46875 41.1875 3.015625 
Q 35.15625 -1.421875 24.609375 -1.421875 
Q 20.21875 -1.421875 15.453125 -0.5625 
Q 10.6875 0.296875 5.421875 2 
L 5.421875 11.28125 
Q 10.40625 8.6875 15.234375 7.390625 
Q 20.0625 6.109375 24.8125 6.109375 
Q 31.15625 6.109375 34.5625 8.28125 
Q 37.984375 10.453125 37.984375 14.40625 
Q 37.984375 18.0625 35.515625 20.015625 
Q 33.0625 21.96875 24.703125 23.78125 
L 21.578125 24.515625 
Q 13.234375 26.265625 9.515625 29.90625 
Q 5.8125 33.546875 5.8125 39.890625 
Q 5.8125 47.609375 11.28125 51.796875 
Q 16.75 56 26.8125 56 
Q 31.78125 56 36.171875 55.265625 
Q 40.578125 54.546875 44.28125 53.078125 
z
" id="DejaVuSans-73"/>
    </defs>
    <g transform="translate(266.8275 97.68)scale(0.12 -0.12)">
     <use xlink:href="#DejaVuSans-6c"/>
     <use x="27.783203" xlink:href="#DejaVuSans-65"/>
     <use x="89.306641" xlink:href="#DejaVuSans-66"/>
     <use x="124.496094" xlink:href="#DejaVuSans-74"/>
     <use x="163.705078" xlink:href="#DejaVuSans-20"/>
     <use x="195.492188" xlink:href="#DejaVuSans-6f"/>
     <use x="256.673828" xlink:href="#DejaVuSans-6e"/>
     <use x="320.052734" xlink:href="#DejaVuSans-73"/>
     <use x="372.152344" xlink:href="#DejaVuSans-65"/>
     <use x="433.675781" xlink:href="#DejaVuSans-74"/>
    </g>
   </g>
  </g>
  <g id="axes_2">
   <g id="patch_7">
    <path d="M 72 421.857391 
L 518.4 421.857391 
L 518.4 277.231304 
L 72 277.231304 
z
" style="fill:#ffffff;"/>
   </g>
   <g id="matplotlib.axis_3">
    <g id="xtick_10">
     <g id="line2d_17">
      <g>
       <use style="stroke:#000000;stroke-width:0.8;" x="92.290909" xlink:href="#m15cfda3d1a" y="421.857391"/>
      </g>
     </g>
     <g id="text_17">
      <!-- 0 -->
      <g transform="translate(89.109659 436.455829)scale(0.1 -0.1)">
       <use xlink:href="#DejaVuSans-30"/>
      </g>
     </g>
    </g>
    <g id="xtick_11">
     <g id="line2d_18">
      <g>
       <use style="stroke:#000000;stroke-width:0.8;" x="143.660299" xlink:href="#m15cfda3d1a" y="421.857391"/>
      </g>
     </g>
     <g id="text_18">
      <!-- 10 -->
      <g transform="translate(137.297799 436.455829)scale(0.1 -0.1)">
       <use xlink:href="#DejaVuSans-31"/>
       <use x="63.623047" xlink:href="#DejaVuSans-30"/>
      </g>
     </g>
    </g>
    <g id="xtick_12">
     <g id="line2d_19">
      <g>
       <use style="stroke:#000000;stroke-width:0.8;" x="195.029689" xlink:href="#m15cfda3d1a" y="421.857391"/>
      </g>
     </g>
     <g id="text_19">
      <!-- 20 -->
      <g transform="translate(188.667189 436.455829)scale(0.1 -0.1)">
       <use xlink:href="#DejaVuSans-32"/>
       <use x="63.623047" xlink:href="#DejaVuSans-30"/>
      </g>
     </g>
    </g>
    <g id="xtick_13">
     <g id="line2d_20">
      <g>
       <use style="stroke:#000000;stroke-width:0.8;" x="246.399079" xlink:href="#m15cfda3d1a" y="421.857391"/>
      </g>
     </g>
     <g id="text_20">
      <!-- 30 -->
      <g transform="translate(240.036579 436.455829)scale(0.1 -0.1)">
       <use xlink:href="#DejaVuSans-33"/>
       <use x="63.623047" xlink:href="#DejaVuSans-30"/>
      </g>
     </g>
    </g>
    <g id="xtick_14">
     <g id="line2d_21">
      <g>
       <use style="stroke:#000000;stroke-width:0.8;" x="297.76847" xlink:href="#m15cfda3d1a" y="421.857391"/>
      </g>
     </g>
     <g id="text_21">
      <!-- 40 -->
      <g transform="translate(291.40597 436.455829)scale(0.1 -0.1)">
       <use xlink:href="#DejaVuSans-34"/>
       <use x="63.623047" xlink:href="#DejaVuSans-30"/>
      </g>
     </g>
    </g>
    <g id="xtick_15">
     <g id="line2d_22">
      <g>
       <use style="stroke:#000000;stroke-width:0.8;" x="349.13786" xlink:href="#m15cfda3d1a" y="421.857391"/>
      </g>
     </g>
     <g id="text_22">
      <!-- 50 -->
      <g transform="translate(342.77536 436.455829)scale(0.1 -0.1)">
       <use xlink:href="#DejaVuSans-35"/>
       <use x="63.623047" xlink:href="#DejaVuSans-30"/>
      </g>
     </g>
    </g>
    <g id="xtick_16">
     <g id="line2d_23">
      <g>
       <use style="stroke:#000000;stroke-width:0.8;" x="400.50725" xlink:href="#m15cfda3d1a" y="421.857391"/>
      </g>
     </g>
     <g id="text_23">
      <!-- 60 -->
      <g transform="translate(394.14475 436.455829)scale(0.1 -0.1)">
       <use xlink:href="#DejaVuSans-36"/>
       <use x="63.623047" xlink:href="#DejaVuSans-30"/>
      </g>
     </g>
    </g>
    <g id="xtick_17">
     <g id="line2d_24">
      <g>
       <use style="stroke:#000000;stroke-width:0.8;" x="451.87664" xlink:href="#m15cfda3d1a" y="421.857391"/>
      </g>
     </g>
     <g id="text_24">
      <!-- 70 -->
      <g transform="translate(445.51414 436.455829)scale(0.1 -0.1)">
       <use xlink:href="#DejaVuSans-37"/>
       <use x="63.623047" xlink:href="#DejaVuSans-30"/>
      </g>
     </g>
    </g>
    <g id="xtick_18">
     <g id="line2d_25">
      <g>
       <use style="stroke:#000000;stroke-width:0.8;" x="503.24603" xlink:href="#m15cfda3d1a" y="421.857391"/>
      </g>
     </g>
     <g id="text_25">
      <!-- 80 -->
      <g transform="translate(496.88353 436.455829)scale(0.1 -0.1)">
       <use xlink:href="#DejaVuSans-38"/>
       <use x="63.623047" xlink:href="#DejaVuSans-30"/>
      </g>
     </g>
    </g>
   </g>
   <g id="matplotlib.axis_4">
    <g id="ytick_7">
     <g id="line2d_26">
      <g>
       <use style="stroke:#000000;stroke-width:0.8;" x="72" xlink:href="#mb36a3bd8a0" y="416.891415"/>
      </g>
     </g>
     <g id="text_26">
      <!-- 0 -->
      <g transform="translate(58.6375 420.690634)scale(0.1 -0.1)">
       <use xlink:href="#DejaVuSans-30"/>
      </g>
     </g>
    </g>
    <g id="ytick_8">
     <g id="line2d_27">
      <g>
       <use style="stroke:#000000;stroke-width:0.8;" x="72" xlink:href="#mb36a3bd8a0" y="395.485764"/>
      </g>
     </g>
     <g id="text_27">
      <!-- 25 -->
      <g transform="translate(52.275 399.284982)scale(0.1 -0.1)">
       <use xlink:href="#DejaVuSans-32"/>
       <use x="63.623047" xlink:href="#DejaVuSans-35"/>
      </g>
     </g>
    </g>
    <g id="ytick_9">
     <g id="line2d_28">
      <g>
       <use style="stroke:#000000;stroke-width:0.8;" x="72" xlink:href="#mb36a3bd8a0" y="374.080112"/>
      </g>
     </g>
     <g id="text_28">
      <!-- 50 -->
      <g transform="translate(52.275 377.879331)scale(0.1 -0.1)">
       <use xlink:href="#DejaVuSans-35"/>
       <use x="63.623047" xlink:href="#DejaVuSans-30"/>
      </g>
     </g>
    </g>
    <g id="ytick_10">
     <g id="line2d_29">
      <g>
       <use style="stroke:#000000;stroke-width:0.8;" x="72" xlink:href="#mb36a3bd8a0" y="352.67446"/>
      </g>
     </g>
     <g id="text_29">
      <!-- 75 -->
      <g transform="translate(52.275 356.473679)scale(0.1 -0.1)">
       <use xlink:href="#DejaVuSans-37"/>
       <use x="63.623047" xlink:href="#DejaVuSans-35"/>
      </g>
     </g>
    </g>
    <g id="ytick_11">
     <g id="line2d_30">
      <g>
       <use style="stroke:#000000;stroke-width:0.8;" x="72" xlink:href="#mb36a3bd8a0" y="331.268808"/>
      </g>
     </g>
     <g id="text_30">
      <!-- 100 -->
      <g transform="translate(45.9125 335.068027)scale(0.1 -0.1)">
       <use xlink:href="#DejaVuSans-31"/>
       <use x="63.623047" xlink:href="#DejaVuSans-30"/>
       <use x="127.246094" xlink:href="#DejaVuSans-30"/>
      </g>
     </g>
    </g>
    <g id="ytick_12">
     <g id="line2d_31">
      <g>
       <use style="stroke:#000000;stroke-width:0.8;" x="72" xlink:href="#mb36a3bd8a0" y="309.863156"/>
      </g>
     </g>
     <g id="text_31">
      <!-- 125 -->
      <g transform="translate(45.9125 313.662375)scale(0.1 -0.1)">
       <use xlink:href="#DejaVuSans-31"/>
       <use x="63.623047" xlink:href="#DejaVuSans-32"/>
       <use x="127.246094" xlink:href="#DejaVuSans-35"/>
      </g>
     </g>
    </g>
    <g id="ytick_13">
     <g id="line2d_32">
      <g>
       <use style="stroke:#000000;stroke-width:0.8;" x="72" xlink:href="#mb36a3bd8a0" y="288.457505"/>
      </g>
     </g>
     <g id="text_32">
      <!-- 150 -->
      <g transform="translate(45.9125 292.256723)scale(0.1 -0.1)">
       <use xlink:href="#DejaVuSans-31"/>
       <use x="63.623047" xlink:href="#DejaVuSans-35"/>
       <use x="127.246094" xlink:href="#DejaVuSans-30"/>
      </g>
     </g>
    </g>
   </g>
   <g id="line2d_33">
    <path clip-path="url(#p89e05feaf8)" d="M 92.290909 352.399282 
L 97.427848 354.852509 
L 102.564787 346.903837 
L 107.701726 345.746575 
L 112.838665 349.832749 
L 117.975604 355.582761 
L 123.112543 373.375325 
L 128.249482 404.492748 
L 133.386421 396.53617 
L 138.52336 402.991844 
L 143.660299 410.239333 
L 148.797238 409.199456 
L 153.934177 330.610727 
L 159.071116 399.480683 
L 164.208055 401.523231 
L 169.344994 384.096271 
L 174.481933 386.818869 
L 179.618872 389.919284 
L 184.755811 386.740552 
L 189.89275 389.734533 
L 195.029689 388.330524 
L 200.166628 387.988355 
L 205.303567 383.741026 
L 210.440506 385.082316 
L 215.577445 381.578264 
L 220.714384 407.701127 
L 225.851323 394.318846 
L 230.988262 380.515641 
L 236.125201 390.005293 
L 241.26214 383.996951 
L 246.399079 405.215682 
L 251.536018 405.069567 
L 256.672957 400.273496 
L 261.809896 381.911426 
L 266.946835 382.39246 
L 272.083774 313.314489 
L 277.220713 391.556673 
L 282.357652 383.736163 
L 287.494591 352.273682 
L 292.63153 367.23589 
L 297.76847 376.062634 
L 302.905409 371.541802 
L 308.042348 396.505928 
L 313.179287 397.922289 
L 318.316226 382.0523 
L 323.453165 382.339371 
L 328.590104 327.283796 
L 333.727043 283.805217 
L 338.863982 415.283478 
L 344.000921 359.893041 
L 349.13786 388.930221 
L 354.274799 405.937213 
L 359.411738 367.344309 
L 364.548677 349.705089 
L 369.685616 405.407631 
L 374.822555 391.141615 
L 379.959494 410.748842 
L 385.096433 381.787322 
L 390.233372 386.791742 
L 395.370311 413.471554 
L 400.50725 379.655685 
L 405.644189 387.973747 
L 410.781128 402.161118 
L 415.918067 390.308562 
L 421.055006 388.215137 
L 426.191945 369.731047 
L 431.328884 302.538297 
L 436.465823 400.585852 
L 441.602762 401.142558 
L 446.739701 362.350126 
L 451.87664 409.856841 
L 457.013579 318.970748 
L 462.150518 367.029238 
L 467.287457 366.825562 
L 472.424396 390.59458 
L 477.561335 375.578139 
L 482.698274 369.440641 
L 487.835213 408.733326 
L 492.972152 382.216327 
L 498.109091 369.13645 
" style="fill:none;stroke:#1f77b4;stroke-linecap:square;stroke-width:1.5;"/>
   </g>
   <g id="patch_8">
    <path d="M 72 421.857391 
L 72 277.231304 
" style="fill:none;stroke:#000000;stroke-linecap:square;stroke-linejoin:miter;stroke-width:0.8;"/>
   </g>
   <g id="patch_9">
    <path d="M 518.4 421.857391 
L 518.4 277.231304 
" style="fill:none;stroke:#000000;stroke-linecap:square;stroke-linejoin:miter;stroke-width:0.8;"/>
   </g>
   <g id="patch_10">
    <path d="M 72 421.857391 
L 518.4 421.857391 
" style="fill:none;stroke:#000000;stroke-linecap:square;stroke-linejoin:miter;stroke-width:0.8;"/>
   </g>
   <g id="patch_11">
    <path d="M 72 277.231304 
L 518.4 277.231304 
" style="fill:none;stroke:#000000;stroke-linecap:square;stroke-linejoin:miter;stroke-width:0.8;"/>
   </g>
   <g id="text_33">
    <!-- left offset -->
    <g transform="translate(266.405625 271.231304)scale(0.12 -0.12)">
     <use xlink:href="#DejaVuSans-6c"/>
     <use x="27.783203" xlink:href="#DejaVuSans-65"/>
     <use x="89.306641" xlink:href="#DejaVuSans-66"/>
     <use x="124.496094" xlink:href="#DejaVuSans-74"/>
     <use x="163.705078" xlink:href="#DejaVuSans-20"/>
     <use x="195.492188" xlink:href="#DejaVuSans-6f"/>
     <use x="256.673828" xlink:href="#DejaVuSans-66"/>
     <use x="291.878906" xlink:href="#DejaVuSans-66"/>
     <use x="327.083984" xlink:href="#DejaVuSans-73"/>
     <use x="379.183594" xlink:href="#DejaVuSans-65"/>
     <use x="440.707031" xlink:href="#DejaVuSans-74"/>
    </g>
   </g>
  </g>
  <g id="axes_3">
   <g id="patch_12">
    <path d="M 72 595.408696 
L 518.4 595.408696 
L 518.4 450.782609 
L 72 450.782609 
z
" style="fill:#ffffff;"/>
   </g>
   <g id="matplotlib.axis_5">
    <g id="xtick_19">
     <g id="line2d_34">
      <g>
       <use style="stroke:#000000;stroke-width:0.8;" x="92.290909" xlink:href="#m15cfda3d1a" y="595.408696"/>
      </g>
     </g>
     <g id="text_34">
      <!-- 0 -->
      <g transform="translate(89.109659 610.007133)scale(0.1 -0.1)">
       <use xlink:href="#DejaVuSans-30"/>
      </g>
     </g>
    </g>
    <g id="xtick_20">
     <g id="line2d_35">
      <g>
       <use style="stroke:#000000;stroke-width:0.8;" x="178.635203" xlink:href="#m15cfda3d1a" y="595.408696"/>
      </g>
     </g>
     <g id="text_35">
      <!-- 20 -->
      <g transform="translate(172.272703 610.007133)scale(0.1 -0.1)">
       <use xlink:href="#DejaVuSans-32"/>
       <use x="63.623047" xlink:href="#DejaVuSans-30"/>
      </g>
     </g>
    </g>
    <g id="xtick_21">
     <g id="line2d_36">
      <g>
       <use style="stroke:#000000;stroke-width:0.8;" x="264.979497" xlink:href="#m15cfda3d1a" y="595.408696"/>
      </g>
     </g>
     <g id="text_36">
      <!-- 40 -->
      <g transform="translate(258.616997 610.007133)scale(0.1 -0.1)">
       <use xlink:href="#DejaVuSans-34"/>
       <use x="63.623047" xlink:href="#DejaVuSans-30"/>
      </g>
     </g>
    </g>
    <g id="xtick_22">
     <g id="line2d_37">
      <g>
       <use style="stroke:#000000;stroke-width:0.8;" x="351.323791" xlink:href="#m15cfda3d1a" y="595.408696"/>
      </g>
     </g>
     <g id="text_37">
      <!-- 60 -->
      <g transform="translate(344.961291 610.007133)scale(0.1 -0.1)">
       <use xlink:href="#DejaVuSans-36"/>
       <use x="63.623047" xlink:href="#DejaVuSans-30"/>
      </g>
     </g>
    </g>
    <g id="xtick_23">
     <g id="line2d_38">
      <g>
       <use style="stroke:#000000;stroke-width:0.8;" x="437.668085" xlink:href="#m15cfda3d1a" y="595.408696"/>
      </g>
     </g>
     <g id="text_38">
      <!-- 80 -->
      <g transform="translate(431.305585 610.007133)scale(0.1 -0.1)">
       <use xlink:href="#DejaVuSans-38"/>
       <use x="63.623047" xlink:href="#DejaVuSans-30"/>
      </g>
     </g>
    </g>
   </g>
   <g id="matplotlib.axis_6">
    <g id="ytick_14">
     <g id="line2d_39">
      <g>
       <use style="stroke:#000000;stroke-width:0.8;" x="72" xlink:href="#mb36a3bd8a0" y="588.884582"/>
      </g>
     </g>
     <g id="text_39">
      <!-- 0 -->
      <g transform="translate(58.6375 592.6838)scale(0.1 -0.1)">
       <use xlink:href="#DejaVuSans-30"/>
      </g>
     </g>
    </g>
    <g id="ytick_15">
     <g id="line2d_40">
      <g>
       <use style="stroke:#000000;stroke-width:0.8;" x="72" xlink:href="#mb36a3bd8a0" y="568.201467"/>
      </g>
     </g>
     <g id="text_40">
      <!-- 20 -->
      <g transform="translate(52.275 572.000686)scale(0.1 -0.1)">
       <use xlink:href="#DejaVuSans-32"/>
       <use x="63.623047" xlink:href="#DejaVuSans-30"/>
      </g>
     </g>
    </g>
    <g id="ytick_16">
     <g id="line2d_41">
      <g>
       <use style="stroke:#000000;stroke-width:0.8;" x="72" xlink:href="#mb36a3bd8a0" y="547.518353"/>
      </g>
     </g>
     <g id="text_41">
      <!-- 40 -->
      <g transform="translate(52.275 551.317572)scale(0.1 -0.1)">
       <use xlink:href="#DejaVuSans-34"/>
       <use x="63.623047" xlink:href="#DejaVuSans-30"/>
      </g>
     </g>
    </g>
    <g id="ytick_17">
     <g id="line2d_42">
      <g>
       <use style="stroke:#000000;stroke-width:0.8;" x="72" xlink:href="#mb36a3bd8a0" y="526.835239"/>
      </g>
     </g>
     <g id="text_42">
      <!-- 60 -->
      <g transform="translate(52.275 530.634458)scale(0.1 -0.1)">
       <use xlink:href="#DejaVuSans-36"/>
       <use x="63.623047" xlink:href="#DejaVuSans-30"/>
      </g>
     </g>
    </g>
    <g id="ytick_18">
     <g id="line2d_43">
      <g>
       <use style="stroke:#000000;stroke-width:0.8;" x="72" xlink:href="#mb36a3bd8a0" y="506.152125"/>
      </g>
     </g>
     <g id="text_43">
      <!-- 80 -->
      <g transform="translate(52.275 509.951344)scale(0.1 -0.1)">
       <use xlink:href="#DejaVuSans-38"/>
       <use x="63.623047" xlink:href="#DejaVuSans-30"/>
      </g>
     </g>
    </g>
    <g id="ytick_19">
     <g id="line2d_44">
      <g>
       <use style="stroke:#000000;stroke-width:0.8;" x="72" xlink:href="#mb36a3bd8a0" y="485.469011"/>
      </g>
     </g>
     <g id="text_44">
      <!-- 100 -->
      <g transform="translate(45.9125 489.268229)scale(0.1 -0.1)">
       <use xlink:href="#DejaVuSans-31"/>
       <use x="63.623047" xlink:href="#DejaVuSans-30"/>
       <use x="127.246094" xlink:href="#DejaVuSans-30"/>
      </g>
     </g>
    </g>
    <g id="ytick_20">
     <g id="line2d_45">
      <g>
       <use style="stroke:#000000;stroke-width:0.8;" x="72" xlink:href="#mb36a3bd8a0" y="464.785897"/>
      </g>
     </g>
     <g id="text_45">
      <!-- 120 -->
      <g transform="translate(45.9125 468.585115)scale(0.1 -0.1)">
       <use xlink:href="#DejaVuSans-31"/>
       <use x="63.623047" xlink:href="#DejaVuSans-32"/>
       <use x="127.246094" xlink:href="#DejaVuSans-30"/>
      </g>
     </g>
    </g>
   </g>
   <g id="line2d_46">
    <path clip-path="url(#pdc42757301)" d="M 92.290909 550.087802 
L 96.608124 515.735655 
L 100.925338 540.458971 
L 105.242553 511.477101 
L 109.559768 487.056137 
L 113.876983 527.689493 
L 118.194197 517.345831 
L 122.511412 588.834783 
L 126.828627 572.274078 
L 131.145841 536.165126 
L 135.463056 576.840552 
L 139.780271 556.407205 
L 144.097485 571.741471 
L 148.4147 575.909567 
L 152.731915 550.819098 
L 157.04913 541.212372 
L 161.366344 524.531479 
L 165.683559 550.239467 
L 170.000774 556.601569 
L 174.317988 567.13549 
L 178.635203 554.791289 
L 182.952418 553.60746 
L 187.269632 527.288556 
L 191.586847 558.037307 
L 195.904062 563.743458 
L 200.221277 548.160716 
L 204.538491 508.812281 
L 208.855706 547.753754 
L 213.172921 536.593081 
L 217.490135 551.221068 
L 221.80735 574.022704 
L 226.124565 552.036249 
L 230.441779 582.122146 
L 234.758994 568.268464 
L 239.076209 575.640358 
L 243.393424 579.231656 
L 247.710638 580.420449 
L 252.027853 554.182711 
L 256.345068 538.266737 
L 260.662282 535.865634 
L 264.979497 547.909591 
L 269.296712 563.164337 
L 273.613926 534.772889 
L 277.931141 553.301213 
L 282.248356 569.377453 
L 286.565571 569.31305 
L 290.882785 518.685573 
L 295.2 533.787781 
L 299.517215 572.997359 
L 303.834429 470.342531 
L 308.151644 488.966175 
L 312.468859 477.295651 
L 316.786074 472.798904 
L 321.103288 478.691701 
L 325.420503 537.601855 
L 329.737718 554.620381 
L 334.054932 476.398764 
L 338.372147 545.415163 
L 342.689362 510.491402 
L 347.006576 552.012234 
L 351.323791 481.431706 
L 355.641006 457.356522 
L 359.958221 561.077281 
L 364.275435 493.036287 
L 368.59265 540.613464 
L 372.909865 515.235064 
L 377.227079 574.201035 
L 381.544294 551.514136 
L 385.861509 559.964935 
L 390.178723 556.032762 
L 394.495938 562.564132 
L 398.813153 561.019588 
L 403.130368 555.057766 
L 407.447582 549.208044 
L 411.764797 557.691721 
L 416.082012 552.538458 
L 420.399226 552.779578 
L 424.716441 557.840017 
L 429.033656 549.789217 
L 433.35087 575.524994 
L 437.668085 565.280545 
L 441.9853 543.926163 
L 446.302515 545.661158 
L 450.619729 572.237657 
L 454.936944 541.420358 
L 459.254159 545.529308 
L 463.571373 544.318719 
L 467.888588 561.615727 
L 472.205803 566.158517 
L 476.523017 503.500323 
L 480.840232 542.658164 
L 485.157447 574.446915 
L 489.474662 490.070893 
L 493.791876 484.925823 
L 498.109091 494.471083 
" style="fill:none;stroke:#1f77b4;stroke-linecap:square;stroke-width:1.5;"/>
   </g>
   <g id="patch_13">
    <path d="M 72 595.408696 
L 72 450.782609 
" style="fill:none;stroke:#000000;stroke-linecap:square;stroke-linejoin:miter;stroke-width:0.8;"/>
   </g>
   <g id="patch_14">
    <path d="M 518.4 595.408696 
L 518.4 450.782609 
" style="fill:none;stroke:#000000;stroke-linecap:square;stroke-linejoin:miter;stroke-width:0.8;"/>
   </g>
   <g id="patch_15">
    <path d="M 72 595.408696 
L 518.4 595.408696 
" style="fill:none;stroke:#000000;stroke-linecap:square;stroke-linejoin:miter;stroke-width:0.8;"/>
   </g>
   <g id="patch_16">
    <path d="M 72 450.782609 
L 518.4 450.782609 
" style="fill:none;stroke:#000000;stroke-linecap:square;stroke-linejoin:miter;stroke-width:0.8;"/>
   </g>
   <g id="text_46">
    <!-- right onset -->
    <defs>
     <path d="M 41.109375 46.296875 
Q 39.59375 47.171875 37.8125 47.578125 
Q 36.03125 48 33.890625 48 
Q 26.265625 48 22.1875 43.046875 
Q 18.109375 38.09375 18.109375 28.8125 
L 18.109375 0 
L 9.078125 0 
L 9.078125 54.6875 
L 18.109375 54.6875 
L 18.109375 46.1875 
Q 20.953125 51.171875 25.484375 53.578125 
Q 30.03125 56 36.53125 56 
Q 37.453125 56 38.578125 55.875 
Q 39.703125 55.765625 41.0625 55.515625 
z
" id="DejaVuSans-72"/>
     <path d="M 9.421875 54.6875 
L 18.40625 54.6875 
L 18.40625 0 
L 9.421875 0 
z
M 9.421875 75.984375 
L 18.40625 75.984375 
L 18.40625 64.59375 
L 9.421875 64.59375 
z
" id="DejaVuSans-69"/>
     <path d="M 45.40625 27.984375 
Q 45.40625 37.75 41.375 43.109375 
Q 37.359375 48.484375 30.078125 48.484375 
Q 22.859375 48.484375 18.828125 43.109375 
Q 14.796875 37.75 14.796875 27.984375 
Q 14.796875 18.265625 18.828125 12.890625 
Q 22.859375 7.515625 30.078125 7.515625 
Q 37.359375 7.515625 41.375 12.890625 
Q 45.40625 18.265625 45.40625 27.984375 
z
M 54.390625 6.78125 
Q 54.390625 -7.171875 48.1875 -13.984375 
Q 42 -20.796875 29.203125 -20.796875 
Q 24.46875 -20.796875 20.265625 -20.09375 
Q 16.0625 -19.390625 12.109375 -17.921875 
L 12.109375 -9.1875 
Q 16.0625 -11.328125 19.921875 -12.34375 
Q 23.78125 -13.375 27.78125 -13.375 
Q 36.625 -13.375 41.015625 -8.765625 
Q 45.40625 -4.15625 45.40625 5.171875 
L 45.40625 9.625 
Q 42.625 4.78125 38.28125 2.390625 
Q 33.9375 0 27.875 0 
Q 17.828125 0 11.671875 7.65625 
Q 5.515625 15.328125 5.515625 27.984375 
Q 5.515625 40.671875 11.671875 48.328125 
Q 17.828125 56 27.875 56 
Q 33.9375 56 38.28125 53.609375 
Q 42.625 51.21875 45.40625 46.390625 
L 45.40625 54.6875 
L 54.390625 54.6875 
z
" id="DejaVuSans-67"/>
     <path d="M 54.890625 33.015625 
L 54.890625 0 
L 45.90625 0 
L 45.90625 32.71875 
Q 45.90625 40.484375 42.875 44.328125 
Q 39.84375 48.1875 33.796875 48.1875 
Q 26.515625 48.1875 22.3125 43.546875 
Q 18.109375 38.921875 18.109375 30.90625 
L 18.109375 0 
L 9.078125 0 
L 9.078125 75.984375 
L 18.109375 75.984375 
L 18.109375 46.1875 
Q 21.34375 51.125 25.703125 53.5625 
Q 30.078125 56 35.796875 56 
Q 45.21875 56 50.046875 50.171875 
Q 54.890625 44.34375 54.890625 33.015625 
z
" id="DejaVuSans-68"/>
    </defs>
    <g transform="translate(262.5525 444.782609)scale(0.12 -0.12)">
     <use xlink:href="#DejaVuSans-72"/>
     <use x="41.113281" xlink:href="#DejaVuSans-69"/>
     <use x="68.896484" xlink:href="#DejaVuSans-67"/>
     <use x="132.373047" xlink:href="#DejaVuSans-68"/>
     <use x="195.751953" xlink:href="#DejaVuSans-74"/>
     <use x="234.960938" xlink:href="#DejaVuSans-20"/>
     <use x="266.748047" xlink:href="#DejaVuSans-6f"/>
     <use x="327.929688" xlink:href="#DejaVuSans-6e"/>
     <use x="391.308594" xlink:href="#DejaVuSans-73"/>
     <use x="443.408203" xlink:href="#DejaVuSans-65"/>
     <use x="504.931641" xlink:href="#DejaVuSans-74"/>
    </g>
   </g>
  </g>
  <g id="axes_4">
   <g id="patch_17">
    <path d="M 72 768.96 
L 518.4 768.96 
L 518.4 624.333913 
L 72 624.333913 
z
" style="fill:#ffffff;"/>
   </g>
   <g id="matplotlib.axis_7">
    <g id="xtick_24">
     <g id="line2d_47">
      <g>
       <use style="stroke:#000000;stroke-width:0.8;" x="92.290909" xlink:href="#m15cfda3d1a" y="768.96"/>
      </g>
     </g>
     <g id="text_47">
      <!-- 0 -->
      <g transform="translate(89.109659 783.558437)scale(0.1 -0.1)">
       <use xlink:href="#DejaVuSans-30"/>
      </g>
     </g>
    </g>
    <g id="xtick_25">
     <g id="line2d_48">
      <g>
       <use style="stroke:#000000;stroke-width:0.8;" x="178.635203" xlink:href="#m15cfda3d1a" y="768.96"/>
      </g>
     </g>
     <g id="text_48">
      <!-- 20 -->
      <g transform="translate(172.272703 783.558437)scale(0.1 -0.1)">
       <use xlink:href="#DejaVuSans-32"/>
       <use x="63.623047" xlink:href="#DejaVuSans-30"/>
      </g>
     </g>
    </g>
    <g id="xtick_26">
     <g id="line2d_49">
      <g>
       <use style="stroke:#000000;stroke-width:0.8;" x="264.979497" xlink:href="#m15cfda3d1a" y="768.96"/>
      </g>
     </g>
     <g id="text_49">
      <!-- 40 -->
      <g transform="translate(258.616997 783.558437)scale(0.1 -0.1)">
       <use xlink:href="#DejaVuSans-34"/>
       <use x="63.623047" xlink:href="#DejaVuSans-30"/>
      </g>
     </g>
    </g>
    <g id="xtick_27">
     <g id="line2d_50">
      <g>
       <use style="stroke:#000000;stroke-width:0.8;" x="351.323791" xlink:href="#m15cfda3d1a" y="768.96"/>
      </g>
     </g>
     <g id="text_50">
      <!-- 60 -->
      <g transform="translate(344.961291 783.558437)scale(0.1 -0.1)">
       <use xlink:href="#DejaVuSans-36"/>
       <use x="63.623047" xlink:href="#DejaVuSans-30"/>
      </g>
     </g>
    </g>
    <g id="xtick_28">
     <g id="line2d_51">
      <g>
       <use style="stroke:#000000;stroke-width:0.8;" x="437.668085" xlink:href="#m15cfda3d1a" y="768.96"/>
      </g>
     </g>
     <g id="text_51">
      <!-- 80 -->
      <g transform="translate(431.305585 783.558437)scale(0.1 -0.1)">
       <use xlink:href="#DejaVuSans-38"/>
       <use x="63.623047" xlink:href="#DejaVuSans-30"/>
      </g>
     </g>
    </g>
    <g id="text_52">
     <!-- Events -->
     <defs>
      <path d="M 9.8125 72.90625 
L 55.90625 72.90625 
L 55.90625 64.59375 
L 19.671875 64.59375 
L 19.671875 43.015625 
L 54.390625 43.015625 
L 54.390625 34.71875 
L 19.671875 34.71875 
L 19.671875 8.296875 
L 56.78125 8.296875 
L 56.78125 0 
L 9.8125 0 
z
" id="DejaVuSans-45"/>
      <path d="M 2.984375 54.6875 
L 12.5 54.6875 
L 29.59375 8.796875 
L 46.6875 54.6875 
L 56.203125 54.6875 
L 35.6875 0 
L 23.484375 0 
z
" id="DejaVuSans-76"/>
     </defs>
     <g transform="translate(278.271094 797.236562)scale(0.1 -0.1)">
      <use xlink:href="#DejaVuSans-45"/>
      <use x="63.183594" xlink:href="#DejaVuSans-76"/>
      <use x="122.363281" xlink:href="#DejaVuSans-65"/>
      <use x="183.886719" xlink:href="#DejaVuSans-6e"/>
      <use x="247.265625" xlink:href="#DejaVuSans-74"/>
      <use x="286.474609" xlink:href="#DejaVuSans-73"/>
     </g>
    </g>
   </g>
   <g id="matplotlib.axis_8">
    <g id="ytick_21">
     <g id="line2d_52">
      <g>
       <use style="stroke:#000000;stroke-width:0.8;" x="72" xlink:href="#mb36a3bd8a0" y="763.896802"/>
      </g>
     </g>
     <g id="text_53">
      <!-- 0 -->
      <g transform="translate(58.6375 767.696021)scale(0.1 -0.1)">
       <use xlink:href="#DejaVuSans-30"/>
      </g>
     </g>
    </g>
    <g id="ytick_22">
     <g id="line2d_53">
      <g>
       <use style="stroke:#000000;stroke-width:0.8;" x="72" xlink:href="#mb36a3bd8a0" y="741.139373"/>
      </g>
     </g>
     <g id="text_54">
      <!-- 50 -->
      <g transform="translate(52.275 744.938592)scale(0.1 -0.1)">
       <use xlink:href="#DejaVuSans-35"/>
       <use x="63.623047" xlink:href="#DejaVuSans-30"/>
      </g>
     </g>
    </g>
    <g id="ytick_23">
     <g id="line2d_54">
      <g>
       <use style="stroke:#000000;stroke-width:0.8;" x="72" xlink:href="#mb36a3bd8a0" y="718.381944"/>
      </g>
     </g>
     <g id="text_55">
      <!-- 100 -->
      <g transform="translate(45.9125 722.181163)scale(0.1 -0.1)">
       <use xlink:href="#DejaVuSans-31"/>
       <use x="63.623047" xlink:href="#DejaVuSans-30"/>
       <use x="127.246094" xlink:href="#DejaVuSans-30"/>
      </g>
     </g>
    </g>
    <g id="ytick_24">
     <g id="line2d_55">
      <g>
       <use style="stroke:#000000;stroke-width:0.8;" x="72" xlink:href="#mb36a3bd8a0" y="695.624515"/>
      </g>
     </g>
     <g id="text_56">
      <!-- 150 -->
      <g transform="translate(45.9125 699.423734)scale(0.1 -0.1)">
       <use xlink:href="#DejaVuSans-31"/>
       <use x="63.623047" xlink:href="#DejaVuSans-35"/>
       <use x="127.246094" xlink:href="#DejaVuSans-30"/>
      </g>
     </g>
    </g>
    <g id="ytick_25">
     <g id="line2d_56">
      <g>
       <use style="stroke:#000000;stroke-width:0.8;" x="72" xlink:href="#mb36a3bd8a0" y="672.867086"/>
      </g>
     </g>
     <g id="text_57">
      <!-- 200 -->
      <g transform="translate(45.9125 676.666304)scale(0.1 -0.1)">
       <use xlink:href="#DejaVuSans-32"/>
       <use x="63.623047" xlink:href="#DejaVuSans-30"/>
       <use x="127.246094" xlink:href="#DejaVuSans-30"/>
      </g>
     </g>
    </g>
    <g id="ytick_26">
     <g id="line2d_57">
      <g>
       <use style="stroke:#000000;stroke-width:0.8;" x="72" xlink:href="#mb36a3bd8a0" y="650.109656"/>
      </g>
     </g>
     <g id="text_58">
      <!-- 250 -->
      <g transform="translate(45.9125 653.908875)scale(0.1 -0.1)">
       <use xlink:href="#DejaVuSans-32"/>
       <use x="63.623047" xlink:href="#DejaVuSans-35"/>
       <use x="127.246094" xlink:href="#DejaVuSans-30"/>
      </g>
     </g>
    </g>
    <g id="ytick_27">
     <g id="line2d_58">
      <g>
       <use style="stroke:#000000;stroke-width:0.8;" x="72" xlink:href="#mb36a3bd8a0" y="627.352227"/>
      </g>
     </g>
     <g id="text_59">
      <!-- 300 -->
      <g transform="translate(45.9125 631.151446)scale(0.1 -0.1)">
       <use xlink:href="#DejaVuSans-33"/>
       <use x="63.623047" xlink:href="#DejaVuSans-30"/>
       <use x="127.246094" xlink:href="#DejaVuSans-30"/>
      </g>
     </g>
    </g>
   </g>
   <g id="line2d_59">
    <path clip-path="url(#p705ea82899)" d="M 92.290909 725.512702 
L 96.608124 726.816175 
L 100.925338 732.009432 
L 105.242553 729.670037 
L 109.559768 722.311548 
L 113.876983 735.074285 
L 118.194197 734.734482 
L 122.511412 757.724395 
L 126.828627 747.099972 
L 131.145841 758.185291 
L 135.463056 749.767881 
L 139.780271 760.410008 
L 144.097485 751.008393 
L 148.4147 719.981493 
L 152.731915 746.533737 
L 157.04913 747.218021 
L 161.366344 749.268689 
L 165.683559 735.728316 
L 170.000774 734.29937 
L 174.317988 748.82 
L 178.635203 747.256779 
L 182.952418 746.681259 
L 187.269632 734.501157 
L 191.586847 749.312579 
L 195.904062 748.195632 
L 200.221277 746.968591 
L 204.538491 745.168139 
L 208.855706 757.442538 
L 213.172921 735.994153 
L 217.490135 746.225881 
L 221.80735 742.275759 
L 226.124565 744.337287 
L 230.441779 757.640233 
L 234.758994 755.194955 
L 239.076209 759.741562 
L 243.393424 758.683648 
L 247.710638 741.573723 
L 252.027853 758.702795 
L 256.345068 739.447004 
L 260.662282 743.432584 
L 264.979497 747.756129 
L 269.296712 752.589616 
L 273.613926 665.059091 
L 277.931141 738.219776 
L 282.248356 755.071226 
L 286.565571 728.769691 
L 290.882785 743.682516 
L 295.2 730.421391 
L 299.517215 747.60943 
L 303.834429 707.062705 
L 308.151644 743.643744 
L 312.468859 739.824027 
L 316.786074 718.50836 
L 321.103288 739.49613 
L 325.420503 746.111986 
L 329.737718 750.356036 
L 334.054932 744.732737 
L 338.372147 745.405386 
L 342.689362 742.414723 
L 347.006576 671.207721 
L 351.323791 630.907826 
L 355.641006 741.955105 
L 359.958221 753.340818 
L 364.275435 712.495145 
L 368.59265 704.756761 
L 372.909865 758.837302 
L 377.227079 761.961743 
L 381.544294 758.142914 
L 385.861509 762.230661 
L 390.178723 749.054396 
L 394.495938 749.386414 
L 398.813153 727.48026 
L 403.130368 745.468657 
L 407.447582 745.369535 
L 411.764797 747.226308 
L 416.082012 732.741438 
L 420.399226 754.363196 
L 424.716441 743.165274 
L 429.033656 745.625941 
L 433.35087 762.386087 
L 437.668085 733.905078 
L 441.9853 747.255906 
L 446.302515 756.465945 
L 450.619729 749.540207 
L 454.936944 749.347511 
L 459.254159 734.540165 
L 463.571373 762.006517 
L 467.888588 756.684246 
L 472.205803 743.802362 
L 476.523017 735.553541 
L 480.840232 760.197411 
L 485.157447 741.424351 
L 489.474662 749.703405 
L 493.791876 737.554343 
L 498.109091 736.350716 
" style="fill:none;stroke:#1f77b4;stroke-linecap:square;stroke-width:1.5;"/>
   </g>
   <g id="patch_18">
    <path d="M 72 768.96 
L 72 624.333913 
" style="fill:none;stroke:#000000;stroke-linecap:square;stroke-linejoin:miter;stroke-width:0.8;"/>
   </g>
   <g id="patch_19">
    <path d="M 518.4 768.96 
L 518.4 624.333913 
" style="fill:none;stroke:#000000;stroke-linecap:square;stroke-linejoin:miter;stroke-width:0.8;"/>
   </g>
   <g id="patch_20">
    <path d="M 72 768.96 
L 518.4 768.96 
" style="fill:none;stroke:#000000;stroke-linecap:square;stroke-linejoin:miter;stroke-width:0.8;"/>
   </g>
   <g id="patch_21">
    <path d="M 72 624.333913 
L 518.4 624.333913 
" style="fill:none;stroke:#000000;stroke-linecap:square;stroke-linejoin:miter;stroke-width:0.8;"/>
   </g>
   <g id="text_60">
    <!-- right offset -->
    <g transform="translate(262.130625 618.333913)scale(0.12 -0.12)">
     <use xlink:href="#DejaVuSans-72"/>
     <use x="41.113281" xlink:href="#DejaVuSans-69"/>
     <use x="68.896484" xlink:href="#DejaVuSans-67"/>
     <use x="132.373047" xlink:href="#DejaVuSans-68"/>
     <use x="195.751953" xlink:href="#DejaVuSans-74"/>
     <use x="234.960938" xlink:href="#DejaVuSans-20"/>
     <use x="266.748047" xlink:href="#DejaVuSans-6f"/>
     <use x="327.929688" xlink:href="#DejaVuSans-66"/>
     <use x="363.134766" xlink:href="#DejaVuSans-66"/>
     <use x="398.339844" xlink:href="#DejaVuSans-73"/>
     <use x="450.439453" xlink:href="#DejaVuSans-65"/>
     <use x="511.962891" xlink:href="#DejaVuSans-74"/>
    </g>
   </g>
  </g>
 </g>
 <defs>
  <clipPath id="p74e3c41921">
   <rect height="144.626087" width="446.4" x="72" y="103.68"/>
  </clipPath>
  <clipPath id="p89e05feaf8">
   <rect height="144.626087" width="446.4" x="72" y="277.231304"/>
  </clipPath>
  <clipPath id="pdc42757301">
   <rect height="144.626087" width="446.4" x="72" y="450.782609"/>
  </clipPath>
  <clipPath id="p705ea82899">
   <rect height="144.626087" width="446.4" x="72" y="624.333913"/>
  </clipPath>
 </defs>
</svg>
