<?xml version="1.0" encoding="utf-8" standalone="no"?>
<!DOCTYPE svg PUBLIC "-//W3C//DTD SVG 1.1//EN"
  "http://www.w3.org/Graphics/SVG/1.1/DTD/svg11.dtd">
<!-- Created with matplotlib (http://matplotlib.org/) -->
<svg height="864pt" version="1.1" viewBox="0 0 576 864" width="576pt" xmlns="http://www.w3.org/2000/svg" xmlns:xlink="http://www.w3.org/1999/xlink">
 <defs>
  <style type="text/css">
*{stroke-linecap:butt;stroke-linejoin:round;}
  </style>
 </defs>
 <g id="figure_1">
  <g id="patch_1">
   <path d="M 0 864 
L 576 864 
L 576 0 
L 0 0 
z
" style="fill:#ffffff;"/>
  </g>
  <g id="axes_1">
   <g id="patch_2">
    <path d="M 72 248.306087 
L 518.4 248.306087 
L 518.4 103.68 
L 72 103.68 
z
" style="fill:#ffffff;"/>
   </g>
   <g id="matplotlib.axis_1">
    <g id="xtick_1">
     <g id="line2d_1">
      <defs>
       <path d="M 0 0 
L 0 3.5 
" id="m28bba02d9a" style="stroke:#000000;stroke-width:0.8;"/>
      </defs>
      <g>
       <use style="stroke:#000000;stroke-width:0.8;" x="92.290909" xlink:href="#m28bba02d9a" y="248.306087"/>
      </g>
     </g>
     <g id="text_1">
      <!-- 0 -->
      <defs>
       <path d="M 31.78125 66.40625 
Q 24.171875 66.40625 20.328125 58.90625 
Q 16.5 51.421875 16.5 36.375 
Q 16.5 21.390625 20.328125 13.890625 
Q 24.171875 6.390625 31.78125 6.390625 
Q 39.453125 6.390625 43.28125 13.890625 
Q 47.125 21.390625 47.125 36.375 
Q 47.125 51.421875 43.28125 58.90625 
Q 39.453125 66.40625 31.78125 66.40625 
z
M 31.78125 74.21875 
Q 44.046875 74.21875 50.515625 64.515625 
Q 56.984375 54.828125 56.984375 36.375 
Q 56.984375 17.96875 50.515625 8.265625 
Q 44.046875 -1.421875 31.78125 -1.421875 
Q 19.53125 -1.421875 13.0625 8.265625 
Q 6.59375 17.96875 6.59375 36.375 
Q 6.59375 54.828125 13.0625 64.515625 
Q 19.53125 74.21875 31.78125 74.21875 
z
" id="DejaVuSans-30"/>
      </defs>
      <g transform="translate(89.109659 262.904524)scale(0.1 -0.1)">
       <use xlink:href="#DejaVuSans-30"/>
      </g>
     </g>
    </g>
    <g id="xtick_2">
     <g id="line2d_2">
      <g>
       <use style="stroke:#000000;stroke-width:0.8;" x="143.660299" xlink:href="#m28bba02d9a" y="248.306087"/>
      </g>
     </g>
     <g id="text_2">
      <!-- 10 -->
      <defs>
       <path d="M 12.40625 8.296875 
L 28.515625 8.296875 
L 28.515625 63.921875 
L 10.984375 60.40625 
L 10.984375 69.390625 
L 28.421875 72.90625 
L 38.28125 72.90625 
L 38.28125 8.296875 
L 54.390625 8.296875 
L 54.390625 0 
L 12.40625 0 
z
" id="DejaVuSans-31"/>
      </defs>
      <g transform="translate(137.297799 262.904524)scale(0.1 -0.1)">
       <use xlink:href="#DejaVuSans-31"/>
       <use x="63.623047" xlink:href="#DejaVuSans-30"/>
      </g>
     </g>
    </g>
    <g id="xtick_3">
     <g id="line2d_3">
      <g>
       <use style="stroke:#000000;stroke-width:0.8;" x="195.029689" xlink:href="#m28bba02d9a" y="248.306087"/>
      </g>
     </g>
     <g id="text_3">
      <!-- 20 -->
      <defs>
       <path d="M 19.1875 8.296875 
L 53.609375 8.296875 
L 53.609375 0 
L 7.328125 0 
L 7.328125 8.296875 
Q 12.9375 14.109375 22.625 23.890625 
Q 32.328125 33.6875 34.8125 36.53125 
Q 39.546875 41.84375 41.421875 45.53125 
Q 43.3125 49.21875 43.3125 52.78125 
Q 43.3125 58.59375 39.234375 62.25 
Q 35.15625 65.921875 28.609375 65.921875 
Q 23.96875 65.921875 18.8125 64.3125 
Q 13.671875 62.703125 7.8125 59.421875 
L 7.8125 69.390625 
Q 13.765625 71.78125 18.9375 73 
Q 24.125 74.21875 28.421875 74.21875 
Q 39.75 74.21875 46.484375 68.546875 
Q 53.21875 62.890625 53.21875 53.421875 
Q 53.21875 48.921875 51.53125 44.890625 
Q 49.859375 40.875 45.40625 35.40625 
Q 44.1875 33.984375 37.640625 27.21875 
Q 31.109375 20.453125 19.1875 8.296875 
z
" id="DejaVuSans-32"/>
      </defs>
      <g transform="translate(188.667189 262.904524)scale(0.1 -0.1)">
       <use xlink:href="#DejaVuSans-32"/>
       <use x="63.623047" xlink:href="#DejaVuSans-30"/>
      </g>
     </g>
    </g>
    <g id="xtick_4">
     <g id="line2d_4">
      <g>
       <use style="stroke:#000000;stroke-width:0.8;" x="246.399079" xlink:href="#m28bba02d9a" y="248.306087"/>
      </g>
     </g>
     <g id="text_4">
      <!-- 30 -->
      <defs>
       <path d="M 40.578125 39.3125 
Q 47.65625 37.796875 51.625 33 
Q 55.609375 28.21875 55.609375 21.1875 
Q 55.609375 10.40625 48.1875 4.484375 
Q 40.765625 -1.421875 27.09375 -1.421875 
Q 22.515625 -1.421875 17.65625 -0.515625 
Q 12.796875 0.390625 7.625 2.203125 
L 7.625 11.71875 
Q 11.71875 9.328125 16.59375 8.109375 
Q 21.484375 6.890625 26.8125 6.890625 
Q 36.078125 6.890625 40.9375 10.546875 
Q 45.796875 14.203125 45.796875 21.1875 
Q 45.796875 27.640625 41.28125 31.265625 
Q 36.765625 34.90625 28.71875 34.90625 
L 20.21875 34.90625 
L 20.21875 43.015625 
L 29.109375 43.015625 
Q 36.375 43.015625 40.234375 45.921875 
Q 44.09375 48.828125 44.09375 54.296875 
Q 44.09375 59.90625 40.109375 62.90625 
Q 36.140625 65.921875 28.71875 65.921875 
Q 24.65625 65.921875 20.015625 65.03125 
Q 15.375 64.15625 9.8125 62.3125 
L 9.8125 71.09375 
Q 15.4375 72.65625 20.34375 73.4375 
Q 25.25 74.21875 29.59375 74.21875 
Q 40.828125 74.21875 47.359375 69.109375 
Q 53.90625 64.015625 53.90625 55.328125 
Q 53.90625 49.265625 50.4375 45.09375 
Q 46.96875 40.921875 40.578125 39.3125 
z
" id="DejaVuSans-33"/>
      </defs>
      <g transform="translate(240.036579 262.904524)scale(0.1 -0.1)">
       <use xlink:href="#DejaVuSans-33"/>
       <use x="63.623047" xlink:href="#DejaVuSans-30"/>
      </g>
     </g>
    </g>
    <g id="xtick_5">
     <g id="line2d_5">
      <g>
       <use style="stroke:#000000;stroke-width:0.8;" x="297.76847" xlink:href="#m28bba02d9a" y="248.306087"/>
      </g>
     </g>
     <g id="text_5">
      <!-- 40 -->
      <defs>
       <path d="M 37.796875 64.3125 
L 12.890625 25.390625 
L 37.796875 25.390625 
z
M 35.203125 72.90625 
L 47.609375 72.90625 
L 47.609375 25.390625 
L 58.015625 25.390625 
L 58.015625 17.1875 
L 47.609375 17.1875 
L 47.609375 0 
L 37.796875 0 
L 37.796875 17.1875 
L 4.890625 17.1875 
L 4.890625 26.703125 
z
" id="DejaVuSans-34"/>
      </defs>
      <g transform="translate(291.40597 262.904524)scale(0.1 -0.1)">
       <use xlink:href="#DejaVuSans-34"/>
       <use x="63.623047" xlink:href="#DejaVuSans-30"/>
      </g>
     </g>
    </g>
    <g id="xtick_6">
     <g id="line2d_6">
      <g>
       <use style="stroke:#000000;stroke-width:0.8;" x="349.13786" xlink:href="#m28bba02d9a" y="248.306087"/>
      </g>
     </g>
     <g id="text_6">
      <!-- 50 -->
      <defs>
       <path d="M 10.796875 72.90625 
L 49.515625 72.90625 
L 49.515625 64.59375 
L 19.828125 64.59375 
L 19.828125 46.734375 
Q 21.96875 47.46875 24.109375 47.828125 
Q 26.265625 48.1875 28.421875 48.1875 
Q 40.625 48.1875 47.75 41.5 
Q 54.890625 34.8125 54.890625 23.390625 
Q 54.890625 11.625 47.5625 5.09375 
Q 40.234375 -1.421875 26.90625 -1.421875 
Q 22.3125 -1.421875 17.546875 -0.640625 
Q 12.796875 0.140625 7.71875 1.703125 
L 7.71875 11.625 
Q 12.109375 9.234375 16.796875 8.0625 
Q 21.484375 6.890625 26.703125 6.890625 
Q 35.15625 6.890625 40.078125 11.328125 
Q 45.015625 15.765625 45.015625 23.390625 
Q 45.015625 31 40.078125 35.4375 
Q 35.15625 39.890625 26.703125 39.890625 
Q 22.75 39.890625 18.8125 39.015625 
Q 14.890625 38.140625 10.796875 36.28125 
z
" id="DejaVuSans-35"/>
      </defs>
      <g transform="translate(342.77536 262.904524)scale(0.1 -0.1)">
       <use xlink:href="#DejaVuSans-35"/>
       <use x="63.623047" xlink:href="#DejaVuSans-30"/>
      </g>
     </g>
    </g>
    <g id="xtick_7">
     <g id="line2d_7">
      <g>
       <use style="stroke:#000000;stroke-width:0.8;" x="400.50725" xlink:href="#m28bba02d9a" y="248.306087"/>
      </g>
     </g>
     <g id="text_7">
      <!-- 60 -->
      <defs>
       <path d="M 33.015625 40.375 
Q 26.375 40.375 22.484375 35.828125 
Q 18.609375 31.296875 18.609375 23.390625 
Q 18.609375 15.53125 22.484375 10.953125 
Q 26.375 6.390625 33.015625 6.390625 
Q 39.65625 6.390625 43.53125 10.953125 
Q 47.40625 15.53125 47.40625 23.390625 
Q 47.40625 31.296875 43.53125 35.828125 
Q 39.65625 40.375 33.015625 40.375 
z
M 52.59375 71.296875 
L 52.59375 62.3125 
Q 48.875 64.0625 45.09375 64.984375 
Q 41.3125 65.921875 37.59375 65.921875 
Q 27.828125 65.921875 22.671875 59.328125 
Q 17.53125 52.734375 16.796875 39.40625 
Q 19.671875 43.65625 24.015625 45.921875 
Q 28.375 48.1875 33.59375 48.1875 
Q 44.578125 48.1875 50.953125 41.515625 
Q 57.328125 34.859375 57.328125 23.390625 
Q 57.328125 12.15625 50.6875 5.359375 
Q 44.046875 -1.421875 33.015625 -1.421875 
Q 20.359375 -1.421875 13.671875 8.265625 
Q 6.984375 17.96875 6.984375 36.375 
Q 6.984375 53.65625 15.1875 63.9375 
Q 23.390625 74.21875 37.203125 74.21875 
Q 40.921875 74.21875 44.703125 73.484375 
Q 48.484375 72.75 52.59375 71.296875 
z
" id="DejaVuSans-36"/>
      </defs>
      <g transform="translate(394.14475 262.904524)scale(0.1 -0.1)">
       <use xlink:href="#DejaVuSans-36"/>
       <use x="63.623047" xlink:href="#DejaVuSans-30"/>
      </g>
     </g>
    </g>
    <g id="xtick_8">
     <g id="line2d_8">
      <g>
       <use style="stroke:#000000;stroke-width:0.8;" x="451.87664" xlink:href="#m28bba02d9a" y="248.306087"/>
      </g>
     </g>
     <g id="text_8">
      <!-- 70 -->
      <defs>
       <path d="M 8.203125 72.90625 
L 55.078125 72.90625 
L 55.078125 68.703125 
L 28.609375 0 
L 18.3125 0 
L 43.21875 64.59375 
L 8.203125 64.59375 
z
" id="DejaVuSans-37"/>
      </defs>
      <g transform="translate(445.51414 262.904524)scale(0.1 -0.1)">
       <use xlink:href="#DejaVuSans-37"/>
       <use x="63.623047" xlink:href="#DejaVuSans-30"/>
      </g>
     </g>
    </g>
    <g id="xtick_9">
     <g id="line2d_9">
      <g>
       <use style="stroke:#000000;stroke-width:0.8;" x="503.24603" xlink:href="#m28bba02d9a" y="248.306087"/>
      </g>
     </g>
     <g id="text_9">
      <!-- 80 -->
      <defs>
       <path d="M 31.78125 34.625 
Q 24.75 34.625 20.71875 30.859375 
Q 16.703125 27.09375 16.703125 20.515625 
Q 16.703125 13.921875 20.71875 10.15625 
Q 24.75 6.390625 31.78125 6.390625 
Q 38.8125 6.390625 42.859375 10.171875 
Q 46.921875 13.96875 46.921875 20.515625 
Q 46.921875 27.09375 42.890625 30.859375 
Q 38.875 34.625 31.78125 34.625 
z
M 21.921875 38.8125 
Q 15.578125 40.375 12.03125 44.71875 
Q 8.5 49.078125 8.5 55.328125 
Q 8.5 64.0625 14.71875 69.140625 
Q 20.953125 74.21875 31.78125 74.21875 
Q 42.671875 74.21875 48.875 69.140625 
Q 55.078125 64.0625 55.078125 55.328125 
Q 55.078125 49.078125 51.53125 44.71875 
Q 48 40.375 41.703125 38.8125 
Q 48.828125 37.15625 52.796875 32.3125 
Q 56.78125 27.484375 56.78125 20.515625 
Q 56.78125 9.90625 50.3125 4.234375 
Q 43.84375 -1.421875 31.78125 -1.421875 
Q 19.734375 -1.421875 13.25 4.234375 
Q 6.78125 9.90625 6.78125 20.515625 
Q 6.78125 27.484375 10.78125 32.3125 
Q 14.796875 37.15625 21.921875 38.8125 
z
M 18.3125 54.390625 
Q 18.3125 48.734375 21.84375 45.5625 
Q 25.390625 42.390625 31.78125 42.390625 
Q 38.140625 42.390625 41.71875 45.5625 
Q 45.3125 48.734375 45.3125 54.390625 
Q 45.3125 60.0625 41.71875 63.234375 
Q 38.140625 66.40625 31.78125 66.40625 
Q 25.390625 66.40625 21.84375 63.234375 
Q 18.3125 60.0625 18.3125 54.390625 
z
" id="DejaVuSans-38"/>
      </defs>
      <g transform="translate(496.88353 262.904524)scale(0.1 -0.1)">
       <use xlink:href="#DejaVuSans-38"/>
       <use x="63.623047" xlink:href="#DejaVuSans-30"/>
      </g>
     </g>
    </g>
   </g>
   <g id="matplotlib.axis_2">
    <g id="ytick_1">
     <g id="line2d_10">
      <defs>
       <path d="M 0 0 
L -3.5 0 
" id="m1257a44bbb" style="stroke:#000000;stroke-width:0.8;"/>
      </defs>
      <g>
       <use style="stroke:#000000;stroke-width:0.8;" x="72" xlink:href="#m1257a44bbb" y="212.991864"/>
      </g>
     </g>
     <g id="text_10">
      <!-- 50 -->
      <g transform="translate(52.275 216.791083)scale(0.1 -0.1)">
       <use xlink:href="#DejaVuSans-35"/>
       <use x="63.623047" xlink:href="#DejaVuSans-30"/>
      </g>
     </g>
    </g>
    <g id="ytick_2">
     <g id="line2d_11">
      <g>
       <use style="stroke:#000000;stroke-width:0.8;" x="72" xlink:href="#m1257a44bbb" y="176.633641"/>
      </g>
     </g>
     <g id="text_11">
      <!-- 100 -->
      <g transform="translate(45.9125 180.432859)scale(0.1 -0.1)">
       <use xlink:href="#DejaVuSans-31"/>
       <use x="63.623047" xlink:href="#DejaVuSans-30"/>
       <use x="127.246094" xlink:href="#DejaVuSans-30"/>
      </g>
     </g>
    </g>
    <g id="ytick_3">
     <g id="line2d_12">
      <g>
       <use style="stroke:#000000;stroke-width:0.8;" x="72" xlink:href="#m1257a44bbb" y="140.275417"/>
      </g>
     </g>
     <g id="text_12">
      <!-- 150 -->
      <g transform="translate(45.9125 144.074636)scale(0.1 -0.1)">
       <use xlink:href="#DejaVuSans-31"/>
       <use x="63.623047" xlink:href="#DejaVuSans-35"/>
       <use x="127.246094" xlink:href="#DejaVuSans-30"/>
      </g>
     </g>
    </g>
    <g id="ytick_4">
     <g id="line2d_13">
      <g>
       <use style="stroke:#000000;stroke-width:0.8;" x="72" xlink:href="#m1257a44bbb" y="103.917194"/>
      </g>
     </g>
     <g id="text_13">
      <!-- 200 -->
      <g transform="translate(45.9125 107.716413)scale(0.1 -0.1)">
       <use xlink:href="#DejaVuSans-32"/>
       <use x="63.623047" xlink:href="#DejaVuSans-30"/>
       <use x="127.246094" xlink:href="#DejaVuSans-30"/>
      </g>
     </g>
    </g>
   </g>
   <g id="line2d_14">
    <path clip-path="url(#p23d1f4a3c4)" d="M 92.290909 196.520061 
L 97.427848 197.022303 
L 102.564787 197.022303 
L 107.701726 197.022303 
L 112.838665 197.022303 
L 117.975604 197.022303 
L 123.112543 198.529013 
L 128.249482 227.156514 
L 133.386421 227.884757 
L 138.52336 204.857196 
L 143.660299 198.051888 
L 148.797238 210.130683 
L 153.934177 224.544882 
L 159.071116 200.537959 
L 164.208055 200.537959 
L 169.344994 193.121921 
L 174.481933 174.936924 
L 179.618872 201.045591 
L 184.755811 180.719613 
L 189.89275 222.756644 
L 195.029689 216.59306 
L 200.166628 188.268272 
L 205.303567 180.719613 
L 210.440506 193.28917 
L 215.577445 180.823493 
L 220.714384 213.511267 
L 225.851323 179.75006 
L 230.988262 179.092149 
L 236.125201 111.916003 
L 241.26214 187.541108 
L 246.399079 176.287372 
L 251.536018 218.91306 
L 256.672957 197.16738 
L 261.809896 226.946496 
L 266.946835 179.265284 
L 272.083774 176.183491 
L 277.220713 203.261711 
L 282.357652 197.513649 
L 287.494591 189.964989 
L 292.63153 180.027075 
L 297.76847 234.668291 
L 302.905409 235.603216 
L 308.042348 234.287395 
L 313.179287 239.516054 
L 318.316226 236.711276 
L 323.453165 146.404375 
L 328.590104 148.2396 
L 333.727043 134.631236 
L 338.863982 126.493919 
L 344.000921 110.392421 
L 349.13786 110.253913 
L 354.274799 157.207961 
L 359.411738 231.274856 
L 364.548677 233.594857 
L 369.685616 181.481404 
L 374.822555 182.554837 
L 379.959494 220.367389 
L 385.096433 195.574544 
L 390.233372 208.663504 
L 395.370311 185.117226 
L 400.50725 180.684986 
L 405.644189 182.485583 
L 410.781128 206.862906 
L 415.918067 205.581712 
L 421.055006 188.579914 
L 426.191945 177.395432 
L 431.328884 177.914835 
L 436.465823 165.760801 
L 441.602762 208.698131 
L 446.739701 151.667661 
L 451.87664 201.045591 
L 457.013579 173.828864 
L 462.150518 193.981707 
L 467.287457 112.227645 
L 472.424396 112.089138 
L 477.561335 111.742869 
L 482.698274 111.569734 
L 487.835213 151.910049 
L 492.972152 230.201423 
L 498.109091 241.732174 
" style="fill:none;stroke:#1f77b4;stroke-linecap:square;stroke-width:1.5;"/>
   </g>
   <g id="patch_3">
    <path d="M 72 248.306087 
L 72 103.68 
" style="fill:none;stroke:#000000;stroke-linecap:square;stroke-linejoin:miter;stroke-width:0.8;"/>
   </g>
   <g id="patch_4">
    <path d="M 518.4 248.306087 
L 518.4 103.68 
" style="fill:none;stroke:#000000;stroke-linecap:square;stroke-linejoin:miter;stroke-width:0.8;"/>
   </g>
   <g id="patch_5">
    <path d="M 72 248.306087 
L 518.4 248.306087 
" style="fill:none;stroke:#000000;stroke-linecap:square;stroke-linejoin:miter;stroke-width:0.8;"/>
   </g>
   <g id="patch_6">
    <path d="M 72 103.68 
L 518.4 103.68 
" style="fill:none;stroke:#000000;stroke-linecap:square;stroke-linejoin:miter;stroke-width:0.8;"/>
   </g>
   <g id="text_14">
    <!-- left onset -->
    <defs>
     <path d="M 9.421875 75.984375 
L 18.40625 75.984375 
L 18.40625 0 
L 9.421875 0 
z
" id="DejaVuSans-6c"/>
     <path d="M 56.203125 29.59375 
L 56.203125 25.203125 
L 14.890625 25.203125 
Q 15.484375 15.921875 20.484375 11.0625 
Q 25.484375 6.203125 34.421875 6.203125 
Q 39.59375 6.203125 44.453125 7.46875 
Q 49.3125 8.734375 54.109375 11.28125 
L 54.109375 2.78125 
Q 49.265625 0.734375 44.1875 -0.34375 
Q 39.109375 -1.421875 33.890625 -1.421875 
Q 20.796875 -1.421875 13.15625 6.1875 
Q 5.515625 13.8125 5.515625 26.8125 
Q 5.515625 40.234375 12.765625 48.109375 
Q 20.015625 56 32.328125 56 
Q 43.359375 56 49.78125 48.890625 
Q 56.203125 41.796875 56.203125 29.59375 
z
M 47.21875 32.234375 
Q 47.125 39.59375 43.09375 43.984375 
Q 39.0625 48.390625 32.421875 48.390625 
Q 24.90625 48.390625 20.390625 44.140625 
Q 15.875 39.890625 15.1875 32.171875 
z
" id="DejaVuSans-65"/>
     <path d="M 37.109375 75.984375 
L 37.109375 68.5 
L 28.515625 68.5 
Q 23.6875 68.5 21.796875 66.546875 
Q 19.921875 64.59375 19.921875 59.515625 
L 19.921875 54.6875 
L 34.71875 54.6875 
L 34.71875 47.703125 
L 19.921875 47.703125 
L 19.921875 0 
L 10.890625 0 
L 10.890625 47.703125 
L 2.296875 47.703125 
L 2.296875 54.6875 
L 10.890625 54.6875 
L 10.890625 58.5 
Q 10.890625 67.625 15.140625 71.796875 
Q 19.390625 75.984375 28.609375 75.984375 
z
" id="DejaVuSans-66"/>
     <path d="M 18.3125 70.21875 
L 18.3125 54.6875 
L 36.8125 54.6875 
L 36.8125 47.703125 
L 18.3125 47.703125 
L 18.3125 18.015625 
Q 18.3125 11.328125 20.140625 9.421875 
Q 21.96875 7.515625 27.59375 7.515625 
L 36.8125 7.515625 
L 36.8125 0 
L 27.59375 0 
Q 17.1875 0 13.234375 3.875 
Q 9.28125 7.765625 9.28125 18.015625 
L 9.28125 47.703125 
L 2.6875 47.703125 
L 2.6875 54.6875 
L 9.28125 54.6875 
L 9.28125 70.21875 
z
" id="DejaVuSans-74"/>
     <path id="DejaVuSans-20"/>
     <path d="M 30.609375 48.390625 
Q 23.390625 48.390625 19.1875 42.75 
Q 14.984375 37.109375 14.984375 27.296875 
Q 14.984375 17.484375 19.15625 11.84375 
Q 23.34375 6.203125 30.609375 6.203125 
Q 37.796875 6.203125 41.984375 11.859375 
Q 46.1875 17.53125 46.1875 27.296875 
Q 46.1875 37.015625 41.984375 42.703125 
Q 37.796875 48.390625 30.609375 48.390625 
z
M 30.609375 56 
Q 42.328125 56 49.015625 48.375 
Q 55.71875 40.765625 55.71875 27.296875 
Q 55.71875 13.875 49.015625 6.21875 
Q 42.328125 -1.421875 30.609375 -1.421875 
Q 18.84375 -1.421875 12.171875 6.21875 
Q 5.515625 13.875 5.515625 27.296875 
Q 5.515625 40.765625 12.171875 48.375 
Q 18.84375 56 30.609375 56 
z
" id="DejaVuSans-6f"/>
     <path d="M 54.890625 33.015625 
L 54.890625 0 
L 45.90625 0 
L 45.90625 32.71875 
Q 45.90625 40.484375 42.875 44.328125 
Q 39.84375 48.1875 33.796875 48.1875 
Q 26.515625 48.1875 22.3125 43.546875 
Q 18.109375 38.921875 18.109375 30.90625 
L 18.109375 0 
L 9.078125 0 
L 9.078125 54.6875 
L 18.109375 54.6875 
L 18.109375 46.1875 
Q 21.34375 51.125 25.703125 53.5625 
Q 30.078125 56 35.796875 56 
Q 45.21875 56 50.046875 50.171875 
Q 54.890625 44.34375 54.890625 33.015625 
z
" id="DejaVuSans-6e"/>
     <path d="M 44.28125 53.078125 
L 44.28125 44.578125 
Q 40.484375 46.53125 36.375 47.5 
Q 32.28125 48.484375 27.875 48.484375 
Q 21.1875 48.484375 17.84375 46.4375 
Q 14.5 44.390625 14.5 40.28125 
Q 14.5 37.15625 16.890625 35.375 
Q 19.28125 33.59375 26.515625 31.984375 
L 29.59375 31.296875 
Q 39.15625 29.25 43.1875 25.515625 
Q 47.21875 21.78125 47.21875 15.09375 
Q 47.21875 7.46875 41.1875 3.015625 
Q 35.15625 -1.421875 24.609375 -1.421875 
Q 20.21875 -1.421875 15.453125 -0.5625 
Q 10.6875 0.296875 5.421875 2 
L 5.421875 11.28125 
Q 10.40625 8.6875 15.234375 7.390625 
Q 20.0625 6.109375 24.8125 6.109375 
Q 31.15625 6.109375 34.5625 8.28125 
Q 37.984375 10.453125 37.984375 14.40625 
Q 37.984375 18.0625 35.515625 20.015625 
Q 33.0625 21.96875 24.703125 23.78125 
L 21.578125 24.515625 
Q 13.234375 26.265625 9.515625 29.90625 
Q 5.8125 33.546875 5.8125 39.890625 
Q 5.8125 47.609375 11.28125 51.796875 
Q 16.75 56 26.8125 56 
Q 31.78125 56 36.171875 55.265625 
Q 40.578125 54.546875 44.28125 53.078125 
z
" id="DejaVuSans-73"/>
    </defs>
    <g transform="translate(266.8275 97.68)scale(0.12 -0.12)">
     <use xlink:href="#DejaVuSans-6c"/>
     <use x="27.783203" xlink:href="#DejaVuSans-65"/>
     <use x="89.306641" xlink:href="#DejaVuSans-66"/>
     <use x="124.496094" xlink:href="#DejaVuSans-74"/>
     <use x="163.705078" xlink:href="#DejaVuSans-20"/>
     <use x="195.492188" xlink:href="#DejaVuSans-6f"/>
     <use x="256.673828" xlink:href="#DejaVuSans-6e"/>
     <use x="320.052734" xlink:href="#DejaVuSans-73"/>
     <use x="372.152344" xlink:href="#DejaVuSans-65"/>
     <use x="433.675781" xlink:href="#DejaVuSans-74"/>
    </g>
   </g>
  </g>
  <g id="axes_2">
   <g id="patch_7">
    <path d="M 72 421.857391 
L 518.4 421.857391 
L 518.4 277.231304 
L 72 277.231304 
z
" style="fill:#ffffff;"/>
   </g>
   <g id="matplotlib.axis_3">
    <g id="xtick_10">
     <g id="line2d_15">
      <g>
       <use style="stroke:#000000;stroke-width:0.8;" x="92.290909" xlink:href="#m28bba02d9a" y="421.857391"/>
      </g>
     </g>
     <g id="text_15">
      <!-- 0 -->
      <g transform="translate(89.109659 436.455829)scale(0.1 -0.1)">
       <use xlink:href="#DejaVuSans-30"/>
      </g>
     </g>
    </g>
    <g id="xtick_11">
     <g id="line2d_16">
      <g>
       <use style="stroke:#000000;stroke-width:0.8;" x="143.660299" xlink:href="#m28bba02d9a" y="421.857391"/>
      </g>
     </g>
     <g id="text_16">
      <!-- 10 -->
      <g transform="translate(137.297799 436.455829)scale(0.1 -0.1)">
       <use xlink:href="#DejaVuSans-31"/>
       <use x="63.623047" xlink:href="#DejaVuSans-30"/>
      </g>
     </g>
    </g>
    <g id="xtick_12">
     <g id="line2d_17">
      <g>
       <use style="stroke:#000000;stroke-width:0.8;" x="195.029689" xlink:href="#m28bba02d9a" y="421.857391"/>
      </g>
     </g>
     <g id="text_17">
      <!-- 20 -->
      <g transform="translate(188.667189 436.455829)scale(0.1 -0.1)">
       <use xlink:href="#DejaVuSans-32"/>
       <use x="63.623047" xlink:href="#DejaVuSans-30"/>
      </g>
     </g>
    </g>
    <g id="xtick_13">
     <g id="line2d_18">
      <g>
       <use style="stroke:#000000;stroke-width:0.8;" x="246.399079" xlink:href="#m28bba02d9a" y="421.857391"/>
      </g>
     </g>
     <g id="text_18">
      <!-- 30 -->
      <g transform="translate(240.036579 436.455829)scale(0.1 -0.1)">
       <use xlink:href="#DejaVuSans-33"/>
       <use x="63.623047" xlink:href="#DejaVuSans-30"/>
      </g>
     </g>
    </g>
    <g id="xtick_14">
     <g id="line2d_19">
      <g>
       <use style="stroke:#000000;stroke-width:0.8;" x="297.76847" xlink:href="#m28bba02d9a" y="421.857391"/>
      </g>
     </g>
     <g id="text_19">
      <!-- 40 -->
      <g transform="translate(291.40597 436.455829)scale(0.1 -0.1)">
       <use xlink:href="#DejaVuSans-34"/>
       <use x="63.623047" xlink:href="#DejaVuSans-30"/>
      </g>
     </g>
    </g>
    <g id="xtick_15">
     <g id="line2d_20">
      <g>
       <use style="stroke:#000000;stroke-width:0.8;" x="349.13786" xlink:href="#m28bba02d9a" y="421.857391"/>
      </g>
     </g>
     <g id="text_20">
      <!-- 50 -->
      <g transform="translate(342.77536 436.455829)scale(0.1 -0.1)">
       <use xlink:href="#DejaVuSans-35"/>
       <use x="63.623047" xlink:href="#DejaVuSans-30"/>
      </g>
     </g>
    </g>
    <g id="xtick_16">
     <g id="line2d_21">
      <g>
       <use style="stroke:#000000;stroke-width:0.8;" x="400.50725" xlink:href="#m28bba02d9a" y="421.857391"/>
      </g>
     </g>
     <g id="text_21">
      <!-- 60 -->
      <g transform="translate(394.14475 436.455829)scale(0.1 -0.1)">
       <use xlink:href="#DejaVuSans-36"/>
       <use x="63.623047" xlink:href="#DejaVuSans-30"/>
      </g>
     </g>
    </g>
    <g id="xtick_17">
     <g id="line2d_22">
      <g>
       <use style="stroke:#000000;stroke-width:0.8;" x="451.87664" xlink:href="#m28bba02d9a" y="421.857391"/>
      </g>
     </g>
     <g id="text_22">
      <!-- 70 -->
      <g transform="translate(445.51414 436.455829)scale(0.1 -0.1)">
       <use xlink:href="#DejaVuSans-37"/>
       <use x="63.623047" xlink:href="#DejaVuSans-30"/>
      </g>
     </g>
    </g>
    <g id="xtick_18">
     <g id="line2d_23">
      <g>
       <use style="stroke:#000000;stroke-width:0.8;" x="503.24603" xlink:href="#m28bba02d9a" y="421.857391"/>
      </g>
     </g>
     <g id="text_23">
      <!-- 80 -->
      <g transform="translate(496.88353 436.455829)scale(0.1 -0.1)">
       <use xlink:href="#DejaVuSans-38"/>
       <use x="63.623047" xlink:href="#DejaVuSans-30"/>
      </g>
     </g>
    </g>
   </g>
   <g id="matplotlib.axis_4">
    <g id="ytick_5">
     <g id="line2d_24">
      <g>
       <use style="stroke:#000000;stroke-width:0.8;" x="72" xlink:href="#m1257a44bbb" y="386.65626"/>
      </g>
     </g>
     <g id="text_24">
      <!-- 50 -->
      <g transform="translate(52.275 390.455479)scale(0.1 -0.1)">
       <use xlink:href="#DejaVuSans-35"/>
       <use x="63.623047" xlink:href="#DejaVuSans-30"/>
      </g>
     </g>
    </g>
    <g id="ytick_6">
     <g id="line2d_25">
      <g>
       <use style="stroke:#000000;stroke-width:0.8;" x="72" xlink:href="#m1257a44bbb" y="350.441104"/>
      </g>
     </g>
     <g id="text_25">
      <!-- 100 -->
      <g transform="translate(45.9125 354.240323)scale(0.1 -0.1)">
       <use xlink:href="#DejaVuSans-31"/>
       <use x="63.623047" xlink:href="#DejaVuSans-30"/>
       <use x="127.246094" xlink:href="#DejaVuSans-30"/>
      </g>
     </g>
    </g>
    <g id="ytick_7">
     <g id="line2d_26">
      <g>
       <use style="stroke:#000000;stroke-width:0.8;" x="72" xlink:href="#m1257a44bbb" y="314.225948"/>
      </g>
     </g>
     <g id="text_26">
      <!-- 150 -->
      <g transform="translate(45.9125 318.025167)scale(0.1 -0.1)">
       <use xlink:href="#DejaVuSans-31"/>
       <use x="63.623047" xlink:href="#DejaVuSans-35"/>
       <use x="127.246094" xlink:href="#DejaVuSans-30"/>
      </g>
     </g>
    </g>
    <g id="ytick_8">
     <g id="line2d_27">
      <g>
       <use style="stroke:#000000;stroke-width:0.8;" x="72" xlink:href="#m1257a44bbb" y="278.010792"/>
      </g>
     </g>
     <g id="text_27">
      <!-- 200 -->
      <g transform="translate(45.9125 281.810011)scale(0.1 -0.1)">
       <use xlink:href="#DejaVuSans-32"/>
       <use x="63.623047" xlink:href="#DejaVuSans-30"/>
       <use x="127.246094" xlink:href="#DejaVuSans-30"/>
      </g>
     </g>
    </g>
   </g>
   <g id="line2d_28">
    <path clip-path="url(#p648aad3d97)" d="M 92.290909 373.25084 
L 97.427848 370.749538 
L 102.564787 370.749538 
L 107.701726 370.749538 
L 112.838665 370.749538 
L 117.975604 386.507745 
L 123.112543 374.251361 
L 128.249482 375.151829 
L 133.386421 383.00592 
L 138.52336 371.750059 
L 143.660299 376.252402 
L 148.797238 372.75058 
L 153.934177 374.251361 
L 159.071116 374.251361 
L 164.208055 374.251361 
L 169.344994 357.787607 
L 174.481933 367.858869 
L 179.618872 360.236441 
L 184.755811 363.651013 
L 189.89275 359.339685 
L 195.029689 357.304738 
L 200.166628 357.37372 
L 205.303567 355.16632 
L 210.440506 356.30451 
L 215.577445 355.20081 
L 220.714384 354.166092 
L 225.851323 352.648504 
L 230.988262 355.062848 
L 236.125201 358.373948 
L 241.26214 351.234388 
L 246.399079 389.346529 
L 251.536018 380.930816 
L 256.672957 372.963482 
L 261.809896 375.170882 
L 266.946835 351.027445 
L 272.083774 349.09597 
L 277.220713 372.791029 
L 282.357652 381.758591 
L 287.494591 364.444298 
L 292.63153 361.995463 
L 297.76847 407.316144 
L 302.905409 407.419616 
L 308.042348 408.109428 
L 313.179287 413.041588 
L 318.316226 324.81457 
L 323.453165 322.779623 
L 328.590104 316.709273 
L 333.727043 318.433804 
L 338.863982 285.840164 
L 344.000921 285.04688 
L 349.13786 283.805217 
L 354.274799 339.921464 
L 359.411738 409.075166 
L 364.548677 335.29972 
L 369.685616 355.097338 
L 374.822555 358.684363 
L 379.959494 392.381704 
L 385.096433 350.613557 
L 390.233372 349.509857 
L 395.370311 354.579979 
L 400.50725 357.097795 
L 405.644189 358.132513 
L 410.781128 379.999569 
L 415.918067 362.823238 
L 421.055006 355.476735 
L 426.191945 351.993182 
L 431.328884 359.684591 
L 436.465823 382.137988 
L 441.602762 382.172479 
L 446.739701 326.711554 
L 451.87664 328.815482 
L 457.013579 285.736692 
L 462.150518 286.219561 
L 467.287457 286.288542 
L 472.424396 285.874655 
L 477.561335 285.771183 
L 482.698274 285.59873 
L 487.835213 389.001622 
L 492.972152 415.283478 
L 498.109091 415.283478 
" style="fill:none;stroke:#1f77b4;stroke-linecap:square;stroke-width:1.5;"/>
   </g>
   <g id="patch_8">
    <path d="M 72 421.857391 
L 72 277.231304 
" style="fill:none;stroke:#000000;stroke-linecap:square;stroke-linejoin:miter;stroke-width:0.8;"/>
   </g>
   <g id="patch_9">
    <path d="M 518.4 421.857391 
L 518.4 277.231304 
" style="fill:none;stroke:#000000;stroke-linecap:square;stroke-linejoin:miter;stroke-width:0.8;"/>
   </g>
   <g id="patch_10">
    <path d="M 72 421.857391 
L 518.4 421.857391 
" style="fill:none;stroke:#000000;stroke-linecap:square;stroke-linejoin:miter;stroke-width:0.8;"/>
   </g>
   <g id="patch_11">
    <path d="M 72 277.231304 
L 518.4 277.231304 
" style="fill:none;stroke:#000000;stroke-linecap:square;stroke-linejoin:miter;stroke-width:0.8;"/>
   </g>
   <g id="text_28">
    <!-- left offset -->
    <g transform="translate(266.405625 271.231304)scale(0.12 -0.12)">
     <use xlink:href="#DejaVuSans-6c"/>
     <use x="27.783203" xlink:href="#DejaVuSans-65"/>
     <use x="89.306641" xlink:href="#DejaVuSans-66"/>
     <use x="124.496094" xlink:href="#DejaVuSans-74"/>
     <use x="163.705078" xlink:href="#DejaVuSans-20"/>
     <use x="195.492188" xlink:href="#DejaVuSans-6f"/>
     <use x="256.673828" xlink:href="#DejaVuSans-66"/>
     <use x="291.878906" xlink:href="#DejaVuSans-66"/>
     <use x="327.083984" xlink:href="#DejaVuSans-73"/>
     <use x="379.183594" xlink:href="#DejaVuSans-65"/>
     <use x="440.707031" xlink:href="#DejaVuSans-74"/>
    </g>
   </g>
  </g>
  <g id="axes_3">
   <g id="patch_12">
    <path d="M 72 595.408696 
L 518.4 595.408696 
L 518.4 450.782609 
L 72 450.782609 
z
" style="fill:#ffffff;"/>
   </g>
   <g id="matplotlib.axis_5">
    <g id="xtick_19">
     <g id="line2d_29">
      <g>
       <use style="stroke:#000000;stroke-width:0.8;" x="92.290909" xlink:href="#m28bba02d9a" y="595.408696"/>
      </g>
     </g>
     <g id="text_29">
      <!-- 0 -->
      <g transform="translate(89.109659 610.007133)scale(0.1 -0.1)">
       <use xlink:href="#DejaVuSans-30"/>
      </g>
     </g>
    </g>
    <g id="xtick_20">
     <g id="line2d_30">
      <g>
       <use style="stroke:#000000;stroke-width:0.8;" x="178.635203" xlink:href="#m28bba02d9a" y="595.408696"/>
      </g>
     </g>
     <g id="text_30">
      <!-- 20 -->
      <g transform="translate(172.272703 610.007133)scale(0.1 -0.1)">
       <use xlink:href="#DejaVuSans-32"/>
       <use x="63.623047" xlink:href="#DejaVuSans-30"/>
      </g>
     </g>
    </g>
    <g id="xtick_21">
     <g id="line2d_31">
      <g>
       <use style="stroke:#000000;stroke-width:0.8;" x="264.979497" xlink:href="#m28bba02d9a" y="595.408696"/>
      </g>
     </g>
     <g id="text_31">
      <!-- 40 -->
      <g transform="translate(258.616997 610.007133)scale(0.1 -0.1)">
       <use xlink:href="#DejaVuSans-34"/>
       <use x="63.623047" xlink:href="#DejaVuSans-30"/>
      </g>
     </g>
    </g>
    <g id="xtick_22">
     <g id="line2d_32">
      <g>
       <use style="stroke:#000000;stroke-width:0.8;" x="351.323791" xlink:href="#m28bba02d9a" y="595.408696"/>
      </g>
     </g>
     <g id="text_32">
      <!-- 60 -->
      <g transform="translate(344.961291 610.007133)scale(0.1 -0.1)">
       <use xlink:href="#DejaVuSans-36"/>
       <use x="63.623047" xlink:href="#DejaVuSans-30"/>
      </g>
     </g>
    </g>
    <g id="xtick_23">
     <g id="line2d_33">
      <g>
       <use style="stroke:#000000;stroke-width:0.8;" x="437.668085" xlink:href="#m28bba02d9a" y="595.408696"/>
      </g>
     </g>
     <g id="text_33">
      <!-- 80 -->
      <g transform="translate(431.305585 610.007133)scale(0.1 -0.1)">
       <use xlink:href="#DejaVuSans-38"/>
       <use x="63.623047" xlink:href="#DejaVuSans-30"/>
      </g>
     </g>
    </g>
   </g>
   <g id="matplotlib.axis_6">
    <g id="ytick_9">
     <g id="line2d_34">
      <g>
       <use style="stroke:#000000;stroke-width:0.8;" x="72" xlink:href="#m1257a44bbb" y="594.089136"/>
      </g>
     </g>
     <g id="text_34">
      <!-- 0 -->
      <g transform="translate(58.6375 597.888355)scale(0.1 -0.1)">
       <use xlink:href="#DejaVuSans-30"/>
      </g>
     </g>
    </g>
    <g id="ytick_10">
     <g id="line2d_35">
      <g>
       <use style="stroke:#000000;stroke-width:0.8;" x="72" xlink:href="#m1257a44bbb" y="569.011539"/>
      </g>
     </g>
     <g id="text_35">
      <!-- 50 -->
      <g transform="translate(52.275 572.810758)scale(0.1 -0.1)">
       <use xlink:href="#DejaVuSans-35"/>
       <use x="63.623047" xlink:href="#DejaVuSans-30"/>
      </g>
     </g>
    </g>
    <g id="ytick_11">
     <g id="line2d_36">
      <g>
       <use style="stroke:#000000;stroke-width:0.8;" x="72" xlink:href="#m1257a44bbb" y="543.933941"/>
      </g>
     </g>
     <g id="text_36">
      <!-- 100 -->
      <g transform="translate(45.9125 547.73316)scale(0.1 -0.1)">
       <use xlink:href="#DejaVuSans-31"/>
       <use x="63.623047" xlink:href="#DejaVuSans-30"/>
       <use x="127.246094" xlink:href="#DejaVuSans-30"/>
      </g>
     </g>
    </g>
    <g id="ytick_12">
     <g id="line2d_37">
      <g>
       <use style="stroke:#000000;stroke-width:0.8;" x="72" xlink:href="#m1257a44bbb" y="518.856344"/>
      </g>
     </g>
     <g id="text_37">
      <!-- 150 -->
      <g transform="translate(45.9125 522.655563)scale(0.1 -0.1)">
       <use xlink:href="#DejaVuSans-31"/>
       <use x="63.623047" xlink:href="#DejaVuSans-35"/>
       <use x="127.246094" xlink:href="#DejaVuSans-30"/>
      </g>
     </g>
    </g>
    <g id="ytick_13">
     <g id="line2d_38">
      <g>
       <use style="stroke:#000000;stroke-width:0.8;" x="72" xlink:href="#m1257a44bbb" y="493.778747"/>
      </g>
     </g>
     <g id="text_38">
      <!-- 200 -->
      <g transform="translate(45.9125 497.577965)scale(0.1 -0.1)">
       <use xlink:href="#DejaVuSans-32"/>
       <use x="63.623047" xlink:href="#DejaVuSans-30"/>
       <use x="127.246094" xlink:href="#DejaVuSans-30"/>
      </g>
     </g>
    </g>
    <g id="ytick_14">
     <g id="line2d_39">
      <g>
       <use style="stroke:#000000;stroke-width:0.8;" x="72" xlink:href="#m1257a44bbb" y="468.701149"/>
      </g>
     </g>
     <g id="text_39">
      <!-- 250 -->
      <g transform="translate(45.9125 472.500368)scale(0.1 -0.1)">
       <use xlink:href="#DejaVuSans-32"/>
       <use x="63.623047" xlink:href="#DejaVuSans-35"/>
       <use x="127.246094" xlink:href="#DejaVuSans-30"/>
      </g>
     </g>
    </g>
   </g>
   <g id="line2d_40">
    <path clip-path="url(#pd7ff1ddfa2)" d="M 92.290909 560.302295 
L 96.608124 573.464004 
L 100.925338 564.64784 
L 105.242553 557.996748 
L 109.559768 557.303922 
L 113.876983 571.4375 
L 118.194197 576.945437 
L 122.511412 576.702949 
L 126.828627 565.884535 
L 131.145841 545.463597 
L 135.463056 562.707939 
L 139.780271 525.059982 
L 144.097485 540.319391 
L 148.4147 560.750716 
L 152.731915 549.880915 
L 157.04913 542.405402 
L 161.366344 522.701576 
L 165.683559 549.594313 
L 170.000774 559.1238 
L 174.317988 555.732354 
L 178.635203 549.57043 
L 182.952418 549.379363 
L 187.269632 514.246843 
L 191.586847 550.812368 
L 195.904062 562.46748 
L 200.221277 547.492572 
L 204.538491 502.567847 
L 208.855706 546.99102 
L 213.172921 499.200284 
L 217.490135 549.283829 
L 221.80735 561.536027 
L 226.124565 543.623457 
L 230.441779 556.878758 
L 234.758994 523.943514 
L 239.076209 560.174671 
L 243.393424 562.53913 
L 247.710638 579.806848 
L 252.027853 562.204762 
L 256.345068 550.573534 
L 260.662282 555.015851 
L 264.979497 546.704419 
L 269.296712 545.772965 
L 273.613926 544.507144 
L 277.931141 546.250634 
L 282.248356 550.382467 
L 286.565571 546.393934 
L 290.882785 548.80616 
L 295.2 546.895486 
L 299.517215 547.564222 
L 303.834429 556.424973 
L 308.151644 558.263997 
L 312.468859 508.777538 
L 316.786074 583.652079 
L 321.103288 582.338491 
L 325.420503 583.699846 
L 329.737718 583.604312 
L 334.054932 584.989551 
L 338.372147 525.089918 
L 342.689362 457.905841 
L 347.006576 526.881175 
L 351.323791 515.154413 
L 355.641006 522.414975 
L 359.958221 518.736927 
L 364.275435 573.883758 
L 368.59265 583.365478 
L 372.909865 532.971449 
L 377.227079 529.07845 
L 381.544294 545.056463 
L 385.861509 588.834783 
L 390.178723 559.267101 
L 394.495938 562.46748 
L 398.813153 560.270205 
L 403.130368 560.65234 
L 407.447582 548.997228 
L 411.764797 563.685535 
L 416.082012 551.122853 
L 420.399226 546.823836 
L 424.716441 555.517403 
L 429.033656 543.671224 
L 433.35087 556.830992 
L 437.668085 553.415662 
L 441.9853 546.680535 
L 446.302515 547.014903 
L 450.619729 559.768653 
L 454.936944 543.933941 
L 459.254159 544.48326 
L 463.571373 541.90385 
L 467.888588 537.413766 
L 472.205803 562.443597 
L 476.523017 474.313754 
L 480.840232 553.558962 
L 485.157447 533.25805 
L 489.474662 492.369624 
L 493.791876 519.52508 
L 498.109091 457.356522 
" style="fill:none;stroke:#1f77b4;stroke-linecap:square;stroke-width:1.5;"/>
   </g>
   <g id="patch_13">
    <path d="M 72 595.408696 
L 72 450.782609 
" style="fill:none;stroke:#000000;stroke-linecap:square;stroke-linejoin:miter;stroke-width:0.8;"/>
   </g>
   <g id="patch_14">
    <path d="M 518.4 595.408696 
L 518.4 450.782609 
" style="fill:none;stroke:#000000;stroke-linecap:square;stroke-linejoin:miter;stroke-width:0.8;"/>
   </g>
   <g id="patch_15">
    <path d="M 72 595.408696 
L 518.4 595.408696 
" style="fill:none;stroke:#000000;stroke-linecap:square;stroke-linejoin:miter;stroke-width:0.8;"/>
   </g>
   <g id="patch_16">
    <path d="M 72 450.782609 
L 518.4 450.782609 
" style="fill:none;stroke:#000000;stroke-linecap:square;stroke-linejoin:miter;stroke-width:0.8;"/>
   </g>
   <g id="text_40">
    <!-- right onset -->
    <defs>
     <path d="M 41.109375 46.296875 
Q 39.59375 47.171875 37.8125 47.578125 
Q 36.03125 48 33.890625 48 
Q 26.265625 48 22.1875 43.046875 
Q 18.109375 38.09375 18.109375 28.8125 
L 18.109375 0 
L 9.078125 0 
L 9.078125 54.6875 
L 18.109375 54.6875 
L 18.109375 46.1875 
Q 20.953125 51.171875 25.484375 53.578125 
Q 30.03125 56 36.53125 56 
Q 37.453125 56 38.578125 55.875 
Q 39.703125 55.765625 41.0625 55.515625 
z
" id="DejaVuSans-72"/>
     <path d="M 9.421875 54.6875 
L 18.40625 54.6875 
L 18.40625 0 
L 9.421875 0 
z
M 9.421875 75.984375 
L 18.40625 75.984375 
L 18.40625 64.59375 
L 9.421875 64.59375 
z
" id="DejaVuSans-69"/>
     <path d="M 45.40625 27.984375 
Q 45.40625 37.75 41.375 43.109375 
Q 37.359375 48.484375 30.078125 48.484375 
Q 22.859375 48.484375 18.828125 43.109375 
Q 14.796875 37.75 14.796875 27.984375 
Q 14.796875 18.265625 18.828125 12.890625 
Q 22.859375 7.515625 30.078125 7.515625 
Q 37.359375 7.515625 41.375 12.890625 
Q 45.40625 18.265625 45.40625 27.984375 
z
M 54.390625 6.78125 
Q 54.390625 -7.171875 48.1875 -13.984375 
Q 42 -20.796875 29.203125 -20.796875 
Q 24.46875 -20.796875 20.265625 -20.09375 
Q 16.0625 -19.390625 12.109375 -17.921875 
L 12.109375 -9.1875 
Q 16.0625 -11.328125 19.921875 -12.34375 
Q 23.78125 -13.375 27.78125 -13.375 
Q 36.625 -13.375 41.015625 -8.765625 
Q 45.40625 -4.15625 45.40625 5.171875 
L 45.40625 9.625 
Q 42.625 4.78125 38.28125 2.390625 
Q 33.9375 0 27.875 0 
Q 17.828125 0 11.671875 7.65625 
Q 5.515625 15.328125 5.515625 27.984375 
Q 5.515625 40.671875 11.671875 48.328125 
Q 17.828125 56 27.875 56 
Q 33.9375 56 38.28125 53.609375 
Q 42.625 51.21875 45.40625 46.390625 
L 45.40625 54.6875 
L 54.390625 54.6875 
z
" id="DejaVuSans-67"/>
     <path d="M 54.890625 33.015625 
L 54.890625 0 
L 45.90625 0 
L 45.90625 32.71875 
Q 45.90625 40.484375 42.875 44.328125 
Q 39.84375 48.1875 33.796875 48.1875 
Q 26.515625 48.1875 22.3125 43.546875 
Q 18.109375 38.921875 18.109375 30.90625 
L 18.109375 0 
L 9.078125 0 
L 9.078125 75.984375 
L 18.109375 75.984375 
L 18.109375 46.1875 
Q 21.34375 51.125 25.703125 53.5625 
Q 30.078125 56 35.796875 56 
Q 45.21875 56 50.046875 50.171875 
Q 54.890625 44.34375 54.890625 33.015625 
z
" id="DejaVuSans-68"/>
    </defs>
    <g transform="translate(262.5525 444.782609)scale(0.12 -0.12)">
     <use xlink:href="#DejaVuSans-72"/>
     <use x="41.113281" xlink:href="#DejaVuSans-69"/>
     <use x="68.896484" xlink:href="#DejaVuSans-67"/>
     <use x="132.373047" xlink:href="#DejaVuSans-68"/>
     <use x="195.751953" xlink:href="#DejaVuSans-74"/>
     <use x="234.960938" xlink:href="#DejaVuSans-20"/>
     <use x="266.748047" xlink:href="#DejaVuSans-6f"/>
     <use x="327.929688" xlink:href="#DejaVuSans-6e"/>
     <use x="391.308594" xlink:href="#DejaVuSans-73"/>
     <use x="443.408203" xlink:href="#DejaVuSans-65"/>
     <use x="504.931641" xlink:href="#DejaVuSans-74"/>
    </g>
   </g>
  </g>
  <g id="axes_4">
   <g id="patch_17">
    <path d="M 72 768.96 
L 518.4 768.96 
L 518.4 624.333913 
L 72 624.333913 
z
" style="fill:#ffffff;"/>
   </g>
   <g id="matplotlib.axis_7">
    <g id="xtick_24">
     <g id="line2d_41">
      <g>
       <use style="stroke:#000000;stroke-width:0.8;" x="92.290909" xlink:href="#m28bba02d9a" y="768.96"/>
      </g>
     </g>
     <g id="text_41">
      <!-- 0 -->
      <g transform="translate(89.109659 783.558437)scale(0.1 -0.1)">
       <use xlink:href="#DejaVuSans-30"/>
      </g>
     </g>
    </g>
    <g id="xtick_25">
     <g id="line2d_42">
      <g>
       <use style="stroke:#000000;stroke-width:0.8;" x="178.635203" xlink:href="#m28bba02d9a" y="768.96"/>
      </g>
     </g>
     <g id="text_42">
      <!-- 20 -->
      <g transform="translate(172.272703 783.558437)scale(0.1 -0.1)">
       <use xlink:href="#DejaVuSans-32"/>
       <use x="63.623047" xlink:href="#DejaVuSans-30"/>
      </g>
     </g>
    </g>
    <g id="xtick_26">
     <g id="line2d_43">
      <g>
       <use style="stroke:#000000;stroke-width:0.8;" x="264.979497" xlink:href="#m28bba02d9a" y="768.96"/>
      </g>
     </g>
     <g id="text_43">
      <!-- 40 -->
      <g transform="translate(258.616997 783.558437)scale(0.1 -0.1)">
       <use xlink:href="#DejaVuSans-34"/>
       <use x="63.623047" xlink:href="#DejaVuSans-30"/>
      </g>
     </g>
    </g>
    <g id="xtick_27">
     <g id="line2d_44">
      <g>
       <use style="stroke:#000000;stroke-width:0.8;" x="351.323791" xlink:href="#m28bba02d9a" y="768.96"/>
      </g>
     </g>
     <g id="text_44">
      <!-- 60 -->
      <g transform="translate(344.961291 783.558437)scale(0.1 -0.1)">
       <use xlink:href="#DejaVuSans-36"/>
       <use x="63.623047" xlink:href="#DejaVuSans-30"/>
      </g>
     </g>
    </g>
    <g id="xtick_28">
     <g id="line2d_45">
      <g>
       <use style="stroke:#000000;stroke-width:0.8;" x="437.668085" xlink:href="#m28bba02d9a" y="768.96"/>
      </g>
     </g>
     <g id="text_45">
      <!-- 80 -->
      <g transform="translate(431.305585 783.558437)scale(0.1 -0.1)">
       <use xlink:href="#DejaVuSans-38"/>
       <use x="63.623047" xlink:href="#DejaVuSans-30"/>
      </g>
     </g>
    </g>
    <g id="text_46">
     <!-- Events -->
     <defs>
      <path d="M 9.8125 72.90625 
L 55.90625 72.90625 
L 55.90625 64.59375 
L 19.671875 64.59375 
L 19.671875 43.015625 
L 54.390625 43.015625 
L 54.390625 34.71875 
L 19.671875 34.71875 
L 19.671875 8.296875 
L 56.78125 8.296875 
L 56.78125 0 
L 9.8125 0 
z
" id="DejaVuSans-45"/>
      <path d="M 2.984375 54.6875 
L 12.5 54.6875 
L 29.59375 8.796875 
L 46.6875 54.6875 
L 56.203125 54.6875 
L 35.6875 0 
L 23.484375 0 
z
" id="DejaVuSans-76"/>
     </defs>
     <g transform="translate(278.271094 797.236562)scale(0.1 -0.1)">
      <use xlink:href="#DejaVuSans-45"/>
      <use x="63.183594" xlink:href="#DejaVuSans-76"/>
      <use x="122.363281" xlink:href="#DejaVuSans-65"/>
      <use x="183.886719" xlink:href="#DejaVuSans-6e"/>
      <use x="247.265625" xlink:href="#DejaVuSans-74"/>
      <use x="286.474609" xlink:href="#DejaVuSans-73"/>
     </g>
    </g>
   </g>
   <g id="matplotlib.axis_8">
    <g id="ytick_15">
     <g id="line2d_46">
      <g>
       <use style="stroke:#000000;stroke-width:0.8;" x="72" xlink:href="#m1257a44bbb" y="767.238651"/>
      </g>
     </g>
     <g id="text_47">
      <!-- 0 -->
      <g transform="translate(58.6375 771.03787)scale(0.1 -0.1)">
       <use xlink:href="#DejaVuSans-30"/>
      </g>
     </g>
    </g>
    <g id="ytick_16">
     <g id="line2d_47">
      <g>
       <use style="stroke:#000000;stroke-width:0.8;" x="72" xlink:href="#m1257a44bbb" y="744.287334"/>
      </g>
     </g>
     <g id="text_48">
      <!-- 50 -->
      <g transform="translate(52.275 748.086553)scale(0.1 -0.1)">
       <use xlink:href="#DejaVuSans-35"/>
       <use x="63.623047" xlink:href="#DejaVuSans-30"/>
      </g>
     </g>
    </g>
    <g id="ytick_17">
     <g id="line2d_48">
      <g>
       <use style="stroke:#000000;stroke-width:0.8;" x="72" xlink:href="#m1257a44bbb" y="721.336016"/>
      </g>
     </g>
     <g id="text_49">
      <!-- 100 -->
      <g transform="translate(45.9125 725.135235)scale(0.1 -0.1)">
       <use xlink:href="#DejaVuSans-31"/>
       <use x="63.623047" xlink:href="#DejaVuSans-30"/>
       <use x="127.246094" xlink:href="#DejaVuSans-30"/>
      </g>
     </g>
    </g>
    <g id="ytick_18">
     <g id="line2d_49">
      <g>
       <use style="stroke:#000000;stroke-width:0.8;" x="72" xlink:href="#m1257a44bbb" y="698.384699"/>
      </g>
     </g>
     <g id="text_50">
      <!-- 150 -->
      <g transform="translate(45.9125 702.183918)scale(0.1 -0.1)">
       <use xlink:href="#DejaVuSans-31"/>
       <use x="63.623047" xlink:href="#DejaVuSans-35"/>
       <use x="127.246094" xlink:href="#DejaVuSans-30"/>
      </g>
     </g>
    </g>
    <g id="ytick_19">
     <g id="line2d_50">
      <g>
       <use style="stroke:#000000;stroke-width:0.8;" x="72" xlink:href="#m1257a44bbb" y="675.433382"/>
      </g>
     </g>
     <g id="text_51">
      <!-- 200 -->
      <g transform="translate(45.9125 679.232601)scale(0.1 -0.1)">
       <use xlink:href="#DejaVuSans-32"/>
       <use x="63.623047" xlink:href="#DejaVuSans-30"/>
       <use x="127.246094" xlink:href="#DejaVuSans-30"/>
      </g>
     </g>
    </g>
    <g id="ytick_20">
     <g id="line2d_51">
      <g>
       <use style="stroke:#000000;stroke-width:0.8;" x="72" xlink:href="#m1257a44bbb" y="652.482064"/>
      </g>
     </g>
     <g id="text_52">
      <!-- 250 -->
      <g transform="translate(45.9125 656.281283)scale(0.1 -0.1)">
       <use xlink:href="#DejaVuSans-32"/>
       <use x="63.623047" xlink:href="#DejaVuSans-35"/>
       <use x="127.246094" xlink:href="#DejaVuSans-30"/>
      </g>
     </g>
    </g>
    <g id="ytick_21">
     <g id="line2d_52">
      <g>
       <use style="stroke:#000000;stroke-width:0.8;" x="72" xlink:href="#m1257a44bbb" y="629.530747"/>
      </g>
     </g>
     <g id="text_53">
      <!-- 300 -->
      <g transform="translate(45.9125 633.329966)scale(0.1 -0.1)">
       <use xlink:href="#DejaVuSans-33"/>
       <use x="63.623047" xlink:href="#DejaVuSans-30"/>
       <use x="127.246094" xlink:href="#DejaVuSans-30"/>
      </g>
     </g>
    </g>
   </g>
   <g id="line2d_53">
    <path clip-path="url(#p4026e50298)" d="M 92.290909 736.425742 
L 96.608124 733.889423 
L 100.925338 735.791663 
L 105.242553 735.474623 
L 109.559768 733.889423 
L 113.876983 747.205089 
L 118.194197 748.473247 
L 122.511412 737.37686 
L 126.828627 747.839168 
L 131.145841 736.742781 
L 135.463056 704.395234 
L 139.780271 737.6939 
L 144.097485 735.474623 
L 148.4147 736.457446 
L 152.731915 726.079289 
L 157.04913 729.991942 
L 161.366344 727.631235 
L 165.683559 688.745146 
L 170.000774 686.209572 
L 174.317988 726.538315 
L 178.635203 722.975396 
L 182.952418 725.92628 
L 187.269632 686.428156 
L 191.586847 727.740527 
L 195.904062 725.620262 
L 200.221277 724.724068 
L 204.538491 724.243183 
L 208.855706 723.871591 
L 213.172921 687.542934 
L 217.490135 722.844246 
L 221.80735 721.073716 
L 226.124565 723.959024 
L 230.441779 740.680698 
L 234.758994 735.4784 
L 239.076209 739.259902 
L 243.393424 737.948399 
L 247.710638 724.068316 
L 252.027853 724.396192 
L 256.345068 737.948399 
L 260.662282 723.106547 
L 264.979497 720.767698 
L 269.296712 721.357875 
L 273.613926 676.285859 
L 277.931141 705.117086 
L 282.248356 722.013627 
L 286.565571 731.434596 
L 290.882785 721.445308 
L 295.2 730.057517 
L 299.517215 722.188494 
L 303.834429 734.013887 
L 308.151644 723.215839 
L 312.468859 717.794956 
L 316.786074 756.528036 
L 321.103288 756.20016 
L 325.420503 757.249364 
L 329.737718 757.686531 
L 334.054932 705.073369 
L 338.372147 702.384786 
L 342.689362 701.903901 
L 347.006576 630.907826 
L 351.323791 637.727646 
L 355.641006 680.548247 
L 359.958221 714.778497 
L 364.275435 750.254676 
L 368.59265 657.290912 
L 372.909865 711.390446 
L 377.227079 704.24275 
L 381.544294 761.905202 
L 385.861509 762.386087 
L 390.178723 724.352475 
L 394.495938 724.396192 
L 398.813153 677.990814 
L 403.130368 721.5546 
L 407.447582 723.499998 
L 411.764797 722.10106 
L 416.082012 676.526302 
L 420.399226 742.014061 
L 424.716441 717.641947 
L 429.033656 718.538142 
L 433.35087 724.221325 
L 437.668085 687.149483 
L 441.9853 724.83336 
L 446.302515 740.134238 
L 450.619729 728.986456 
L 454.936944 724.505484 
L 459.254159 723.040971 
L 463.571373 711.762038 
L 467.888588 741.642468 
L 472.205803 723.959024 
L 476.523017 718.14469 
L 480.840232 705.882129 
L 485.157447 719.915221 
L 489.474662 680.460813 
L 493.791876 680.657539 
L 498.109091 729.33619 
" style="fill:none;stroke:#1f77b4;stroke-linecap:square;stroke-width:1.5;"/>
   </g>
   <g id="patch_18">
    <path d="M 72 768.96 
L 72 624.333913 
" style="fill:none;stroke:#000000;stroke-linecap:square;stroke-linejoin:miter;stroke-width:0.8;"/>
   </g>
   <g id="patch_19">
    <path d="M 518.4 768.96 
L 518.4 624.333913 
" style="fill:none;stroke:#000000;stroke-linecap:square;stroke-linejoin:miter;stroke-width:0.8;"/>
   </g>
   <g id="patch_20">
    <path d="M 72 768.96 
L 518.4 768.96 
" style="fill:none;stroke:#000000;stroke-linecap:square;stroke-linejoin:miter;stroke-width:0.8;"/>
   </g>
   <g id="patch_21">
    <path d="M 72 624.333913 
L 518.4 624.333913 
" style="fill:none;stroke:#000000;stroke-linecap:square;stroke-linejoin:miter;stroke-width:0.8;"/>
   </g>
   <g id="text_54">
    <!-- right offset -->
    <g transform="translate(262.130625 618.333913)scale(0.12 -0.12)">
     <use xlink:href="#DejaVuSans-72"/>
     <use x="41.113281" xlink:href="#DejaVuSans-69"/>
     <use x="68.896484" xlink:href="#DejaVuSans-67"/>
     <use x="132.373047" xlink:href="#DejaVuSans-68"/>
     <use x="195.751953" xlink:href="#DejaVuSans-74"/>
     <use x="234.960938" xlink:href="#DejaVuSans-20"/>
     <use x="266.748047" xlink:href="#DejaVuSans-6f"/>
     <use x="327.929688" xlink:href="#DejaVuSans-66"/>
     <use x="363.134766" xlink:href="#DejaVuSans-66"/>
     <use x="398.339844" xlink:href="#DejaVuSans-73"/>
     <use x="450.439453" xlink:href="#DejaVuSans-65"/>
     <use x="511.962891" xlink:href="#DejaVuSans-74"/>
    </g>
   </g>
  </g>
 </g>
 <defs>
  <clipPath id="p23d1f4a3c4">
   <rect height="144.626087" width="446.4" x="72" y="103.68"/>
  </clipPath>
  <clipPath id="p648aad3d97">
   <rect height="144.626087" width="446.4" x="72" y="277.231304"/>
  </clipPath>
  <clipPath id="pd7ff1ddfa2">
   <rect height="144.626087" width="446.4" x="72" y="450.782609"/>
  </clipPath>
  <clipPath id="p4026e50298">
   <rect height="144.626087" width="446.4" x="72" y="624.333913"/>
  </clipPath>
 </defs>
</svg>
